G04 #@! TF.GenerationSoftware,KiCad,Pcbnew,(5.1.8-0-10_14)*
G04 #@! TF.CreationDate,2021-02-08T17:11:09+00:00*
G04 #@! TF.ProjectId,ccd60,63636436-302e-46b6-9963-61645f706362,rev?*
G04 #@! TF.SameCoordinates,Original*
G04 #@! TF.FileFunction,Legend,Top*
G04 #@! TF.FilePolarity,Positive*
%FSLAX46Y46*%
G04 Gerber Fmt 4.6, Leading zero omitted, Abs format (unit mm)*
G04 Created by KiCad (PCBNEW (5.1.8-0-10_14)) date 2021-02-08 17:11:09*
%MOMM*%
%LPD*%
G01*
G04 APERTURE LIST*
%ADD10C,0.100000*%
%ADD11C,0.150000*%
G04 APERTURE END LIST*
D10*
G36*
X257813552Y-175928810D02*
G01*
X252850127Y-176449011D01*
X257813552Y-176449011D01*
X258093683Y-176505597D01*
X258322725Y-176659997D01*
X258477609Y-176889163D01*
X258535267Y-177170049D01*
X258535267Y-179606432D01*
X258477688Y-179887804D01*
X258322928Y-180117654D01*
X258093909Y-180272975D01*
X257813552Y-180330762D01*
X252850127Y-180330762D01*
X252570256Y-180272896D01*
X252341917Y-180117450D01*
X252188075Y-179887578D01*
X252131693Y-179606432D01*
X252131693Y-177170049D01*
X252189014Y-176889958D01*
X252343071Y-176661155D01*
X252571048Y-176506539D01*
X252850127Y-176449011D01*
X257813552Y-175928810D01*
X255969901Y-175928810D01*
X256573516Y-175306544D01*
X256679716Y-175098160D01*
X256655529Y-174865361D01*
X256507155Y-174685985D01*
X256284831Y-174618431D01*
X255592641Y-174618431D01*
X255592641Y-173903978D01*
X258794428Y-173903978D01*
X258924008Y-173869131D01*
X259018868Y-173773927D01*
X259053589Y-173643877D01*
X259018868Y-173513827D01*
X258924008Y-173418624D01*
X258794428Y-173383777D01*
X251872532Y-173383777D01*
X251689278Y-173459958D01*
X251613371Y-173643877D01*
X251689278Y-173827796D01*
X251872532Y-173903978D01*
X255074319Y-173903978D01*
X255074319Y-174618431D01*
X254063919Y-174618431D01*
X253934339Y-174653278D01*
X253839479Y-174748481D01*
X253804758Y-174878531D01*
X253839479Y-175008581D01*
X253934339Y-175103785D01*
X254063919Y-175138632D01*
X256012548Y-175138632D01*
X255244906Y-175928810D01*
X252850127Y-175928810D01*
X252600878Y-175954028D01*
X252368726Y-176026353D01*
X251975609Y-176292360D01*
X251710562Y-176686903D01*
X251638498Y-176919896D01*
X251613371Y-177170049D01*
X251613371Y-179606432D01*
X251638475Y-179856806D01*
X251710486Y-180090063D01*
X251975409Y-180485287D01*
X252368502Y-180752216D01*
X252600725Y-180825105D01*
X252850127Y-180850963D01*
X257813552Y-180850963D01*
X258063174Y-180825128D01*
X258295662Y-180752292D01*
X258689434Y-180485488D01*
X258955275Y-180090288D01*
X259027847Y-179856958D01*
X259053589Y-179606432D01*
X259053589Y-177170049D01*
X259027824Y-176919743D01*
X258955198Y-176686678D01*
X258689233Y-176292160D01*
X258295436Y-176026277D01*
X258063022Y-175954005D01*
X257813552Y-175928810D01*
G37*
X257813552Y-175928810D02*
X252850127Y-176449011D01*
X257813552Y-176449011D01*
X258093683Y-176505597D01*
X258322725Y-176659997D01*
X258477609Y-176889163D01*
X258535267Y-177170049D01*
X258535267Y-179606432D01*
X258477688Y-179887804D01*
X258322928Y-180117654D01*
X258093909Y-180272975D01*
X257813552Y-180330762D01*
X252850127Y-180330762D01*
X252570256Y-180272896D01*
X252341917Y-180117450D01*
X252188075Y-179887578D01*
X252131693Y-179606432D01*
X252131693Y-177170049D01*
X252189014Y-176889958D01*
X252343071Y-176661155D01*
X252571048Y-176506539D01*
X252850127Y-176449011D01*
X257813552Y-175928810D01*
X255969901Y-175928810D01*
X256573516Y-175306544D01*
X256679716Y-175098160D01*
X256655529Y-174865361D01*
X256507155Y-174685985D01*
X256284831Y-174618431D01*
X255592641Y-174618431D01*
X255592641Y-173903978D01*
X258794428Y-173903978D01*
X258924008Y-173869131D01*
X259018868Y-173773927D01*
X259053589Y-173643877D01*
X259018868Y-173513827D01*
X258924008Y-173418624D01*
X258794428Y-173383777D01*
X251872532Y-173383777D01*
X251689278Y-173459958D01*
X251613371Y-173643877D01*
X251689278Y-173827796D01*
X251872532Y-173903978D01*
X255074319Y-173903978D01*
X255074319Y-174618431D01*
X254063919Y-174618431D01*
X253934339Y-174653278D01*
X253839479Y-174748481D01*
X253804758Y-174878531D01*
X253839479Y-175008581D01*
X253934339Y-175103785D01*
X254063919Y-175138632D01*
X256012548Y-175138632D01*
X255244906Y-175928810D01*
X252850127Y-175928810D01*
X252600878Y-175954028D01*
X252368726Y-176026353D01*
X251975609Y-176292360D01*
X251710562Y-176686903D01*
X251638498Y-176919896D01*
X251613371Y-177170049D01*
X251613371Y-179606432D01*
X251638475Y-179856806D01*
X251710486Y-180090063D01*
X251975409Y-180485287D01*
X252368502Y-180752216D01*
X252600725Y-180825105D01*
X252850127Y-180850963D01*
X257813552Y-180850963D01*
X258063174Y-180825128D01*
X258295662Y-180752292D01*
X258689434Y-180485488D01*
X258955275Y-180090288D01*
X259027847Y-179856958D01*
X259053589Y-179606432D01*
X259053589Y-177170049D01*
X259027824Y-176919743D01*
X258955198Y-176686678D01*
X258689233Y-176292160D01*
X258295436Y-176026277D01*
X258063022Y-175954005D01*
X257813552Y-175928810D01*
G36*
X256553833Y-176827638D02*
G01*
X253716796Y-177431262D01*
X254113127Y-177351131D01*
X255372846Y-177351131D01*
X253535756Y-179247559D01*
X253350389Y-179083428D01*
X253211439Y-178882441D01*
X253123930Y-178654122D01*
X253092885Y-178407995D01*
X253092885Y-178371778D01*
X253174004Y-177974271D01*
X253392865Y-177649871D01*
X253716796Y-177431262D01*
X256553833Y-176827638D01*
X254077041Y-179425350D01*
X256091280Y-177351131D01*
X256547272Y-177351131D01*
X256671932Y-177351131D01*
X254674096Y-179428642D01*
X254083602Y-179428642D01*
X254077042Y-179425350D01*
X254077041Y-179425350D01*
X256553833Y-176827638D01*
X257190255Y-177581600D01*
X257350504Y-177742860D01*
X257469790Y-177933388D01*
X257544443Y-178145567D01*
X257570795Y-178371778D01*
X257564235Y-178407995D01*
X257564234Y-178407995D01*
X257486822Y-178798580D01*
X257266373Y-179129702D01*
X256936447Y-179350950D01*
X256547273Y-179428642D01*
X255399091Y-179428642D01*
X257190255Y-177581600D01*
X256553833Y-176827638D01*
X254113127Y-176827638D01*
X253803342Y-176859560D01*
X253514818Y-176949854D01*
X253253706Y-177092347D01*
X253026156Y-177280867D01*
X252838316Y-177509242D01*
X252696338Y-177771301D01*
X252606370Y-178060870D01*
X252574563Y-178371778D01*
X252574563Y-178407995D01*
X252606393Y-178718683D01*
X252696414Y-179007987D01*
X252838458Y-179269732D01*
X253026356Y-179497739D01*
X253253941Y-179685831D01*
X253515043Y-179827831D01*
X253803494Y-179917561D01*
X254113127Y-179948842D01*
X256553833Y-179948842D01*
X256862957Y-179916988D01*
X257150865Y-179826886D01*
X257411419Y-179684697D01*
X257638485Y-179496578D01*
X257825924Y-179268690D01*
X257967599Y-179007191D01*
X258057376Y-178718240D01*
X258089116Y-178407995D01*
X258089116Y-178371778D01*
X258057947Y-178061023D01*
X257968541Y-177771526D01*
X257827054Y-177509478D01*
X257639642Y-177281069D01*
X257412458Y-177092489D01*
X257151659Y-176949931D01*
X256863399Y-176859583D01*
X256553833Y-176827638D01*
G37*
X256553833Y-176827638D02*
X253716796Y-177431262D01*
X254113127Y-177351131D01*
X255372846Y-177351131D01*
X253535756Y-179247559D01*
X253350389Y-179083428D01*
X253211439Y-178882441D01*
X253123930Y-178654122D01*
X253092885Y-178407995D01*
X253092885Y-178371778D01*
X253174004Y-177974271D01*
X253392865Y-177649871D01*
X253716796Y-177431262D01*
X256553833Y-176827638D01*
X254077041Y-179425350D01*
X256091280Y-177351131D01*
X256547272Y-177351131D01*
X256671932Y-177351131D01*
X254674096Y-179428642D01*
X254083602Y-179428642D01*
X254077042Y-179425350D01*
X254077041Y-179425350D01*
X256553833Y-176827638D01*
X257190255Y-177581600D01*
X257350504Y-177742860D01*
X257469790Y-177933388D01*
X257544443Y-178145567D01*
X257570795Y-178371778D01*
X257564235Y-178407995D01*
X257564234Y-178407995D01*
X257486822Y-178798580D01*
X257266373Y-179129702D01*
X256936447Y-179350950D01*
X256547273Y-179428642D01*
X255399091Y-179428642D01*
X257190255Y-177581600D01*
X256553833Y-176827638D01*
X254113127Y-176827638D01*
X253803342Y-176859560D01*
X253514818Y-176949854D01*
X253253706Y-177092347D01*
X253026156Y-177280867D01*
X252838316Y-177509242D01*
X252696338Y-177771301D01*
X252606370Y-178060870D01*
X252574563Y-178371778D01*
X252574563Y-178407995D01*
X252606393Y-178718683D01*
X252696414Y-179007987D01*
X252838458Y-179269732D01*
X253026356Y-179497739D01*
X253253941Y-179685831D01*
X253515043Y-179827831D01*
X253803494Y-179917561D01*
X254113127Y-179948842D01*
X256553833Y-179948842D01*
X256862957Y-179916988D01*
X257150865Y-179826886D01*
X257411419Y-179684697D01*
X257638485Y-179496578D01*
X257825924Y-179268690D01*
X257967599Y-179007191D01*
X258057376Y-178718240D01*
X258089116Y-178407995D01*
X258089116Y-178371778D01*
X258057947Y-178061023D01*
X257968541Y-177771526D01*
X257827054Y-177509478D01*
X257639642Y-177281069D01*
X257412458Y-177092489D01*
X257151659Y-176949931D01*
X256863399Y-176859583D01*
X256553833Y-176827638D01*
D11*
X246101714Y-181426952D02*
X246101714Y-181046000D01*
X245768380Y-181284095D02*
X246625523Y-181284095D01*
X246720761Y-181236476D01*
X246768380Y-181141238D01*
X246768380Y-181046000D01*
X246768380Y-180569809D02*
X246720761Y-180665047D01*
X246673142Y-180712666D01*
X246577904Y-180760285D01*
X246292190Y-180760285D01*
X246196952Y-180712666D01*
X246149333Y-180665047D01*
X246101714Y-180569809D01*
X246101714Y-180426952D01*
X246149333Y-180331714D01*
X246196952Y-180284095D01*
X246292190Y-180236476D01*
X246577904Y-180236476D01*
X246673142Y-180284095D01*
X246720761Y-180331714D01*
X246768380Y-180426952D01*
X246768380Y-180569809D01*
X246768380Y-179046000D02*
X246101714Y-179046000D01*
X246292190Y-179046000D02*
X246196952Y-178998380D01*
X246149333Y-178950761D01*
X246101714Y-178855523D01*
X246101714Y-178760285D01*
X246720761Y-178046000D02*
X246768380Y-178141238D01*
X246768380Y-178331714D01*
X246720761Y-178426952D01*
X246625523Y-178474571D01*
X246244571Y-178474571D01*
X246149333Y-178426952D01*
X246101714Y-178331714D01*
X246101714Y-178141238D01*
X246149333Y-178046000D01*
X246244571Y-177998380D01*
X246339809Y-177998380D01*
X246435047Y-178474571D01*
X246720761Y-177617428D02*
X246768380Y-177522190D01*
X246768380Y-177331714D01*
X246720761Y-177236476D01*
X246625523Y-177188857D01*
X246577904Y-177188857D01*
X246482666Y-177236476D01*
X246435047Y-177331714D01*
X246435047Y-177474571D01*
X246387428Y-177569809D01*
X246292190Y-177617428D01*
X246244571Y-177617428D01*
X246149333Y-177569809D01*
X246101714Y-177474571D01*
X246101714Y-177331714D01*
X246149333Y-177236476D01*
X246720761Y-176379333D02*
X246768380Y-176474571D01*
X246768380Y-176665047D01*
X246720761Y-176760285D01*
X246625523Y-176807904D01*
X246244571Y-176807904D01*
X246149333Y-176760285D01*
X246101714Y-176665047D01*
X246101714Y-176474571D01*
X246149333Y-176379333D01*
X246244571Y-176331714D01*
X246339809Y-176331714D01*
X246435047Y-176807904D01*
X246101714Y-176046000D02*
X246101714Y-175665047D01*
X245768380Y-175903142D02*
X246625523Y-175903142D01*
X246720761Y-175855523D01*
X246768380Y-175760285D01*
X246768380Y-175665047D01*
X245220761Y-182260285D02*
X245268380Y-182117428D01*
X245268380Y-181879333D01*
X245220761Y-181784095D01*
X245173142Y-181736476D01*
X245077904Y-181688857D01*
X244982666Y-181688857D01*
X244887428Y-181736476D01*
X244839809Y-181784095D01*
X244792190Y-181879333D01*
X244744571Y-182069809D01*
X244696952Y-182165047D01*
X244649333Y-182212666D01*
X244554095Y-182260285D01*
X244458857Y-182260285D01*
X244363619Y-182212666D01*
X244316000Y-182165047D01*
X244268380Y-182069809D01*
X244268380Y-181831714D01*
X244316000Y-181688857D01*
X245268380Y-181260285D02*
X244268380Y-181260285D01*
X245268380Y-180831714D02*
X244744571Y-180831714D01*
X244649333Y-180879333D01*
X244601714Y-180974571D01*
X244601714Y-181117428D01*
X244649333Y-181212666D01*
X244696952Y-181260285D01*
X245268380Y-180212666D02*
X245220761Y-180307904D01*
X245173142Y-180355523D01*
X245077904Y-180403142D01*
X244792190Y-180403142D01*
X244696952Y-180355523D01*
X244649333Y-180307904D01*
X244601714Y-180212666D01*
X244601714Y-180069809D01*
X244649333Y-179974571D01*
X244696952Y-179926952D01*
X244792190Y-179879333D01*
X245077904Y-179879333D01*
X245173142Y-179926952D01*
X245220761Y-179974571D01*
X245268380Y-180069809D01*
X245268380Y-180212666D01*
X245268380Y-179450761D02*
X244601714Y-179450761D01*
X244792190Y-179450761D02*
X244696952Y-179403142D01*
X244649333Y-179355523D01*
X244601714Y-179260285D01*
X244601714Y-179165047D01*
X244601714Y-178974571D02*
X244601714Y-178593619D01*
X244268380Y-178831714D02*
X245125523Y-178831714D01*
X245220761Y-178784095D01*
X245268380Y-178688857D01*
X245268380Y-178593619D01*
X244601714Y-177498380D02*
X245601714Y-177498380D01*
X244649333Y-177498380D02*
X244601714Y-177403142D01*
X244601714Y-177212666D01*
X244649333Y-177117428D01*
X244696952Y-177069809D01*
X244792190Y-177022190D01*
X245077904Y-177022190D01*
X245173142Y-177069809D01*
X245220761Y-177117428D01*
X245268380Y-177212666D01*
X245268380Y-177403142D01*
X245220761Y-177498380D01*
X245268380Y-176593619D02*
X244601714Y-176593619D01*
X244268380Y-176593619D02*
X244316000Y-176641238D01*
X244363619Y-176593619D01*
X244316000Y-176546000D01*
X244268380Y-176593619D01*
X244363619Y-176593619D01*
X244601714Y-176117428D02*
X245268380Y-176117428D01*
X244696952Y-176117428D02*
X244649333Y-176069809D01*
X244601714Y-175974571D01*
X244601714Y-175831714D01*
X244649333Y-175736476D01*
X244744571Y-175688857D01*
X245268380Y-175688857D01*
X245220761Y-175260285D02*
X245268380Y-175165047D01*
X245268380Y-174974571D01*
X245220761Y-174879333D01*
X245125523Y-174831714D01*
X245077904Y-174831714D01*
X244982666Y-174879333D01*
X244935047Y-174974571D01*
X244935047Y-175117428D01*
X244887428Y-175212666D01*
X244792190Y-175260285D01*
X244744571Y-175260285D01*
X244649333Y-175212666D01*
X244601714Y-175117428D01*
X244601714Y-174974571D01*
X244649333Y-174879333D01*
X97815495Y-122124210D02*
X97815495Y-121124210D01*
X97815495Y-121600401D02*
X98386923Y-121600401D01*
X98386923Y-122124210D02*
X98386923Y-121124210D01*
X98815495Y-121219449D02*
X98863114Y-121171830D01*
X98958352Y-121124210D01*
X99196447Y-121124210D01*
X99291685Y-121171830D01*
X99339304Y-121219449D01*
X99386923Y-121314687D01*
X99386923Y-121409925D01*
X99339304Y-121552782D01*
X98767876Y-122124210D01*
X99386923Y-122124210D01*
X74701495Y-150635710D02*
X74701495Y-149635710D01*
X74701495Y-150111901D02*
X75272923Y-150111901D01*
X75272923Y-150635710D02*
X75272923Y-149635710D01*
X75653876Y-149635710D02*
X76272923Y-149635710D01*
X75939590Y-150016663D01*
X76082447Y-150016663D01*
X76177685Y-150064282D01*
X76225304Y-150111901D01*
X76272923Y-150207139D01*
X76272923Y-150445234D01*
X76225304Y-150540472D01*
X76177685Y-150588091D01*
X76082447Y-150635710D01*
X75796733Y-150635710D01*
X75701495Y-150588091D01*
X75653876Y-150540472D01*
X200914095Y-141192130D02*
X200914095Y-140192130D01*
X200914095Y-140668321D02*
X201485523Y-140668321D01*
X201485523Y-141192130D02*
X201485523Y-140192130D01*
X202390285Y-140525464D02*
X202390285Y-141192130D01*
X202152190Y-140144511D02*
X201914095Y-140858797D01*
X202533142Y-140858797D01*
X263169495Y-179274210D02*
X263169495Y-178274210D01*
X263169495Y-178750401D02*
X263740923Y-178750401D01*
X263740923Y-179274210D02*
X263740923Y-178274210D01*
X264693304Y-178274210D02*
X264217114Y-178274210D01*
X264169495Y-178750401D01*
X264217114Y-178702782D01*
X264312352Y-178655163D01*
X264550447Y-178655163D01*
X264645685Y-178702782D01*
X264693304Y-178750401D01*
X264740923Y-178845639D01*
X264740923Y-179083734D01*
X264693304Y-179178972D01*
X264645685Y-179226591D01*
X264550447Y-179274210D01*
X264312352Y-179274210D01*
X264217114Y-179226591D01*
X264169495Y-179178972D01*
X356387495Y-150318210D02*
X356387495Y-149318210D01*
X356387495Y-149794401D02*
X356958923Y-149794401D01*
X356958923Y-150318210D02*
X356958923Y-149318210D01*
X357863685Y-149318210D02*
X357673209Y-149318210D01*
X357577971Y-149365830D01*
X357530352Y-149413449D01*
X357435114Y-149556306D01*
X357387495Y-149746782D01*
X357387495Y-150127734D01*
X357435114Y-150222972D01*
X357482733Y-150270591D01*
X357577971Y-150318210D01*
X357768447Y-150318210D01*
X357863685Y-150270591D01*
X357911304Y-150222972D01*
X357958923Y-150127734D01*
X357958923Y-149889639D01*
X357911304Y-149794401D01*
X357863685Y-149746782D01*
X357768447Y-149699163D01*
X357577971Y-149699163D01*
X357482733Y-149746782D01*
X357435114Y-149794401D01*
X357387495Y-149889639D01*
X332676595Y-122078630D02*
X332676595Y-121078630D01*
X332676595Y-121554821D02*
X333248023Y-121554821D01*
X333248023Y-122078630D02*
X333248023Y-121078630D01*
X333628976Y-121078630D02*
X334295642Y-121078630D01*
X333867071Y-122078630D01*
M02*
