G04 #@! TF.GenerationSoftware,KiCad,Pcbnew,(5.1.8-0-10_14)*
G04 #@! TF.CreationDate,2021-02-08T17:11:09+00:00*
G04 #@! TF.ProjectId,ccd60,63636436-302e-46b6-9963-61645f706362,rev?*
G04 #@! TF.SameCoordinates,Original*
G04 #@! TF.FileFunction,Soldermask,Bot*
G04 #@! TF.FilePolarity,Negative*
%FSLAX46Y46*%
G04 Gerber Fmt 4.6, Leading zero omitted, Abs format (unit mm)*
G04 Created by KiCad (PCBNEW (5.1.8-0-10_14)) date 2021-02-08 17:11:09*
%MOMM*%
%LPD*%
G01*
G04 APERTURE LIST*
%ADD10C,1.750000*%
%ADD11R,1.905000X1.905000*%
%ADD12C,1.905000*%
%ADD13C,2.250000*%
%ADD14C,3.987800*%
%ADD15R,0.600000X2.450000*%
%ADD16R,0.300000X2.450000*%
%ADD17C,0.650000*%
%ADD18R,1.060000X0.650000*%
%ADD19C,3.048000*%
%ADD20R,0.800000X0.900000*%
%ADD21O,1.350000X1.350000*%
%ADD22C,1.350000*%
%ADD23R,0.700000X1.000000*%
%ADD24R,0.700000X0.600000*%
%ADD25R,8.000000X8.000000*%
%ADD26O,8.700000X4.500000*%
G04 APERTURE END LIST*
D10*
X87630000Y-102393750D03*
X77470000Y-102393750D03*
D11*
X83820000Y-107473750D03*
D12*
X81280000Y-107473750D03*
D13*
X78740000Y-99853750D03*
D14*
X82550000Y-102393750D03*
D13*
X85090000Y-97313750D03*
D10*
X94773750Y-140493750D03*
X84613750Y-140493750D03*
D11*
X88423750Y-145573750D03*
D12*
X90963750Y-145573750D03*
D13*
X85883750Y-137953750D03*
D14*
X89693750Y-140493750D03*
D13*
X92233750Y-135413750D03*
D10*
X90011250Y-140493750D03*
X79851250Y-140493750D03*
D11*
X86201250Y-145573750D03*
D12*
X83661250Y-145573750D03*
D13*
X81121250Y-137953750D03*
D14*
X84931250Y-140493750D03*
D13*
X87471250Y-135413750D03*
D15*
X95300000Y-98682500D03*
X88850000Y-98682500D03*
X94525000Y-98682500D03*
X89625000Y-98682500D03*
D16*
X90325000Y-98682500D03*
X93825000Y-98682500D03*
X90825000Y-98682500D03*
X93325000Y-98682500D03*
X91325000Y-98682500D03*
X92825000Y-98682500D03*
X92325000Y-98682500D03*
X91825000Y-98682500D03*
D17*
X94965000Y-96737500D03*
X89185000Y-96737500D03*
G36*
G01*
X181662400Y-174188820D02*
X180725484Y-175125736D01*
G75*
G02*
X180619418Y-175125736I-53033J53033D01*
G01*
X180513352Y-175019670D01*
G75*
G02*
X180513352Y-174913604I53033J53033D01*
G01*
X181450268Y-173976688D01*
G75*
G02*
X181556334Y-173976688I53033J-53033D01*
G01*
X181662400Y-174082754D01*
G75*
G02*
X181662400Y-174188820I-53033J-53033D01*
G01*
G37*
G36*
G01*
X181308846Y-173835266D02*
X180371930Y-174772182D01*
G75*
G02*
X180265864Y-174772182I-53033J53033D01*
G01*
X180159798Y-174666116D01*
G75*
G02*
X180159798Y-174560050I53033J53033D01*
G01*
X181096714Y-173623134D01*
G75*
G02*
X181202780Y-173623134I53033J-53033D01*
G01*
X181308846Y-173729200D01*
G75*
G02*
X181308846Y-173835266I-53033J-53033D01*
G01*
G37*
G36*
G01*
X180955293Y-173481713D02*
X180018377Y-174418629D01*
G75*
G02*
X179912311Y-174418629I-53033J53033D01*
G01*
X179806245Y-174312563D01*
G75*
G02*
X179806245Y-174206497I53033J53033D01*
G01*
X180743161Y-173269581D01*
G75*
G02*
X180849227Y-173269581I53033J-53033D01*
G01*
X180955293Y-173375647D01*
G75*
G02*
X180955293Y-173481713I-53033J-53033D01*
G01*
G37*
G36*
G01*
X180601739Y-173128159D02*
X179664823Y-174065075D01*
G75*
G02*
X179558757Y-174065075I-53033J53033D01*
G01*
X179452691Y-173959009D01*
G75*
G02*
X179452691Y-173852943I53033J53033D01*
G01*
X180389607Y-172916027D01*
G75*
G02*
X180495673Y-172916027I53033J-53033D01*
G01*
X180601739Y-173022093D01*
G75*
G02*
X180601739Y-173128159I-53033J-53033D01*
G01*
G37*
G36*
G01*
X180248186Y-172774606D02*
X179311270Y-173711522D01*
G75*
G02*
X179205204Y-173711522I-53033J53033D01*
G01*
X179099138Y-173605456D01*
G75*
G02*
X179099138Y-173499390I53033J53033D01*
G01*
X180036054Y-172562474D01*
G75*
G02*
X180142120Y-172562474I53033J-53033D01*
G01*
X180248186Y-172668540D01*
G75*
G02*
X180248186Y-172774606I-53033J-53033D01*
G01*
G37*
G36*
G01*
X179894633Y-172421053D02*
X178957717Y-173357969D01*
G75*
G02*
X178851651Y-173357969I-53033J53033D01*
G01*
X178745585Y-173251903D01*
G75*
G02*
X178745585Y-173145837I53033J53033D01*
G01*
X179682501Y-172208921D01*
G75*
G02*
X179788567Y-172208921I53033J-53033D01*
G01*
X179894633Y-172314987D01*
G75*
G02*
X179894633Y-172421053I-53033J-53033D01*
G01*
G37*
G36*
G01*
X179541079Y-172067499D02*
X178604163Y-173004415D01*
G75*
G02*
X178498097Y-173004415I-53033J53033D01*
G01*
X178392031Y-172898349D01*
G75*
G02*
X178392031Y-172792283I53033J53033D01*
G01*
X179328947Y-171855367D01*
G75*
G02*
X179435013Y-171855367I53033J-53033D01*
G01*
X179541079Y-171961433D01*
G75*
G02*
X179541079Y-172067499I-53033J-53033D01*
G01*
G37*
G36*
G01*
X179187526Y-171713946D02*
X178250610Y-172650862D01*
G75*
G02*
X178144544Y-172650862I-53033J53033D01*
G01*
X178038478Y-172544796D01*
G75*
G02*
X178038478Y-172438730I53033J53033D01*
G01*
X178975394Y-171501814D01*
G75*
G02*
X179081460Y-171501814I53033J-53033D01*
G01*
X179187526Y-171607880D01*
G75*
G02*
X179187526Y-171713946I-53033J-53033D01*
G01*
G37*
G36*
G01*
X178833973Y-171360393D02*
X177897057Y-172297309D01*
G75*
G02*
X177790991Y-172297309I-53033J53033D01*
G01*
X177684925Y-172191243D01*
G75*
G02*
X177684925Y-172085177I53033J53033D01*
G01*
X178621841Y-171148261D01*
G75*
G02*
X178727907Y-171148261I53033J-53033D01*
G01*
X178833973Y-171254327D01*
G75*
G02*
X178833973Y-171360393I-53033J-53033D01*
G01*
G37*
G36*
G01*
X178480419Y-171006839D02*
X177543503Y-171943755D01*
G75*
G02*
X177437437Y-171943755I-53033J53033D01*
G01*
X177331371Y-171837689D01*
G75*
G02*
X177331371Y-171731623I53033J53033D01*
G01*
X178268287Y-170794707D01*
G75*
G02*
X178374353Y-170794707I53033J-53033D01*
G01*
X178480419Y-170900773D01*
G75*
G02*
X178480419Y-171006839I-53033J-53033D01*
G01*
G37*
G36*
G01*
X178126866Y-170653286D02*
X177189950Y-171590202D01*
G75*
G02*
X177083884Y-171590202I-53033J53033D01*
G01*
X176977818Y-171484136D01*
G75*
G02*
X176977818Y-171378070I53033J53033D01*
G01*
X177914734Y-170441154D01*
G75*
G02*
X178020800Y-170441154I53033J-53033D01*
G01*
X178126866Y-170547220D01*
G75*
G02*
X178126866Y-170653286I-53033J-53033D01*
G01*
G37*
G36*
G01*
X177773312Y-170299732D02*
X176836396Y-171236648D01*
G75*
G02*
X176730330Y-171236648I-53033J53033D01*
G01*
X176624264Y-171130582D01*
G75*
G02*
X176624264Y-171024516I53033J53033D01*
G01*
X177561180Y-170087600D01*
G75*
G02*
X177667246Y-170087600I53033J-53033D01*
G01*
X177773312Y-170193666D01*
G75*
G02*
X177773312Y-170299732I-53033J-53033D01*
G01*
G37*
G36*
G01*
X175775736Y-171130582D02*
X175669670Y-171236648D01*
G75*
G02*
X175563604Y-171236648I-53033J53033D01*
G01*
X174626688Y-170299732D01*
G75*
G02*
X174626688Y-170193666I53033J53033D01*
G01*
X174732754Y-170087600D01*
G75*
G02*
X174838820Y-170087600I53033J-53033D01*
G01*
X175775736Y-171024516D01*
G75*
G02*
X175775736Y-171130582I-53033J-53033D01*
G01*
G37*
G36*
G01*
X175422182Y-171484136D02*
X175316116Y-171590202D01*
G75*
G02*
X175210050Y-171590202I-53033J53033D01*
G01*
X174273134Y-170653286D01*
G75*
G02*
X174273134Y-170547220I53033J53033D01*
G01*
X174379200Y-170441154D01*
G75*
G02*
X174485266Y-170441154I53033J-53033D01*
G01*
X175422182Y-171378070D01*
G75*
G02*
X175422182Y-171484136I-53033J-53033D01*
G01*
G37*
G36*
G01*
X175068629Y-171837689D02*
X174962563Y-171943755D01*
G75*
G02*
X174856497Y-171943755I-53033J53033D01*
G01*
X173919581Y-171006839D01*
G75*
G02*
X173919581Y-170900773I53033J53033D01*
G01*
X174025647Y-170794707D01*
G75*
G02*
X174131713Y-170794707I53033J-53033D01*
G01*
X175068629Y-171731623D01*
G75*
G02*
X175068629Y-171837689I-53033J-53033D01*
G01*
G37*
G36*
G01*
X174715075Y-172191243D02*
X174609009Y-172297309D01*
G75*
G02*
X174502943Y-172297309I-53033J53033D01*
G01*
X173566027Y-171360393D01*
G75*
G02*
X173566027Y-171254327I53033J53033D01*
G01*
X173672093Y-171148261D01*
G75*
G02*
X173778159Y-171148261I53033J-53033D01*
G01*
X174715075Y-172085177D01*
G75*
G02*
X174715075Y-172191243I-53033J-53033D01*
G01*
G37*
G36*
G01*
X174361522Y-172544796D02*
X174255456Y-172650862D01*
G75*
G02*
X174149390Y-172650862I-53033J53033D01*
G01*
X173212474Y-171713946D01*
G75*
G02*
X173212474Y-171607880I53033J53033D01*
G01*
X173318540Y-171501814D01*
G75*
G02*
X173424606Y-171501814I53033J-53033D01*
G01*
X174361522Y-172438730D01*
G75*
G02*
X174361522Y-172544796I-53033J-53033D01*
G01*
G37*
G36*
G01*
X174007969Y-172898349D02*
X173901903Y-173004415D01*
G75*
G02*
X173795837Y-173004415I-53033J53033D01*
G01*
X172858921Y-172067499D01*
G75*
G02*
X172858921Y-171961433I53033J53033D01*
G01*
X172964987Y-171855367D01*
G75*
G02*
X173071053Y-171855367I53033J-53033D01*
G01*
X174007969Y-172792283D01*
G75*
G02*
X174007969Y-172898349I-53033J-53033D01*
G01*
G37*
G36*
G01*
X173654415Y-173251903D02*
X173548349Y-173357969D01*
G75*
G02*
X173442283Y-173357969I-53033J53033D01*
G01*
X172505367Y-172421053D01*
G75*
G02*
X172505367Y-172314987I53033J53033D01*
G01*
X172611433Y-172208921D01*
G75*
G02*
X172717499Y-172208921I53033J-53033D01*
G01*
X173654415Y-173145837D01*
G75*
G02*
X173654415Y-173251903I-53033J-53033D01*
G01*
G37*
G36*
G01*
X173300862Y-173605456D02*
X173194796Y-173711522D01*
G75*
G02*
X173088730Y-173711522I-53033J53033D01*
G01*
X172151814Y-172774606D01*
G75*
G02*
X172151814Y-172668540I53033J53033D01*
G01*
X172257880Y-172562474D01*
G75*
G02*
X172363946Y-172562474I53033J-53033D01*
G01*
X173300862Y-173499390D01*
G75*
G02*
X173300862Y-173605456I-53033J-53033D01*
G01*
G37*
G36*
G01*
X172947309Y-173959009D02*
X172841243Y-174065075D01*
G75*
G02*
X172735177Y-174065075I-53033J53033D01*
G01*
X171798261Y-173128159D01*
G75*
G02*
X171798261Y-173022093I53033J53033D01*
G01*
X171904327Y-172916027D01*
G75*
G02*
X172010393Y-172916027I53033J-53033D01*
G01*
X172947309Y-173852943D01*
G75*
G02*
X172947309Y-173959009I-53033J-53033D01*
G01*
G37*
G36*
G01*
X172593755Y-174312563D02*
X172487689Y-174418629D01*
G75*
G02*
X172381623Y-174418629I-53033J53033D01*
G01*
X171444707Y-173481713D01*
G75*
G02*
X171444707Y-173375647I53033J53033D01*
G01*
X171550773Y-173269581D01*
G75*
G02*
X171656839Y-173269581I53033J-53033D01*
G01*
X172593755Y-174206497D01*
G75*
G02*
X172593755Y-174312563I-53033J-53033D01*
G01*
G37*
G36*
G01*
X172240202Y-174666116D02*
X172134136Y-174772182D01*
G75*
G02*
X172028070Y-174772182I-53033J53033D01*
G01*
X171091154Y-173835266D01*
G75*
G02*
X171091154Y-173729200I53033J53033D01*
G01*
X171197220Y-173623134D01*
G75*
G02*
X171303286Y-173623134I53033J-53033D01*
G01*
X172240202Y-174560050D01*
G75*
G02*
X172240202Y-174666116I-53033J-53033D01*
G01*
G37*
G36*
G01*
X171886648Y-175019670D02*
X171780582Y-175125736D01*
G75*
G02*
X171674516Y-175125736I-53033J53033D01*
G01*
X170737600Y-174188820D01*
G75*
G02*
X170737600Y-174082754I53033J53033D01*
G01*
X170843666Y-173976688D01*
G75*
G02*
X170949732Y-173976688I53033J-53033D01*
G01*
X171886648Y-174913604D01*
G75*
G02*
X171886648Y-175019670I-53033J-53033D01*
G01*
G37*
G36*
G01*
X171886648Y-176186396D02*
X170949732Y-177123312D01*
G75*
G02*
X170843666Y-177123312I-53033J53033D01*
G01*
X170737600Y-177017246D01*
G75*
G02*
X170737600Y-176911180I53033J53033D01*
G01*
X171674516Y-175974264D01*
G75*
G02*
X171780582Y-175974264I53033J-53033D01*
G01*
X171886648Y-176080330D01*
G75*
G02*
X171886648Y-176186396I-53033J-53033D01*
G01*
G37*
G36*
G01*
X172240202Y-176539950D02*
X171303286Y-177476866D01*
G75*
G02*
X171197220Y-177476866I-53033J53033D01*
G01*
X171091154Y-177370800D01*
G75*
G02*
X171091154Y-177264734I53033J53033D01*
G01*
X172028070Y-176327818D01*
G75*
G02*
X172134136Y-176327818I53033J-53033D01*
G01*
X172240202Y-176433884D01*
G75*
G02*
X172240202Y-176539950I-53033J-53033D01*
G01*
G37*
G36*
G01*
X172593755Y-176893503D02*
X171656839Y-177830419D01*
G75*
G02*
X171550773Y-177830419I-53033J53033D01*
G01*
X171444707Y-177724353D01*
G75*
G02*
X171444707Y-177618287I53033J53033D01*
G01*
X172381623Y-176681371D01*
G75*
G02*
X172487689Y-176681371I53033J-53033D01*
G01*
X172593755Y-176787437D01*
G75*
G02*
X172593755Y-176893503I-53033J-53033D01*
G01*
G37*
G36*
G01*
X172947309Y-177247057D02*
X172010393Y-178183973D01*
G75*
G02*
X171904327Y-178183973I-53033J53033D01*
G01*
X171798261Y-178077907D01*
G75*
G02*
X171798261Y-177971841I53033J53033D01*
G01*
X172735177Y-177034925D01*
G75*
G02*
X172841243Y-177034925I53033J-53033D01*
G01*
X172947309Y-177140991D01*
G75*
G02*
X172947309Y-177247057I-53033J-53033D01*
G01*
G37*
G36*
G01*
X173300862Y-177600610D02*
X172363946Y-178537526D01*
G75*
G02*
X172257880Y-178537526I-53033J53033D01*
G01*
X172151814Y-178431460D01*
G75*
G02*
X172151814Y-178325394I53033J53033D01*
G01*
X173088730Y-177388478D01*
G75*
G02*
X173194796Y-177388478I53033J-53033D01*
G01*
X173300862Y-177494544D01*
G75*
G02*
X173300862Y-177600610I-53033J-53033D01*
G01*
G37*
G36*
G01*
X173654415Y-177954163D02*
X172717499Y-178891079D01*
G75*
G02*
X172611433Y-178891079I-53033J53033D01*
G01*
X172505367Y-178785013D01*
G75*
G02*
X172505367Y-178678947I53033J53033D01*
G01*
X173442283Y-177742031D01*
G75*
G02*
X173548349Y-177742031I53033J-53033D01*
G01*
X173654415Y-177848097D01*
G75*
G02*
X173654415Y-177954163I-53033J-53033D01*
G01*
G37*
G36*
G01*
X174007969Y-178307717D02*
X173071053Y-179244633D01*
G75*
G02*
X172964987Y-179244633I-53033J53033D01*
G01*
X172858921Y-179138567D01*
G75*
G02*
X172858921Y-179032501I53033J53033D01*
G01*
X173795837Y-178095585D01*
G75*
G02*
X173901903Y-178095585I53033J-53033D01*
G01*
X174007969Y-178201651D01*
G75*
G02*
X174007969Y-178307717I-53033J-53033D01*
G01*
G37*
G36*
G01*
X174361522Y-178661270D02*
X173424606Y-179598186D01*
G75*
G02*
X173318540Y-179598186I-53033J53033D01*
G01*
X173212474Y-179492120D01*
G75*
G02*
X173212474Y-179386054I53033J53033D01*
G01*
X174149390Y-178449138D01*
G75*
G02*
X174255456Y-178449138I53033J-53033D01*
G01*
X174361522Y-178555204D01*
G75*
G02*
X174361522Y-178661270I-53033J-53033D01*
G01*
G37*
G36*
G01*
X174715075Y-179014823D02*
X173778159Y-179951739D01*
G75*
G02*
X173672093Y-179951739I-53033J53033D01*
G01*
X173566027Y-179845673D01*
G75*
G02*
X173566027Y-179739607I53033J53033D01*
G01*
X174502943Y-178802691D01*
G75*
G02*
X174609009Y-178802691I53033J-53033D01*
G01*
X174715075Y-178908757D01*
G75*
G02*
X174715075Y-179014823I-53033J-53033D01*
G01*
G37*
G36*
G01*
X175068629Y-179368377D02*
X174131713Y-180305293D01*
G75*
G02*
X174025647Y-180305293I-53033J53033D01*
G01*
X173919581Y-180199227D01*
G75*
G02*
X173919581Y-180093161I53033J53033D01*
G01*
X174856497Y-179156245D01*
G75*
G02*
X174962563Y-179156245I53033J-53033D01*
G01*
X175068629Y-179262311D01*
G75*
G02*
X175068629Y-179368377I-53033J-53033D01*
G01*
G37*
G36*
G01*
X175422182Y-179721930D02*
X174485266Y-180658846D01*
G75*
G02*
X174379200Y-180658846I-53033J53033D01*
G01*
X174273134Y-180552780D01*
G75*
G02*
X174273134Y-180446714I53033J53033D01*
G01*
X175210050Y-179509798D01*
G75*
G02*
X175316116Y-179509798I53033J-53033D01*
G01*
X175422182Y-179615864D01*
G75*
G02*
X175422182Y-179721930I-53033J-53033D01*
G01*
G37*
G36*
G01*
X175775736Y-180075484D02*
X174838820Y-181012400D01*
G75*
G02*
X174732754Y-181012400I-53033J53033D01*
G01*
X174626688Y-180906334D01*
G75*
G02*
X174626688Y-180800268I53033J53033D01*
G01*
X175563604Y-179863352D01*
G75*
G02*
X175669670Y-179863352I53033J-53033D01*
G01*
X175775736Y-179969418D01*
G75*
G02*
X175775736Y-180075484I-53033J-53033D01*
G01*
G37*
G36*
G01*
X177773312Y-180906334D02*
X177667246Y-181012400D01*
G75*
G02*
X177561180Y-181012400I-53033J53033D01*
G01*
X176624264Y-180075484D01*
G75*
G02*
X176624264Y-179969418I53033J53033D01*
G01*
X176730330Y-179863352D01*
G75*
G02*
X176836396Y-179863352I53033J-53033D01*
G01*
X177773312Y-180800268D01*
G75*
G02*
X177773312Y-180906334I-53033J-53033D01*
G01*
G37*
G36*
G01*
X178126866Y-180552780D02*
X178020800Y-180658846D01*
G75*
G02*
X177914734Y-180658846I-53033J53033D01*
G01*
X176977818Y-179721930D01*
G75*
G02*
X176977818Y-179615864I53033J53033D01*
G01*
X177083884Y-179509798D01*
G75*
G02*
X177189950Y-179509798I53033J-53033D01*
G01*
X178126866Y-180446714D01*
G75*
G02*
X178126866Y-180552780I-53033J-53033D01*
G01*
G37*
G36*
G01*
X178480419Y-180199227D02*
X178374353Y-180305293D01*
G75*
G02*
X178268287Y-180305293I-53033J53033D01*
G01*
X177331371Y-179368377D01*
G75*
G02*
X177331371Y-179262311I53033J53033D01*
G01*
X177437437Y-179156245D01*
G75*
G02*
X177543503Y-179156245I53033J-53033D01*
G01*
X178480419Y-180093161D01*
G75*
G02*
X178480419Y-180199227I-53033J-53033D01*
G01*
G37*
G36*
G01*
X178833973Y-179845673D02*
X178727907Y-179951739D01*
G75*
G02*
X178621841Y-179951739I-53033J53033D01*
G01*
X177684925Y-179014823D01*
G75*
G02*
X177684925Y-178908757I53033J53033D01*
G01*
X177790991Y-178802691D01*
G75*
G02*
X177897057Y-178802691I53033J-53033D01*
G01*
X178833973Y-179739607D01*
G75*
G02*
X178833973Y-179845673I-53033J-53033D01*
G01*
G37*
G36*
G01*
X179187526Y-179492120D02*
X179081460Y-179598186D01*
G75*
G02*
X178975394Y-179598186I-53033J53033D01*
G01*
X178038478Y-178661270D01*
G75*
G02*
X178038478Y-178555204I53033J53033D01*
G01*
X178144544Y-178449138D01*
G75*
G02*
X178250610Y-178449138I53033J-53033D01*
G01*
X179187526Y-179386054D01*
G75*
G02*
X179187526Y-179492120I-53033J-53033D01*
G01*
G37*
G36*
G01*
X179541079Y-179138567D02*
X179435013Y-179244633D01*
G75*
G02*
X179328947Y-179244633I-53033J53033D01*
G01*
X178392031Y-178307717D01*
G75*
G02*
X178392031Y-178201651I53033J53033D01*
G01*
X178498097Y-178095585D01*
G75*
G02*
X178604163Y-178095585I53033J-53033D01*
G01*
X179541079Y-179032501D01*
G75*
G02*
X179541079Y-179138567I-53033J-53033D01*
G01*
G37*
G36*
G01*
X179894633Y-178785013D02*
X179788567Y-178891079D01*
G75*
G02*
X179682501Y-178891079I-53033J53033D01*
G01*
X178745585Y-177954163D01*
G75*
G02*
X178745585Y-177848097I53033J53033D01*
G01*
X178851651Y-177742031D01*
G75*
G02*
X178957717Y-177742031I53033J-53033D01*
G01*
X179894633Y-178678947D01*
G75*
G02*
X179894633Y-178785013I-53033J-53033D01*
G01*
G37*
G36*
G01*
X180248186Y-178431460D02*
X180142120Y-178537526D01*
G75*
G02*
X180036054Y-178537526I-53033J53033D01*
G01*
X179099138Y-177600610D01*
G75*
G02*
X179099138Y-177494544I53033J53033D01*
G01*
X179205204Y-177388478D01*
G75*
G02*
X179311270Y-177388478I53033J-53033D01*
G01*
X180248186Y-178325394D01*
G75*
G02*
X180248186Y-178431460I-53033J-53033D01*
G01*
G37*
G36*
G01*
X180601739Y-178077907D02*
X180495673Y-178183973D01*
G75*
G02*
X180389607Y-178183973I-53033J53033D01*
G01*
X179452691Y-177247057D01*
G75*
G02*
X179452691Y-177140991I53033J53033D01*
G01*
X179558757Y-177034925D01*
G75*
G02*
X179664823Y-177034925I53033J-53033D01*
G01*
X180601739Y-177971841D01*
G75*
G02*
X180601739Y-178077907I-53033J-53033D01*
G01*
G37*
G36*
G01*
X180955293Y-177724353D02*
X180849227Y-177830419D01*
G75*
G02*
X180743161Y-177830419I-53033J53033D01*
G01*
X179806245Y-176893503D01*
G75*
G02*
X179806245Y-176787437I53033J53033D01*
G01*
X179912311Y-176681371D01*
G75*
G02*
X180018377Y-176681371I53033J-53033D01*
G01*
X180955293Y-177618287D01*
G75*
G02*
X180955293Y-177724353I-53033J-53033D01*
G01*
G37*
G36*
G01*
X181308846Y-177370800D02*
X181202780Y-177476866D01*
G75*
G02*
X181096714Y-177476866I-53033J53033D01*
G01*
X180159798Y-176539950D01*
G75*
G02*
X180159798Y-176433884I53033J53033D01*
G01*
X180265864Y-176327818D01*
G75*
G02*
X180371930Y-176327818I53033J-53033D01*
G01*
X181308846Y-177264734D01*
G75*
G02*
X181308846Y-177370800I-53033J-53033D01*
G01*
G37*
G36*
G01*
X181662400Y-177017246D02*
X181556334Y-177123312D01*
G75*
G02*
X181450268Y-177123312I-53033J53033D01*
G01*
X180513352Y-176186396D01*
G75*
G02*
X180513352Y-176080330I53033J53033D01*
G01*
X180619418Y-175974264D01*
G75*
G02*
X180725484Y-175974264I53033J-53033D01*
G01*
X181662400Y-176911180D01*
G75*
G02*
X181662400Y-177017246I-53033J-53033D01*
G01*
G37*
D18*
X157208400Y-177886400D03*
X157208400Y-175986400D03*
X155008400Y-175986400D03*
X155008400Y-176936400D03*
X155008400Y-177886400D03*
D13*
X327977500Y-135413750D03*
D14*
X325437500Y-140493750D03*
D13*
X321627500Y-137953750D03*
D10*
X320357500Y-140493750D03*
X330517500Y-140493750D03*
D14*
X338613750Y-119030750D03*
X338613750Y-142906750D03*
D19*
X353853750Y-119030750D03*
X353853750Y-142906750D03*
D10*
X351948750Y-130968750D03*
X341788750Y-130968750D03*
D13*
X343058750Y-128428750D03*
D14*
X346868750Y-130968750D03*
D13*
X349408750Y-125888750D03*
G36*
G01*
X188790797Y-175886032D02*
X189436032Y-175240797D01*
G75*
G02*
X189780746Y-175240797I172357J-172357D01*
G01*
X190125461Y-175585512D01*
G75*
G02*
X190125461Y-175930226I-172357J-172357D01*
G01*
X189480226Y-176575461D01*
G75*
G02*
X189135512Y-176575461I-172357J172357D01*
G01*
X188790797Y-176230746D01*
G75*
G02*
X188790797Y-175886032I172357J172357D01*
G01*
G37*
G36*
G01*
X187464971Y-174560206D02*
X188110206Y-173914971D01*
G75*
G02*
X188454920Y-173914971I172357J-172357D01*
G01*
X188799635Y-174259686D01*
G75*
G02*
X188799635Y-174604400I-172357J-172357D01*
G01*
X188154400Y-175249635D01*
G75*
G02*
X187809686Y-175249635I-172357J172357D01*
G01*
X187464971Y-174904920D01*
G75*
G02*
X187464971Y-174560206I172357J172357D01*
G01*
G37*
G36*
G01*
X155709200Y-173482950D02*
X155709200Y-174395450D01*
G75*
G02*
X155465450Y-174639200I-243750J0D01*
G01*
X154977950Y-174639200D01*
G75*
G02*
X154734200Y-174395450I0J243750D01*
G01*
X154734200Y-173482950D01*
G75*
G02*
X154977950Y-173239200I243750J0D01*
G01*
X155465450Y-173239200D01*
G75*
G02*
X155709200Y-173482950I0J-243750D01*
G01*
G37*
G36*
G01*
X157584200Y-173482950D02*
X157584200Y-174395450D01*
G75*
G02*
X157340450Y-174639200I-243750J0D01*
G01*
X156852950Y-174639200D01*
G75*
G02*
X156609200Y-174395450I0J243750D01*
G01*
X156609200Y-173482950D01*
G75*
G02*
X156852950Y-173239200I243750J0D01*
G01*
X157340450Y-173239200D01*
G75*
G02*
X157584200Y-173482950I0J-243750D01*
G01*
G37*
G36*
G01*
X145056250Y-168750000D02*
X144143750Y-168750000D01*
G75*
G02*
X143900000Y-168506250I0J243750D01*
G01*
X143900000Y-168018750D01*
G75*
G02*
X144143750Y-167775000I243750J0D01*
G01*
X145056250Y-167775000D01*
G75*
G02*
X145300000Y-168018750I0J-243750D01*
G01*
X145300000Y-168506250D01*
G75*
G02*
X145056250Y-168750000I-243750J0D01*
G01*
G37*
G36*
G01*
X145056250Y-170625000D02*
X144143750Y-170625000D01*
G75*
G02*
X143900000Y-170381250I0J243750D01*
G01*
X143900000Y-169893750D01*
G75*
G02*
X144143750Y-169650000I243750J0D01*
G01*
X145056250Y-169650000D01*
G75*
G02*
X145300000Y-169893750I0J-243750D01*
G01*
X145300000Y-170381250D01*
G75*
G02*
X145056250Y-170625000I-243750J0D01*
G01*
G37*
G36*
G01*
X179790365Y-183050032D02*
X180435600Y-182404797D01*
G75*
G02*
X180780314Y-182404797I172357J-172357D01*
G01*
X181125029Y-182749512D01*
G75*
G02*
X181125029Y-183094226I-172357J-172357D01*
G01*
X180479794Y-183739461D01*
G75*
G02*
X180135080Y-183739461I-172357J172357D01*
G01*
X179790365Y-183394746D01*
G75*
G02*
X179790365Y-183050032I172357J172357D01*
G01*
G37*
G36*
G01*
X178464539Y-181724206D02*
X179109774Y-181078971D01*
G75*
G02*
X179454488Y-181078971I172357J-172357D01*
G01*
X179799203Y-181423686D01*
G75*
G02*
X179799203Y-181768400I-172357J-172357D01*
G01*
X179153968Y-182413635D01*
G75*
G02*
X178809254Y-182413635I-172357J172357D01*
G01*
X178464539Y-182068920D01*
G75*
G02*
X178464539Y-181724206I172357J172357D01*
G01*
G37*
G36*
G01*
X185270797Y-172466032D02*
X185916032Y-171820797D01*
G75*
G02*
X186260746Y-171820797I172357J-172357D01*
G01*
X186605461Y-172165512D01*
G75*
G02*
X186605461Y-172510226I-172357J-172357D01*
G01*
X185960226Y-173155461D01*
G75*
G02*
X185615512Y-173155461I-172357J172357D01*
G01*
X185270797Y-172810746D01*
G75*
G02*
X185270797Y-172466032I172357J172357D01*
G01*
G37*
G36*
G01*
X183944971Y-171140206D02*
X184590206Y-170494971D01*
G75*
G02*
X184934920Y-170494971I172357J-172357D01*
G01*
X185279635Y-170839686D01*
G75*
G02*
X185279635Y-171184400I-172357J-172357D01*
G01*
X184634400Y-171829635D01*
G75*
G02*
X184289686Y-171829635I-172357J172357D01*
G01*
X183944971Y-171484920D01*
G75*
G02*
X183944971Y-171140206I172357J172357D01*
G01*
G37*
G36*
G01*
X177084381Y-165639216D02*
X177729616Y-164993981D01*
G75*
G02*
X178074330Y-164993981I172357J-172357D01*
G01*
X178419045Y-165338696D01*
G75*
G02*
X178419045Y-165683410I-172357J-172357D01*
G01*
X177773810Y-166328645D01*
G75*
G02*
X177429096Y-166328645I-172357J172357D01*
G01*
X177084381Y-165983930D01*
G75*
G02*
X177084381Y-165639216I172357J172357D01*
G01*
G37*
G36*
G01*
X175758555Y-164313390D02*
X176403790Y-163668155D01*
G75*
G02*
X176748504Y-163668155I172357J-172357D01*
G01*
X177093219Y-164012870D01*
G75*
G02*
X177093219Y-164357584I-172357J-172357D01*
G01*
X176447984Y-165002819D01*
G75*
G02*
X176103270Y-165002819I-172357J172357D01*
G01*
X175758555Y-164658104D01*
G75*
G02*
X175758555Y-164313390I172357J172357D01*
G01*
G37*
G36*
G01*
X166416381Y-179609216D02*
X167061616Y-178963981D01*
G75*
G02*
X167406330Y-178963981I172357J-172357D01*
G01*
X167751045Y-179308696D01*
G75*
G02*
X167751045Y-179653410I-172357J-172357D01*
G01*
X167105810Y-180298645D01*
G75*
G02*
X166761096Y-180298645I-172357J172357D01*
G01*
X166416381Y-179953930D01*
G75*
G02*
X166416381Y-179609216I172357J172357D01*
G01*
G37*
G36*
G01*
X165090555Y-178283390D02*
X165735790Y-177638155D01*
G75*
G02*
X166080504Y-177638155I172357J-172357D01*
G01*
X166425219Y-177982870D01*
G75*
G02*
X166425219Y-178327584I-172357J-172357D01*
G01*
X165779984Y-178972819D01*
G75*
G02*
X165435270Y-178972819I-172357J172357D01*
G01*
X165090555Y-178628104D01*
G75*
G02*
X165090555Y-178283390I172357J172357D01*
G01*
G37*
G36*
G01*
X111581250Y-106475000D02*
X110668750Y-106475000D01*
G75*
G02*
X110425000Y-106231250I0J243750D01*
G01*
X110425000Y-105743750D01*
G75*
G02*
X110668750Y-105500000I243750J0D01*
G01*
X111581250Y-105500000D01*
G75*
G02*
X111825000Y-105743750I0J-243750D01*
G01*
X111825000Y-106231250D01*
G75*
G02*
X111581250Y-106475000I-243750J0D01*
G01*
G37*
G36*
G01*
X111581250Y-108350000D02*
X110668750Y-108350000D01*
G75*
G02*
X110425000Y-108106250I0J243750D01*
G01*
X110425000Y-107618750D01*
G75*
G02*
X110668750Y-107375000I243750J0D01*
G01*
X111581250Y-107375000D01*
G75*
G02*
X111825000Y-107618750I0J-243750D01*
G01*
X111825000Y-108106250D01*
G75*
G02*
X111581250Y-108350000I-243750J0D01*
G01*
G37*
G36*
G01*
X109993750Y-101943750D02*
X109081250Y-101943750D01*
G75*
G02*
X108837500Y-101700000I0J243750D01*
G01*
X108837500Y-101212500D01*
G75*
G02*
X109081250Y-100968750I243750J0D01*
G01*
X109993750Y-100968750D01*
G75*
G02*
X110237500Y-101212500I0J-243750D01*
G01*
X110237500Y-101700000D01*
G75*
G02*
X109993750Y-101943750I-243750J0D01*
G01*
G37*
G36*
G01*
X109993750Y-103818750D02*
X109081250Y-103818750D01*
G75*
G02*
X108837500Y-103575000I0J243750D01*
G01*
X108837500Y-103087500D01*
G75*
G02*
X109081250Y-102843750I243750J0D01*
G01*
X109993750Y-102843750D01*
G75*
G02*
X110237500Y-103087500I0J-243750D01*
G01*
X110237500Y-103575000D01*
G75*
G02*
X109993750Y-103818750I-243750J0D01*
G01*
G37*
G36*
G01*
X113168750Y-101943750D02*
X112256250Y-101943750D01*
G75*
G02*
X112012500Y-101700000I0J243750D01*
G01*
X112012500Y-101212500D01*
G75*
G02*
X112256250Y-100968750I243750J0D01*
G01*
X113168750Y-100968750D01*
G75*
G02*
X113412500Y-101212500I0J-243750D01*
G01*
X113412500Y-101700000D01*
G75*
G02*
X113168750Y-101943750I-243750J0D01*
G01*
G37*
G36*
G01*
X113168750Y-103818750D02*
X112256250Y-103818750D01*
G75*
G02*
X112012500Y-103575000I0J243750D01*
G01*
X112012500Y-103087500D01*
G75*
G02*
X112256250Y-102843750I243750J0D01*
G01*
X113168750Y-102843750D01*
G75*
G02*
X113412500Y-103087500I0J-243750D01*
G01*
X113412500Y-103575000D01*
G75*
G02*
X113168750Y-103818750I-243750J0D01*
G01*
G37*
G36*
G01*
X132218750Y-101943750D02*
X131306250Y-101943750D01*
G75*
G02*
X131062500Y-101700000I0J243750D01*
G01*
X131062500Y-101212500D01*
G75*
G02*
X131306250Y-100968750I243750J0D01*
G01*
X132218750Y-100968750D01*
G75*
G02*
X132462500Y-101212500I0J-243750D01*
G01*
X132462500Y-101700000D01*
G75*
G02*
X132218750Y-101943750I-243750J0D01*
G01*
G37*
G36*
G01*
X132218750Y-103818750D02*
X131306250Y-103818750D01*
G75*
G02*
X131062500Y-103575000I0J243750D01*
G01*
X131062500Y-103087500D01*
G75*
G02*
X131306250Y-102843750I243750J0D01*
G01*
X132218750Y-102843750D01*
G75*
G02*
X132462500Y-103087500I0J-243750D01*
G01*
X132462500Y-103575000D01*
G75*
G02*
X132218750Y-103818750I-243750J0D01*
G01*
G37*
G36*
G01*
X151268750Y-101943750D02*
X150356250Y-101943750D01*
G75*
G02*
X150112500Y-101700000I0J243750D01*
G01*
X150112500Y-101212500D01*
G75*
G02*
X150356250Y-100968750I243750J0D01*
G01*
X151268750Y-100968750D01*
G75*
G02*
X151512500Y-101212500I0J-243750D01*
G01*
X151512500Y-101700000D01*
G75*
G02*
X151268750Y-101943750I-243750J0D01*
G01*
G37*
G36*
G01*
X151268750Y-103818750D02*
X150356250Y-103818750D01*
G75*
G02*
X150112500Y-103575000I0J243750D01*
G01*
X150112500Y-103087500D01*
G75*
G02*
X150356250Y-102843750I243750J0D01*
G01*
X151268750Y-102843750D01*
G75*
G02*
X151512500Y-103087500I0J-243750D01*
G01*
X151512500Y-103575000D01*
G75*
G02*
X151268750Y-103818750I-243750J0D01*
G01*
G37*
G36*
G01*
X170318750Y-101943750D02*
X169406250Y-101943750D01*
G75*
G02*
X169162500Y-101700000I0J243750D01*
G01*
X169162500Y-101212500D01*
G75*
G02*
X169406250Y-100968750I243750J0D01*
G01*
X170318750Y-100968750D01*
G75*
G02*
X170562500Y-101212500I0J-243750D01*
G01*
X170562500Y-101700000D01*
G75*
G02*
X170318750Y-101943750I-243750J0D01*
G01*
G37*
G36*
G01*
X170318750Y-103818750D02*
X169406250Y-103818750D01*
G75*
G02*
X169162500Y-103575000I0J243750D01*
G01*
X169162500Y-103087500D01*
G75*
G02*
X169406250Y-102843750I243750J0D01*
G01*
X170318750Y-102843750D01*
G75*
G02*
X170562500Y-103087500I0J-243750D01*
G01*
X170562500Y-103575000D01*
G75*
G02*
X170318750Y-103818750I-243750J0D01*
G01*
G37*
G36*
G01*
X189368750Y-101943750D02*
X188456250Y-101943750D01*
G75*
G02*
X188212500Y-101700000I0J243750D01*
G01*
X188212500Y-101212500D01*
G75*
G02*
X188456250Y-100968750I243750J0D01*
G01*
X189368750Y-100968750D01*
G75*
G02*
X189612500Y-101212500I0J-243750D01*
G01*
X189612500Y-101700000D01*
G75*
G02*
X189368750Y-101943750I-243750J0D01*
G01*
G37*
G36*
G01*
X189368750Y-103818750D02*
X188456250Y-103818750D01*
G75*
G02*
X188212500Y-103575000I0J243750D01*
G01*
X188212500Y-103087500D01*
G75*
G02*
X188456250Y-102843750I243750J0D01*
G01*
X189368750Y-102843750D01*
G75*
G02*
X189612500Y-103087500I0J-243750D01*
G01*
X189612500Y-103575000D01*
G75*
G02*
X189368750Y-103818750I-243750J0D01*
G01*
G37*
G36*
G01*
X208418750Y-101943750D02*
X207506250Y-101943750D01*
G75*
G02*
X207262500Y-101700000I0J243750D01*
G01*
X207262500Y-101212500D01*
G75*
G02*
X207506250Y-100968750I243750J0D01*
G01*
X208418750Y-100968750D01*
G75*
G02*
X208662500Y-101212500I0J-243750D01*
G01*
X208662500Y-101700000D01*
G75*
G02*
X208418750Y-101943750I-243750J0D01*
G01*
G37*
G36*
G01*
X208418750Y-103818750D02*
X207506250Y-103818750D01*
G75*
G02*
X207262500Y-103575000I0J243750D01*
G01*
X207262500Y-103087500D01*
G75*
G02*
X207506250Y-102843750I243750J0D01*
G01*
X208418750Y-102843750D01*
G75*
G02*
X208662500Y-103087500I0J-243750D01*
G01*
X208662500Y-103575000D01*
G75*
G02*
X208418750Y-103818750I-243750J0D01*
G01*
G37*
G36*
G01*
X227468750Y-101943750D02*
X226556250Y-101943750D01*
G75*
G02*
X226312500Y-101700000I0J243750D01*
G01*
X226312500Y-101212500D01*
G75*
G02*
X226556250Y-100968750I243750J0D01*
G01*
X227468750Y-100968750D01*
G75*
G02*
X227712500Y-101212500I0J-243750D01*
G01*
X227712500Y-101700000D01*
G75*
G02*
X227468750Y-101943750I-243750J0D01*
G01*
G37*
G36*
G01*
X227468750Y-103818750D02*
X226556250Y-103818750D01*
G75*
G02*
X226312500Y-103575000I0J243750D01*
G01*
X226312500Y-103087500D01*
G75*
G02*
X226556250Y-102843750I243750J0D01*
G01*
X227468750Y-102843750D01*
G75*
G02*
X227712500Y-103087500I0J-243750D01*
G01*
X227712500Y-103575000D01*
G75*
G02*
X227468750Y-103818750I-243750J0D01*
G01*
G37*
G36*
G01*
X246518750Y-101943750D02*
X245606250Y-101943750D01*
G75*
G02*
X245362500Y-101700000I0J243750D01*
G01*
X245362500Y-101212500D01*
G75*
G02*
X245606250Y-100968750I243750J0D01*
G01*
X246518750Y-100968750D01*
G75*
G02*
X246762500Y-101212500I0J-243750D01*
G01*
X246762500Y-101700000D01*
G75*
G02*
X246518750Y-101943750I-243750J0D01*
G01*
G37*
G36*
G01*
X246518750Y-103818750D02*
X245606250Y-103818750D01*
G75*
G02*
X245362500Y-103575000I0J243750D01*
G01*
X245362500Y-103087500D01*
G75*
G02*
X245606250Y-102843750I243750J0D01*
G01*
X246518750Y-102843750D01*
G75*
G02*
X246762500Y-103087500I0J-243750D01*
G01*
X246762500Y-103575000D01*
G75*
G02*
X246518750Y-103818750I-243750J0D01*
G01*
G37*
G36*
G01*
X265568750Y-101943750D02*
X264656250Y-101943750D01*
G75*
G02*
X264412500Y-101700000I0J243750D01*
G01*
X264412500Y-101212500D01*
G75*
G02*
X264656250Y-100968750I243750J0D01*
G01*
X265568750Y-100968750D01*
G75*
G02*
X265812500Y-101212500I0J-243750D01*
G01*
X265812500Y-101700000D01*
G75*
G02*
X265568750Y-101943750I-243750J0D01*
G01*
G37*
G36*
G01*
X265568750Y-103818750D02*
X264656250Y-103818750D01*
G75*
G02*
X264412500Y-103575000I0J243750D01*
G01*
X264412500Y-103087500D01*
G75*
G02*
X264656250Y-102843750I243750J0D01*
G01*
X265568750Y-102843750D01*
G75*
G02*
X265812500Y-103087500I0J-243750D01*
G01*
X265812500Y-103575000D01*
G75*
G02*
X265568750Y-103818750I-243750J0D01*
G01*
G37*
G36*
G01*
X284618750Y-101943750D02*
X283706250Y-101943750D01*
G75*
G02*
X283462500Y-101700000I0J243750D01*
G01*
X283462500Y-101212500D01*
G75*
G02*
X283706250Y-100968750I243750J0D01*
G01*
X284618750Y-100968750D01*
G75*
G02*
X284862500Y-101212500I0J-243750D01*
G01*
X284862500Y-101700000D01*
G75*
G02*
X284618750Y-101943750I-243750J0D01*
G01*
G37*
G36*
G01*
X284618750Y-103818750D02*
X283706250Y-103818750D01*
G75*
G02*
X283462500Y-103575000I0J243750D01*
G01*
X283462500Y-103087500D01*
G75*
G02*
X283706250Y-102843750I243750J0D01*
G01*
X284618750Y-102843750D01*
G75*
G02*
X284862500Y-103087500I0J-243750D01*
G01*
X284862500Y-103575000D01*
G75*
G02*
X284618750Y-103818750I-243750J0D01*
G01*
G37*
G36*
G01*
X303668750Y-101943750D02*
X302756250Y-101943750D01*
G75*
G02*
X302512500Y-101700000I0J243750D01*
G01*
X302512500Y-101212500D01*
G75*
G02*
X302756250Y-100968750I243750J0D01*
G01*
X303668750Y-100968750D01*
G75*
G02*
X303912500Y-101212500I0J-243750D01*
G01*
X303912500Y-101700000D01*
G75*
G02*
X303668750Y-101943750I-243750J0D01*
G01*
G37*
G36*
G01*
X303668750Y-103818750D02*
X302756250Y-103818750D01*
G75*
G02*
X302512500Y-103575000I0J243750D01*
G01*
X302512500Y-103087500D01*
G75*
G02*
X302756250Y-102843750I243750J0D01*
G01*
X303668750Y-102843750D01*
G75*
G02*
X303912500Y-103087500I0J-243750D01*
G01*
X303912500Y-103575000D01*
G75*
G02*
X303668750Y-103818750I-243750J0D01*
G01*
G37*
G36*
G01*
X322718750Y-101943750D02*
X321806250Y-101943750D01*
G75*
G02*
X321562500Y-101700000I0J243750D01*
G01*
X321562500Y-101212500D01*
G75*
G02*
X321806250Y-100968750I243750J0D01*
G01*
X322718750Y-100968750D01*
G75*
G02*
X322962500Y-101212500I0J-243750D01*
G01*
X322962500Y-101700000D01*
G75*
G02*
X322718750Y-101943750I-243750J0D01*
G01*
G37*
G36*
G01*
X322718750Y-103818750D02*
X321806250Y-103818750D01*
G75*
G02*
X321562500Y-103575000I0J243750D01*
G01*
X321562500Y-103087500D01*
G75*
G02*
X321806250Y-102843750I243750J0D01*
G01*
X322718750Y-102843750D01*
G75*
G02*
X322962500Y-103087500I0J-243750D01*
G01*
X322962500Y-103575000D01*
G75*
G02*
X322718750Y-103818750I-243750J0D01*
G01*
G37*
G36*
G01*
X79831250Y-120993750D02*
X78918750Y-120993750D01*
G75*
G02*
X78675000Y-120750000I0J243750D01*
G01*
X78675000Y-120262500D01*
G75*
G02*
X78918750Y-120018750I243750J0D01*
G01*
X79831250Y-120018750D01*
G75*
G02*
X80075000Y-120262500I0J-243750D01*
G01*
X80075000Y-120750000D01*
G75*
G02*
X79831250Y-120993750I-243750J0D01*
G01*
G37*
G36*
G01*
X79831250Y-122868750D02*
X78918750Y-122868750D01*
G75*
G02*
X78675000Y-122625000I0J243750D01*
G01*
X78675000Y-122137500D01*
G75*
G02*
X78918750Y-121893750I243750J0D01*
G01*
X79831250Y-121893750D01*
G75*
G02*
X80075000Y-122137500I0J-243750D01*
G01*
X80075000Y-122625000D01*
G75*
G02*
X79831250Y-122868750I-243750J0D01*
G01*
G37*
G36*
G01*
X119915780Y-120993750D02*
X119003280Y-120993750D01*
G75*
G02*
X118759530Y-120750000I0J243750D01*
G01*
X118759530Y-120262500D01*
G75*
G02*
X119003280Y-120018750I243750J0D01*
G01*
X119915780Y-120018750D01*
G75*
G02*
X120159530Y-120262500I0J-243750D01*
G01*
X120159530Y-120750000D01*
G75*
G02*
X119915780Y-120993750I-243750J0D01*
G01*
G37*
G36*
G01*
X119915780Y-122868750D02*
X119003280Y-122868750D01*
G75*
G02*
X118759530Y-122625000I0J243750D01*
G01*
X118759530Y-122137500D01*
G75*
G02*
X119003280Y-121893750I243750J0D01*
G01*
X119915780Y-121893750D01*
G75*
G02*
X120159530Y-122137500I0J-243750D01*
G01*
X120159530Y-122625000D01*
G75*
G02*
X119915780Y-122868750I-243750J0D01*
G01*
G37*
G36*
G01*
X122693750Y-120993750D02*
X121781250Y-120993750D01*
G75*
G02*
X121537500Y-120750000I0J243750D01*
G01*
X121537500Y-120262500D01*
G75*
G02*
X121781250Y-120018750I243750J0D01*
G01*
X122693750Y-120018750D01*
G75*
G02*
X122937500Y-120262500I0J-243750D01*
G01*
X122937500Y-120750000D01*
G75*
G02*
X122693750Y-120993750I-243750J0D01*
G01*
G37*
G36*
G01*
X122693750Y-122868750D02*
X121781250Y-122868750D01*
G75*
G02*
X121537500Y-122625000I0J243750D01*
G01*
X121537500Y-122137500D01*
G75*
G02*
X121781250Y-121893750I243750J0D01*
G01*
X122693750Y-121893750D01*
G75*
G02*
X122937500Y-122137500I0J-243750D01*
G01*
X122937500Y-122625000D01*
G75*
G02*
X122693750Y-122868750I-243750J0D01*
G01*
G37*
G36*
G01*
X141743750Y-120993750D02*
X140831250Y-120993750D01*
G75*
G02*
X140587500Y-120750000I0J243750D01*
G01*
X140587500Y-120262500D01*
G75*
G02*
X140831250Y-120018750I243750J0D01*
G01*
X141743750Y-120018750D01*
G75*
G02*
X141987500Y-120262500I0J-243750D01*
G01*
X141987500Y-120750000D01*
G75*
G02*
X141743750Y-120993750I-243750J0D01*
G01*
G37*
G36*
G01*
X141743750Y-122868750D02*
X140831250Y-122868750D01*
G75*
G02*
X140587500Y-122625000I0J243750D01*
G01*
X140587500Y-122137500D01*
G75*
G02*
X140831250Y-121893750I243750J0D01*
G01*
X141743750Y-121893750D01*
G75*
G02*
X141987500Y-122137500I0J-243750D01*
G01*
X141987500Y-122625000D01*
G75*
G02*
X141743750Y-122868750I-243750J0D01*
G01*
G37*
G36*
G01*
X160793750Y-120993750D02*
X159881250Y-120993750D01*
G75*
G02*
X159637500Y-120750000I0J243750D01*
G01*
X159637500Y-120262500D01*
G75*
G02*
X159881250Y-120018750I243750J0D01*
G01*
X160793750Y-120018750D01*
G75*
G02*
X161037500Y-120262500I0J-243750D01*
G01*
X161037500Y-120750000D01*
G75*
G02*
X160793750Y-120993750I-243750J0D01*
G01*
G37*
G36*
G01*
X160793750Y-122868750D02*
X159881250Y-122868750D01*
G75*
G02*
X159637500Y-122625000I0J243750D01*
G01*
X159637500Y-122137500D01*
G75*
G02*
X159881250Y-121893750I243750J0D01*
G01*
X160793750Y-121893750D01*
G75*
G02*
X161037500Y-122137500I0J-243750D01*
G01*
X161037500Y-122625000D01*
G75*
G02*
X160793750Y-122868750I-243750J0D01*
G01*
G37*
G36*
G01*
X179843750Y-120993750D02*
X178931250Y-120993750D01*
G75*
G02*
X178687500Y-120750000I0J243750D01*
G01*
X178687500Y-120262500D01*
G75*
G02*
X178931250Y-120018750I243750J0D01*
G01*
X179843750Y-120018750D01*
G75*
G02*
X180087500Y-120262500I0J-243750D01*
G01*
X180087500Y-120750000D01*
G75*
G02*
X179843750Y-120993750I-243750J0D01*
G01*
G37*
G36*
G01*
X179843750Y-122868750D02*
X178931250Y-122868750D01*
G75*
G02*
X178687500Y-122625000I0J243750D01*
G01*
X178687500Y-122137500D01*
G75*
G02*
X178931250Y-121893750I243750J0D01*
G01*
X179843750Y-121893750D01*
G75*
G02*
X180087500Y-122137500I0J-243750D01*
G01*
X180087500Y-122625000D01*
G75*
G02*
X179843750Y-122868750I-243750J0D01*
G01*
G37*
G36*
G01*
X198893750Y-120993750D02*
X197981250Y-120993750D01*
G75*
G02*
X197737500Y-120750000I0J243750D01*
G01*
X197737500Y-120262500D01*
G75*
G02*
X197981250Y-120018750I243750J0D01*
G01*
X198893750Y-120018750D01*
G75*
G02*
X199137500Y-120262500I0J-243750D01*
G01*
X199137500Y-120750000D01*
G75*
G02*
X198893750Y-120993750I-243750J0D01*
G01*
G37*
G36*
G01*
X198893750Y-122868750D02*
X197981250Y-122868750D01*
G75*
G02*
X197737500Y-122625000I0J243750D01*
G01*
X197737500Y-122137500D01*
G75*
G02*
X197981250Y-121893750I243750J0D01*
G01*
X198893750Y-121893750D01*
G75*
G02*
X199137500Y-122137500I0J-243750D01*
G01*
X199137500Y-122625000D01*
G75*
G02*
X198893750Y-122868750I-243750J0D01*
G01*
G37*
G36*
G01*
X217943750Y-120993750D02*
X217031250Y-120993750D01*
G75*
G02*
X216787500Y-120750000I0J243750D01*
G01*
X216787500Y-120262500D01*
G75*
G02*
X217031250Y-120018750I243750J0D01*
G01*
X217943750Y-120018750D01*
G75*
G02*
X218187500Y-120262500I0J-243750D01*
G01*
X218187500Y-120750000D01*
G75*
G02*
X217943750Y-120993750I-243750J0D01*
G01*
G37*
G36*
G01*
X217943750Y-122868750D02*
X217031250Y-122868750D01*
G75*
G02*
X216787500Y-122625000I0J243750D01*
G01*
X216787500Y-122137500D01*
G75*
G02*
X217031250Y-121893750I243750J0D01*
G01*
X217943750Y-121893750D01*
G75*
G02*
X218187500Y-122137500I0J-243750D01*
G01*
X218187500Y-122625000D01*
G75*
G02*
X217943750Y-122868750I-243750J0D01*
G01*
G37*
G36*
G01*
X236993750Y-120993750D02*
X236081250Y-120993750D01*
G75*
G02*
X235837500Y-120750000I0J243750D01*
G01*
X235837500Y-120262500D01*
G75*
G02*
X236081250Y-120018750I243750J0D01*
G01*
X236993750Y-120018750D01*
G75*
G02*
X237237500Y-120262500I0J-243750D01*
G01*
X237237500Y-120750000D01*
G75*
G02*
X236993750Y-120993750I-243750J0D01*
G01*
G37*
G36*
G01*
X236993750Y-122868750D02*
X236081250Y-122868750D01*
G75*
G02*
X235837500Y-122625000I0J243750D01*
G01*
X235837500Y-122137500D01*
G75*
G02*
X236081250Y-121893750I243750J0D01*
G01*
X236993750Y-121893750D01*
G75*
G02*
X237237500Y-122137500I0J-243750D01*
G01*
X237237500Y-122625000D01*
G75*
G02*
X236993750Y-122868750I-243750J0D01*
G01*
G37*
G36*
G01*
X256043750Y-120993750D02*
X255131250Y-120993750D01*
G75*
G02*
X254887500Y-120750000I0J243750D01*
G01*
X254887500Y-120262500D01*
G75*
G02*
X255131250Y-120018750I243750J0D01*
G01*
X256043750Y-120018750D01*
G75*
G02*
X256287500Y-120262500I0J-243750D01*
G01*
X256287500Y-120750000D01*
G75*
G02*
X256043750Y-120993750I-243750J0D01*
G01*
G37*
G36*
G01*
X256043750Y-122868750D02*
X255131250Y-122868750D01*
G75*
G02*
X254887500Y-122625000I0J243750D01*
G01*
X254887500Y-122137500D01*
G75*
G02*
X255131250Y-121893750I243750J0D01*
G01*
X256043750Y-121893750D01*
G75*
G02*
X256287500Y-122137500I0J-243750D01*
G01*
X256287500Y-122625000D01*
G75*
G02*
X256043750Y-122868750I-243750J0D01*
G01*
G37*
G36*
G01*
X275093750Y-120993750D02*
X274181250Y-120993750D01*
G75*
G02*
X273937500Y-120750000I0J243750D01*
G01*
X273937500Y-120262500D01*
G75*
G02*
X274181250Y-120018750I243750J0D01*
G01*
X275093750Y-120018750D01*
G75*
G02*
X275337500Y-120262500I0J-243750D01*
G01*
X275337500Y-120750000D01*
G75*
G02*
X275093750Y-120993750I-243750J0D01*
G01*
G37*
G36*
G01*
X275093750Y-122868750D02*
X274181250Y-122868750D01*
G75*
G02*
X273937500Y-122625000I0J243750D01*
G01*
X273937500Y-122137500D01*
G75*
G02*
X274181250Y-121893750I243750J0D01*
G01*
X275093750Y-121893750D01*
G75*
G02*
X275337500Y-122137500I0J-243750D01*
G01*
X275337500Y-122625000D01*
G75*
G02*
X275093750Y-122868750I-243750J0D01*
G01*
G37*
G36*
G01*
X294143750Y-120993750D02*
X293231250Y-120993750D01*
G75*
G02*
X292987500Y-120750000I0J243750D01*
G01*
X292987500Y-120262500D01*
G75*
G02*
X293231250Y-120018750I243750J0D01*
G01*
X294143750Y-120018750D01*
G75*
G02*
X294387500Y-120262500I0J-243750D01*
G01*
X294387500Y-120750000D01*
G75*
G02*
X294143750Y-120993750I-243750J0D01*
G01*
G37*
G36*
G01*
X294143750Y-122868750D02*
X293231250Y-122868750D01*
G75*
G02*
X292987500Y-122625000I0J243750D01*
G01*
X292987500Y-122137500D01*
G75*
G02*
X293231250Y-121893750I243750J0D01*
G01*
X294143750Y-121893750D01*
G75*
G02*
X294387500Y-122137500I0J-243750D01*
G01*
X294387500Y-122625000D01*
G75*
G02*
X294143750Y-122868750I-243750J0D01*
G01*
G37*
G36*
G01*
X313193750Y-120993750D02*
X312281250Y-120993750D01*
G75*
G02*
X312037500Y-120750000I0J243750D01*
G01*
X312037500Y-120262500D01*
G75*
G02*
X312281250Y-120018750I243750J0D01*
G01*
X313193750Y-120018750D01*
G75*
G02*
X313437500Y-120262500I0J-243750D01*
G01*
X313437500Y-120750000D01*
G75*
G02*
X313193750Y-120993750I-243750J0D01*
G01*
G37*
G36*
G01*
X313193750Y-122868750D02*
X312281250Y-122868750D01*
G75*
G02*
X312037500Y-122625000I0J243750D01*
G01*
X312037500Y-122137500D01*
G75*
G02*
X312281250Y-121893750I243750J0D01*
G01*
X313193750Y-121893750D01*
G75*
G02*
X313437500Y-122137500I0J-243750D01*
G01*
X313437500Y-122625000D01*
G75*
G02*
X313193750Y-122868750I-243750J0D01*
G01*
G37*
G36*
G01*
X310416580Y-120980000D02*
X309504080Y-120980000D01*
G75*
G02*
X309260330Y-120736250I0J243750D01*
G01*
X309260330Y-120248750D01*
G75*
G02*
X309504080Y-120005000I243750J0D01*
G01*
X310416580Y-120005000D01*
G75*
G02*
X310660330Y-120248750I0J-243750D01*
G01*
X310660330Y-120736250D01*
G75*
G02*
X310416580Y-120980000I-243750J0D01*
G01*
G37*
G36*
G01*
X310416580Y-122855000D02*
X309504080Y-122855000D01*
G75*
G02*
X309260330Y-122611250I0J243750D01*
G01*
X309260330Y-122123750D01*
G75*
G02*
X309504080Y-121880000I243750J0D01*
G01*
X310416580Y-121880000D01*
G75*
G02*
X310660330Y-122123750I0J-243750D01*
G01*
X310660330Y-122611250D01*
G75*
G02*
X310416580Y-122855000I-243750J0D01*
G01*
G37*
G36*
G01*
X77450000Y-140043750D02*
X76537500Y-140043750D01*
G75*
G02*
X76293750Y-139800000I0J243750D01*
G01*
X76293750Y-139312500D01*
G75*
G02*
X76537500Y-139068750I243750J0D01*
G01*
X77450000Y-139068750D01*
G75*
G02*
X77693750Y-139312500I0J-243750D01*
G01*
X77693750Y-139800000D01*
G75*
G02*
X77450000Y-140043750I-243750J0D01*
G01*
G37*
G36*
G01*
X77450000Y-141918750D02*
X76537500Y-141918750D01*
G75*
G02*
X76293750Y-141675000I0J243750D01*
G01*
X76293750Y-141187500D01*
G75*
G02*
X76537500Y-140943750I243750J0D01*
G01*
X77450000Y-140943750D01*
G75*
G02*
X77693750Y-141187500I0J-243750D01*
G01*
X77693750Y-141675000D01*
G75*
G02*
X77450000Y-141918750I-243750J0D01*
G01*
G37*
G36*
G01*
X108406250Y-140043750D02*
X107493750Y-140043750D01*
G75*
G02*
X107250000Y-139800000I0J243750D01*
G01*
X107250000Y-139312500D01*
G75*
G02*
X107493750Y-139068750I243750J0D01*
G01*
X108406250Y-139068750D01*
G75*
G02*
X108650000Y-139312500I0J-243750D01*
G01*
X108650000Y-139800000D01*
G75*
G02*
X108406250Y-140043750I-243750J0D01*
G01*
G37*
G36*
G01*
X108406250Y-141918750D02*
X107493750Y-141918750D01*
G75*
G02*
X107250000Y-141675000I0J243750D01*
G01*
X107250000Y-141187500D01*
G75*
G02*
X107493750Y-140943750I243750J0D01*
G01*
X108406250Y-140943750D01*
G75*
G02*
X108650000Y-141187500I0J-243750D01*
G01*
X108650000Y-141675000D01*
G75*
G02*
X108406250Y-141918750I-243750J0D01*
G01*
G37*
G36*
G01*
X127456250Y-140043750D02*
X126543750Y-140043750D01*
G75*
G02*
X126300000Y-139800000I0J243750D01*
G01*
X126300000Y-139312500D01*
G75*
G02*
X126543750Y-139068750I243750J0D01*
G01*
X127456250Y-139068750D01*
G75*
G02*
X127700000Y-139312500I0J-243750D01*
G01*
X127700000Y-139800000D01*
G75*
G02*
X127456250Y-140043750I-243750J0D01*
G01*
G37*
G36*
G01*
X127456250Y-141918750D02*
X126543750Y-141918750D01*
G75*
G02*
X126300000Y-141675000I0J243750D01*
G01*
X126300000Y-141187500D01*
G75*
G02*
X126543750Y-140943750I243750J0D01*
G01*
X127456250Y-140943750D01*
G75*
G02*
X127700000Y-141187500I0J-243750D01*
G01*
X127700000Y-141675000D01*
G75*
G02*
X127456250Y-141918750I-243750J0D01*
G01*
G37*
G36*
G01*
X146506250Y-140043750D02*
X145593750Y-140043750D01*
G75*
G02*
X145350000Y-139800000I0J243750D01*
G01*
X145350000Y-139312500D01*
G75*
G02*
X145593750Y-139068750I243750J0D01*
G01*
X146506250Y-139068750D01*
G75*
G02*
X146750000Y-139312500I0J-243750D01*
G01*
X146750000Y-139800000D01*
G75*
G02*
X146506250Y-140043750I-243750J0D01*
G01*
G37*
G36*
G01*
X146506250Y-141918750D02*
X145593750Y-141918750D01*
G75*
G02*
X145350000Y-141675000I0J243750D01*
G01*
X145350000Y-141187500D01*
G75*
G02*
X145593750Y-140943750I243750J0D01*
G01*
X146506250Y-140943750D01*
G75*
G02*
X146750000Y-141187500I0J-243750D01*
G01*
X146750000Y-141675000D01*
G75*
G02*
X146506250Y-141918750I-243750J0D01*
G01*
G37*
G36*
G01*
X165556250Y-140043750D02*
X164643750Y-140043750D01*
G75*
G02*
X164400000Y-139800000I0J243750D01*
G01*
X164400000Y-139312500D01*
G75*
G02*
X164643750Y-139068750I243750J0D01*
G01*
X165556250Y-139068750D01*
G75*
G02*
X165800000Y-139312500I0J-243750D01*
G01*
X165800000Y-139800000D01*
G75*
G02*
X165556250Y-140043750I-243750J0D01*
G01*
G37*
G36*
G01*
X165556250Y-141918750D02*
X164643750Y-141918750D01*
G75*
G02*
X164400000Y-141675000I0J243750D01*
G01*
X164400000Y-141187500D01*
G75*
G02*
X164643750Y-140943750I243750J0D01*
G01*
X165556250Y-140943750D01*
G75*
G02*
X165800000Y-141187500I0J-243750D01*
G01*
X165800000Y-141675000D01*
G75*
G02*
X165556250Y-141918750I-243750J0D01*
G01*
G37*
G36*
G01*
X184606250Y-140043750D02*
X183693750Y-140043750D01*
G75*
G02*
X183450000Y-139800000I0J243750D01*
G01*
X183450000Y-139312500D01*
G75*
G02*
X183693750Y-139068750I243750J0D01*
G01*
X184606250Y-139068750D01*
G75*
G02*
X184850000Y-139312500I0J-243750D01*
G01*
X184850000Y-139800000D01*
G75*
G02*
X184606250Y-140043750I-243750J0D01*
G01*
G37*
G36*
G01*
X184606250Y-141918750D02*
X183693750Y-141918750D01*
G75*
G02*
X183450000Y-141675000I0J243750D01*
G01*
X183450000Y-141187500D01*
G75*
G02*
X183693750Y-140943750I243750J0D01*
G01*
X184606250Y-140943750D01*
G75*
G02*
X184850000Y-141187500I0J-243750D01*
G01*
X184850000Y-141675000D01*
G75*
G02*
X184606250Y-141918750I-243750J0D01*
G01*
G37*
G36*
G01*
X219103180Y-140043750D02*
X218190680Y-140043750D01*
G75*
G02*
X217946930Y-139800000I0J243750D01*
G01*
X217946930Y-139312500D01*
G75*
G02*
X218190680Y-139068750I243750J0D01*
G01*
X219103180Y-139068750D01*
G75*
G02*
X219346930Y-139312500I0J-243750D01*
G01*
X219346930Y-139800000D01*
G75*
G02*
X219103180Y-140043750I-243750J0D01*
G01*
G37*
G36*
G01*
X219103180Y-141918750D02*
X218190680Y-141918750D01*
G75*
G02*
X217946930Y-141675000I0J243750D01*
G01*
X217946930Y-141187500D01*
G75*
G02*
X218190680Y-140943750I243750J0D01*
G01*
X219103180Y-140943750D01*
G75*
G02*
X219346930Y-141187500I0J-243750D01*
G01*
X219346930Y-141675000D01*
G75*
G02*
X219103180Y-141918750I-243750J0D01*
G01*
G37*
G36*
G01*
X222706250Y-140043750D02*
X221793750Y-140043750D01*
G75*
G02*
X221550000Y-139800000I0J243750D01*
G01*
X221550000Y-139312500D01*
G75*
G02*
X221793750Y-139068750I243750J0D01*
G01*
X222706250Y-139068750D01*
G75*
G02*
X222950000Y-139312500I0J-243750D01*
G01*
X222950000Y-139800000D01*
G75*
G02*
X222706250Y-140043750I-243750J0D01*
G01*
G37*
G36*
G01*
X222706250Y-141918750D02*
X221793750Y-141918750D01*
G75*
G02*
X221550000Y-141675000I0J243750D01*
G01*
X221550000Y-141187500D01*
G75*
G02*
X221793750Y-140943750I243750J0D01*
G01*
X222706250Y-140943750D01*
G75*
G02*
X222950000Y-141187500I0J-243750D01*
G01*
X222950000Y-141675000D01*
G75*
G02*
X222706250Y-141918750I-243750J0D01*
G01*
G37*
G36*
G01*
X241756250Y-140043750D02*
X240843750Y-140043750D01*
G75*
G02*
X240600000Y-139800000I0J243750D01*
G01*
X240600000Y-139312500D01*
G75*
G02*
X240843750Y-139068750I243750J0D01*
G01*
X241756250Y-139068750D01*
G75*
G02*
X242000000Y-139312500I0J-243750D01*
G01*
X242000000Y-139800000D01*
G75*
G02*
X241756250Y-140043750I-243750J0D01*
G01*
G37*
G36*
G01*
X241756250Y-141918750D02*
X240843750Y-141918750D01*
G75*
G02*
X240600000Y-141675000I0J243750D01*
G01*
X240600000Y-141187500D01*
G75*
G02*
X240843750Y-140943750I243750J0D01*
G01*
X241756250Y-140943750D01*
G75*
G02*
X242000000Y-141187500I0J-243750D01*
G01*
X242000000Y-141675000D01*
G75*
G02*
X241756250Y-141918750I-243750J0D01*
G01*
G37*
G36*
G01*
X260806250Y-140043750D02*
X259893750Y-140043750D01*
G75*
G02*
X259650000Y-139800000I0J243750D01*
G01*
X259650000Y-139312500D01*
G75*
G02*
X259893750Y-139068750I243750J0D01*
G01*
X260806250Y-139068750D01*
G75*
G02*
X261050000Y-139312500I0J-243750D01*
G01*
X261050000Y-139800000D01*
G75*
G02*
X260806250Y-140043750I-243750J0D01*
G01*
G37*
G36*
G01*
X260806250Y-141918750D02*
X259893750Y-141918750D01*
G75*
G02*
X259650000Y-141675000I0J243750D01*
G01*
X259650000Y-141187500D01*
G75*
G02*
X259893750Y-140943750I243750J0D01*
G01*
X260806250Y-140943750D01*
G75*
G02*
X261050000Y-141187500I0J-243750D01*
G01*
X261050000Y-141675000D01*
G75*
G02*
X260806250Y-141918750I-243750J0D01*
G01*
G37*
G36*
G01*
X279856250Y-140043750D02*
X278943750Y-140043750D01*
G75*
G02*
X278700000Y-139800000I0J243750D01*
G01*
X278700000Y-139312500D01*
G75*
G02*
X278943750Y-139068750I243750J0D01*
G01*
X279856250Y-139068750D01*
G75*
G02*
X280100000Y-139312500I0J-243750D01*
G01*
X280100000Y-139800000D01*
G75*
G02*
X279856250Y-140043750I-243750J0D01*
G01*
G37*
G36*
G01*
X279856250Y-141918750D02*
X278943750Y-141918750D01*
G75*
G02*
X278700000Y-141675000I0J243750D01*
G01*
X278700000Y-141187500D01*
G75*
G02*
X278943750Y-140943750I243750J0D01*
G01*
X279856250Y-140943750D01*
G75*
G02*
X280100000Y-141187500I0J-243750D01*
G01*
X280100000Y-141675000D01*
G75*
G02*
X279856250Y-141918750I-243750J0D01*
G01*
G37*
G36*
G01*
X298906250Y-140043750D02*
X297993750Y-140043750D01*
G75*
G02*
X297750000Y-139800000I0J243750D01*
G01*
X297750000Y-139312500D01*
G75*
G02*
X297993750Y-139068750I243750J0D01*
G01*
X298906250Y-139068750D01*
G75*
G02*
X299150000Y-139312500I0J-243750D01*
G01*
X299150000Y-139800000D01*
G75*
G02*
X298906250Y-140043750I-243750J0D01*
G01*
G37*
G36*
G01*
X298906250Y-141918750D02*
X297993750Y-141918750D01*
G75*
G02*
X297750000Y-141675000I0J243750D01*
G01*
X297750000Y-141187500D01*
G75*
G02*
X297993750Y-140943750I243750J0D01*
G01*
X298906250Y-140943750D01*
G75*
G02*
X299150000Y-141187500I0J-243750D01*
G01*
X299150000Y-141675000D01*
G75*
G02*
X298906250Y-141918750I-243750J0D01*
G01*
G37*
G36*
G01*
X317162500Y-140043750D02*
X316250000Y-140043750D01*
G75*
G02*
X316006250Y-139800000I0J243750D01*
G01*
X316006250Y-139312500D01*
G75*
G02*
X316250000Y-139068750I243750J0D01*
G01*
X317162500Y-139068750D01*
G75*
G02*
X317406250Y-139312500I0J-243750D01*
G01*
X317406250Y-139800000D01*
G75*
G02*
X317162500Y-140043750I-243750J0D01*
G01*
G37*
G36*
G01*
X317162500Y-141918750D02*
X316250000Y-141918750D01*
G75*
G02*
X316006250Y-141675000I0J243750D01*
G01*
X316006250Y-141187500D01*
G75*
G02*
X316250000Y-140943750I243750J0D01*
G01*
X317162500Y-140943750D01*
G75*
G02*
X317406250Y-141187500I0J-243750D01*
G01*
X317406250Y-141675000D01*
G75*
G02*
X317162500Y-141918750I-243750J0D01*
G01*
G37*
G36*
G01*
X77450000Y-159093750D02*
X76537500Y-159093750D01*
G75*
G02*
X76293750Y-158850000I0J243750D01*
G01*
X76293750Y-158362500D01*
G75*
G02*
X76537500Y-158118750I243750J0D01*
G01*
X77450000Y-158118750D01*
G75*
G02*
X77693750Y-158362500I0J-243750D01*
G01*
X77693750Y-158850000D01*
G75*
G02*
X77450000Y-159093750I-243750J0D01*
G01*
G37*
G36*
G01*
X77450000Y-160968750D02*
X76537500Y-160968750D01*
G75*
G02*
X76293750Y-160725000I0J243750D01*
G01*
X76293750Y-160237500D01*
G75*
G02*
X76537500Y-159993750I243750J0D01*
G01*
X77450000Y-159993750D01*
G75*
G02*
X77693750Y-160237500I0J-243750D01*
G01*
X77693750Y-160725000D01*
G75*
G02*
X77450000Y-160968750I-243750J0D01*
G01*
G37*
G36*
G01*
X114756250Y-159093750D02*
X113843750Y-159093750D01*
G75*
G02*
X113600000Y-158850000I0J243750D01*
G01*
X113600000Y-158362500D01*
G75*
G02*
X113843750Y-158118750I243750J0D01*
G01*
X114756250Y-158118750D01*
G75*
G02*
X115000000Y-158362500I0J-243750D01*
G01*
X115000000Y-158850000D01*
G75*
G02*
X114756250Y-159093750I-243750J0D01*
G01*
G37*
G36*
G01*
X114756250Y-160968750D02*
X113843750Y-160968750D01*
G75*
G02*
X113600000Y-160725000I0J243750D01*
G01*
X113600000Y-160237500D01*
G75*
G02*
X113843750Y-159993750I243750J0D01*
G01*
X114756250Y-159993750D01*
G75*
G02*
X115000000Y-160237500I0J-243750D01*
G01*
X115000000Y-160725000D01*
G75*
G02*
X114756250Y-160968750I-243750J0D01*
G01*
G37*
G36*
G01*
X117931250Y-159093750D02*
X117018750Y-159093750D01*
G75*
G02*
X116775000Y-158850000I0J243750D01*
G01*
X116775000Y-158362500D01*
G75*
G02*
X117018750Y-158118750I243750J0D01*
G01*
X117931250Y-158118750D01*
G75*
G02*
X118175000Y-158362500I0J-243750D01*
G01*
X118175000Y-158850000D01*
G75*
G02*
X117931250Y-159093750I-243750J0D01*
G01*
G37*
G36*
G01*
X117931250Y-160968750D02*
X117018750Y-160968750D01*
G75*
G02*
X116775000Y-160725000I0J243750D01*
G01*
X116775000Y-160237500D01*
G75*
G02*
X117018750Y-159993750I243750J0D01*
G01*
X117931250Y-159993750D01*
G75*
G02*
X118175000Y-160237500I0J-243750D01*
G01*
X118175000Y-160725000D01*
G75*
G02*
X117931250Y-160968750I-243750J0D01*
G01*
G37*
G36*
G01*
X136981250Y-159093750D02*
X136068750Y-159093750D01*
G75*
G02*
X135825000Y-158850000I0J243750D01*
G01*
X135825000Y-158362500D01*
G75*
G02*
X136068750Y-158118750I243750J0D01*
G01*
X136981250Y-158118750D01*
G75*
G02*
X137225000Y-158362500I0J-243750D01*
G01*
X137225000Y-158850000D01*
G75*
G02*
X136981250Y-159093750I-243750J0D01*
G01*
G37*
G36*
G01*
X136981250Y-160968750D02*
X136068750Y-160968750D01*
G75*
G02*
X135825000Y-160725000I0J243750D01*
G01*
X135825000Y-160237500D01*
G75*
G02*
X136068750Y-159993750I243750J0D01*
G01*
X136981250Y-159993750D01*
G75*
G02*
X137225000Y-160237500I0J-243750D01*
G01*
X137225000Y-160725000D01*
G75*
G02*
X136981250Y-160968750I-243750J0D01*
G01*
G37*
G36*
G01*
X156031250Y-159093750D02*
X155118750Y-159093750D01*
G75*
G02*
X154875000Y-158850000I0J243750D01*
G01*
X154875000Y-158362500D01*
G75*
G02*
X155118750Y-158118750I243750J0D01*
G01*
X156031250Y-158118750D01*
G75*
G02*
X156275000Y-158362500I0J-243750D01*
G01*
X156275000Y-158850000D01*
G75*
G02*
X156031250Y-159093750I-243750J0D01*
G01*
G37*
G36*
G01*
X156031250Y-160968750D02*
X155118750Y-160968750D01*
G75*
G02*
X154875000Y-160725000I0J243750D01*
G01*
X154875000Y-160237500D01*
G75*
G02*
X155118750Y-159993750I243750J0D01*
G01*
X156031250Y-159993750D01*
G75*
G02*
X156275000Y-160237500I0J-243750D01*
G01*
X156275000Y-160725000D01*
G75*
G02*
X156031250Y-160968750I-243750J0D01*
G01*
G37*
G36*
G01*
X175081250Y-159093750D02*
X174168750Y-159093750D01*
G75*
G02*
X173925000Y-158850000I0J243750D01*
G01*
X173925000Y-158362500D01*
G75*
G02*
X174168750Y-158118750I243750J0D01*
G01*
X175081250Y-158118750D01*
G75*
G02*
X175325000Y-158362500I0J-243750D01*
G01*
X175325000Y-158850000D01*
G75*
G02*
X175081250Y-159093750I-243750J0D01*
G01*
G37*
G36*
G01*
X175081250Y-160968750D02*
X174168750Y-160968750D01*
G75*
G02*
X173925000Y-160725000I0J243750D01*
G01*
X173925000Y-160237500D01*
G75*
G02*
X174168750Y-159993750I243750J0D01*
G01*
X175081250Y-159993750D01*
G75*
G02*
X175325000Y-160237500I0J-243750D01*
G01*
X175325000Y-160725000D01*
G75*
G02*
X175081250Y-160968750I-243750J0D01*
G01*
G37*
G36*
G01*
X194131250Y-159093750D02*
X193218750Y-159093750D01*
G75*
G02*
X192975000Y-158850000I0J243750D01*
G01*
X192975000Y-158362500D01*
G75*
G02*
X193218750Y-158118750I243750J0D01*
G01*
X194131250Y-158118750D01*
G75*
G02*
X194375000Y-158362500I0J-243750D01*
G01*
X194375000Y-158850000D01*
G75*
G02*
X194131250Y-159093750I-243750J0D01*
G01*
G37*
G36*
G01*
X194131250Y-160968750D02*
X193218750Y-160968750D01*
G75*
G02*
X192975000Y-160725000I0J243750D01*
G01*
X192975000Y-160237500D01*
G75*
G02*
X193218750Y-159993750I243750J0D01*
G01*
X194131250Y-159993750D01*
G75*
G02*
X194375000Y-160237500I0J-243750D01*
G01*
X194375000Y-160725000D01*
G75*
G02*
X194131250Y-160968750I-243750J0D01*
G01*
G37*
G36*
G01*
X213181250Y-159093750D02*
X212268750Y-159093750D01*
G75*
G02*
X212025000Y-158850000I0J243750D01*
G01*
X212025000Y-158362500D01*
G75*
G02*
X212268750Y-158118750I243750J0D01*
G01*
X213181250Y-158118750D01*
G75*
G02*
X213425000Y-158362500I0J-243750D01*
G01*
X213425000Y-158850000D01*
G75*
G02*
X213181250Y-159093750I-243750J0D01*
G01*
G37*
G36*
G01*
X213181250Y-160968750D02*
X212268750Y-160968750D01*
G75*
G02*
X212025000Y-160725000I0J243750D01*
G01*
X212025000Y-160237500D01*
G75*
G02*
X212268750Y-159993750I243750J0D01*
G01*
X213181250Y-159993750D01*
G75*
G02*
X213425000Y-160237500I0J-243750D01*
G01*
X213425000Y-160725000D01*
G75*
G02*
X213181250Y-160968750I-243750J0D01*
G01*
G37*
G36*
G01*
X232231250Y-159093750D02*
X231318750Y-159093750D01*
G75*
G02*
X231075000Y-158850000I0J243750D01*
G01*
X231075000Y-158362500D01*
G75*
G02*
X231318750Y-158118750I243750J0D01*
G01*
X232231250Y-158118750D01*
G75*
G02*
X232475000Y-158362500I0J-243750D01*
G01*
X232475000Y-158850000D01*
G75*
G02*
X232231250Y-159093750I-243750J0D01*
G01*
G37*
G36*
G01*
X232231250Y-160968750D02*
X231318750Y-160968750D01*
G75*
G02*
X231075000Y-160725000I0J243750D01*
G01*
X231075000Y-160237500D01*
G75*
G02*
X231318750Y-159993750I243750J0D01*
G01*
X232231250Y-159993750D01*
G75*
G02*
X232475000Y-160237500I0J-243750D01*
G01*
X232475000Y-160725000D01*
G75*
G02*
X232231250Y-160968750I-243750J0D01*
G01*
G37*
G36*
G01*
X251281250Y-159093750D02*
X250368750Y-159093750D01*
G75*
G02*
X250125000Y-158850000I0J243750D01*
G01*
X250125000Y-158362500D01*
G75*
G02*
X250368750Y-158118750I243750J0D01*
G01*
X251281250Y-158118750D01*
G75*
G02*
X251525000Y-158362500I0J-243750D01*
G01*
X251525000Y-158850000D01*
G75*
G02*
X251281250Y-159093750I-243750J0D01*
G01*
G37*
G36*
G01*
X251281250Y-160968750D02*
X250368750Y-160968750D01*
G75*
G02*
X250125000Y-160725000I0J243750D01*
G01*
X250125000Y-160237500D01*
G75*
G02*
X250368750Y-159993750I243750J0D01*
G01*
X251281250Y-159993750D01*
G75*
G02*
X251525000Y-160237500I0J-243750D01*
G01*
X251525000Y-160725000D01*
G75*
G02*
X251281250Y-160968750I-243750J0D01*
G01*
G37*
G36*
G01*
X270331250Y-159093750D02*
X269418750Y-159093750D01*
G75*
G02*
X269175000Y-158850000I0J243750D01*
G01*
X269175000Y-158362500D01*
G75*
G02*
X269418750Y-158118750I243750J0D01*
G01*
X270331250Y-158118750D01*
G75*
G02*
X270575000Y-158362500I0J-243750D01*
G01*
X270575000Y-158850000D01*
G75*
G02*
X270331250Y-159093750I-243750J0D01*
G01*
G37*
G36*
G01*
X270331250Y-160968750D02*
X269418750Y-160968750D01*
G75*
G02*
X269175000Y-160725000I0J243750D01*
G01*
X269175000Y-160237500D01*
G75*
G02*
X269418750Y-159993750I243750J0D01*
G01*
X270331250Y-159993750D01*
G75*
G02*
X270575000Y-160237500I0J-243750D01*
G01*
X270575000Y-160725000D01*
G75*
G02*
X270331250Y-160968750I-243750J0D01*
G01*
G37*
G36*
G01*
X289381250Y-159093750D02*
X288468750Y-159093750D01*
G75*
G02*
X288225000Y-158850000I0J243750D01*
G01*
X288225000Y-158362500D01*
G75*
G02*
X288468750Y-158118750I243750J0D01*
G01*
X289381250Y-158118750D01*
G75*
G02*
X289625000Y-158362500I0J-243750D01*
G01*
X289625000Y-158850000D01*
G75*
G02*
X289381250Y-159093750I-243750J0D01*
G01*
G37*
G36*
G01*
X289381250Y-160968750D02*
X288468750Y-160968750D01*
G75*
G02*
X288225000Y-160725000I0J243750D01*
G01*
X288225000Y-160237500D01*
G75*
G02*
X288468750Y-159993750I243750J0D01*
G01*
X289381250Y-159993750D01*
G75*
G02*
X289625000Y-160237500I0J-243750D01*
G01*
X289625000Y-160725000D01*
G75*
G02*
X289381250Y-160968750I-243750J0D01*
G01*
G37*
G36*
G01*
X315575000Y-159093750D02*
X314662500Y-159093750D01*
G75*
G02*
X314418750Y-158850000I0J243750D01*
G01*
X314418750Y-158362500D01*
G75*
G02*
X314662500Y-158118750I243750J0D01*
G01*
X315575000Y-158118750D01*
G75*
G02*
X315818750Y-158362500I0J-243750D01*
G01*
X315818750Y-158850000D01*
G75*
G02*
X315575000Y-159093750I-243750J0D01*
G01*
G37*
G36*
G01*
X315575000Y-160968750D02*
X314662500Y-160968750D01*
G75*
G02*
X314418750Y-160725000I0J243750D01*
G01*
X314418750Y-160237500D01*
G75*
G02*
X314662500Y-159993750I243750J0D01*
G01*
X315575000Y-159993750D01*
G75*
G02*
X315818750Y-160237500I0J-243750D01*
G01*
X315818750Y-160725000D01*
G75*
G02*
X315575000Y-160968750I-243750J0D01*
G01*
G37*
G36*
G01*
X341768750Y-159093750D02*
X340856250Y-159093750D01*
G75*
G02*
X340612500Y-158850000I0J243750D01*
G01*
X340612500Y-158362500D01*
G75*
G02*
X340856250Y-158118750I243750J0D01*
G01*
X341768750Y-158118750D01*
G75*
G02*
X342012500Y-158362500I0J-243750D01*
G01*
X342012500Y-158850000D01*
G75*
G02*
X341768750Y-159093750I-243750J0D01*
G01*
G37*
G36*
G01*
X341768750Y-160968750D02*
X340856250Y-160968750D01*
G75*
G02*
X340612500Y-160725000I0J243750D01*
G01*
X340612500Y-160237500D01*
G75*
G02*
X340856250Y-159993750I243750J0D01*
G01*
X341768750Y-159993750D01*
G75*
G02*
X342012500Y-160237500I0J-243750D01*
G01*
X342012500Y-160725000D01*
G75*
G02*
X341768750Y-160968750I-243750J0D01*
G01*
G37*
G36*
G01*
X79831250Y-178143750D02*
X78918750Y-178143750D01*
G75*
G02*
X78675000Y-177900000I0J243750D01*
G01*
X78675000Y-177412500D01*
G75*
G02*
X78918750Y-177168750I243750J0D01*
G01*
X79831250Y-177168750D01*
G75*
G02*
X80075000Y-177412500I0J-243750D01*
G01*
X80075000Y-177900000D01*
G75*
G02*
X79831250Y-178143750I-243750J0D01*
G01*
G37*
G36*
G01*
X79831250Y-180018750D02*
X78918750Y-180018750D01*
G75*
G02*
X78675000Y-179775000I0J243750D01*
G01*
X78675000Y-179287500D01*
G75*
G02*
X78918750Y-179043750I243750J0D01*
G01*
X79831250Y-179043750D01*
G75*
G02*
X80075000Y-179287500I0J-243750D01*
G01*
X80075000Y-179775000D01*
G75*
G02*
X79831250Y-180018750I-243750J0D01*
G01*
G37*
G36*
G01*
X103643750Y-178143750D02*
X102731250Y-178143750D01*
G75*
G02*
X102487500Y-177900000I0J243750D01*
G01*
X102487500Y-177412500D01*
G75*
G02*
X102731250Y-177168750I243750J0D01*
G01*
X103643750Y-177168750D01*
G75*
G02*
X103887500Y-177412500I0J-243750D01*
G01*
X103887500Y-177900000D01*
G75*
G02*
X103643750Y-178143750I-243750J0D01*
G01*
G37*
G36*
G01*
X103643750Y-180018750D02*
X102731250Y-180018750D01*
G75*
G02*
X102487500Y-179775000I0J243750D01*
G01*
X102487500Y-179287500D01*
G75*
G02*
X102731250Y-179043750I243750J0D01*
G01*
X103643750Y-179043750D01*
G75*
G02*
X103887500Y-179287500I0J-243750D01*
G01*
X103887500Y-179775000D01*
G75*
G02*
X103643750Y-180018750I-243750J0D01*
G01*
G37*
G36*
G01*
X127456250Y-178143750D02*
X126543750Y-178143750D01*
G75*
G02*
X126300000Y-177900000I0J243750D01*
G01*
X126300000Y-177412500D01*
G75*
G02*
X126543750Y-177168750I243750J0D01*
G01*
X127456250Y-177168750D01*
G75*
G02*
X127700000Y-177412500I0J-243750D01*
G01*
X127700000Y-177900000D01*
G75*
G02*
X127456250Y-178143750I-243750J0D01*
G01*
G37*
G36*
G01*
X127456250Y-180018750D02*
X126543750Y-180018750D01*
G75*
G02*
X126300000Y-179775000I0J243750D01*
G01*
X126300000Y-179287500D01*
G75*
G02*
X126543750Y-179043750I243750J0D01*
G01*
X127456250Y-179043750D01*
G75*
G02*
X127700000Y-179287500I0J-243750D01*
G01*
X127700000Y-179775000D01*
G75*
G02*
X127456250Y-180018750I-243750J0D01*
G01*
G37*
G36*
G01*
X208418750Y-178143750D02*
X207506250Y-178143750D01*
G75*
G02*
X207262500Y-177900000I0J243750D01*
G01*
X207262500Y-177412500D01*
G75*
G02*
X207506250Y-177168750I243750J0D01*
G01*
X208418750Y-177168750D01*
G75*
G02*
X208662500Y-177412500I0J-243750D01*
G01*
X208662500Y-177900000D01*
G75*
G02*
X208418750Y-178143750I-243750J0D01*
G01*
G37*
G36*
G01*
X208418750Y-180018750D02*
X207506250Y-180018750D01*
G75*
G02*
X207262500Y-179775000I0J243750D01*
G01*
X207262500Y-179287500D01*
G75*
G02*
X207506250Y-179043750I243750J0D01*
G01*
X208418750Y-179043750D01*
G75*
G02*
X208662500Y-179287500I0J-243750D01*
G01*
X208662500Y-179775000D01*
G75*
G02*
X208418750Y-180018750I-243750J0D01*
G01*
G37*
G36*
G01*
X289381250Y-178143750D02*
X288468750Y-178143750D01*
G75*
G02*
X288225000Y-177900000I0J243750D01*
G01*
X288225000Y-177412500D01*
G75*
G02*
X288468750Y-177168750I243750J0D01*
G01*
X289381250Y-177168750D01*
G75*
G02*
X289625000Y-177412500I0J-243750D01*
G01*
X289625000Y-177900000D01*
G75*
G02*
X289381250Y-178143750I-243750J0D01*
G01*
G37*
G36*
G01*
X289381250Y-180018750D02*
X288468750Y-180018750D01*
G75*
G02*
X288225000Y-179775000I0J243750D01*
G01*
X288225000Y-179287500D01*
G75*
G02*
X288468750Y-179043750I243750J0D01*
G01*
X289381250Y-179043750D01*
G75*
G02*
X289625000Y-179287500I0J-243750D01*
G01*
X289625000Y-179775000D01*
G75*
G02*
X289381250Y-180018750I-243750J0D01*
G01*
G37*
G36*
G01*
X313193750Y-178143750D02*
X312281250Y-178143750D01*
G75*
G02*
X312037500Y-177900000I0J243750D01*
G01*
X312037500Y-177412500D01*
G75*
G02*
X312281250Y-177168750I243750J0D01*
G01*
X313193750Y-177168750D01*
G75*
G02*
X313437500Y-177412500I0J-243750D01*
G01*
X313437500Y-177900000D01*
G75*
G02*
X313193750Y-178143750I-243750J0D01*
G01*
G37*
G36*
G01*
X313193750Y-180018750D02*
X312281250Y-180018750D01*
G75*
G02*
X312037500Y-179775000I0J243750D01*
G01*
X312037500Y-179287500D01*
G75*
G02*
X312281250Y-179043750I243750J0D01*
G01*
X313193750Y-179043750D01*
G75*
G02*
X313437500Y-179287500I0J-243750D01*
G01*
X313437500Y-179775000D01*
G75*
G02*
X313193750Y-180018750I-243750J0D01*
G01*
G37*
G36*
G01*
X337006250Y-178143750D02*
X336093750Y-178143750D01*
G75*
G02*
X335850000Y-177900000I0J243750D01*
G01*
X335850000Y-177412500D01*
G75*
G02*
X336093750Y-177168750I243750J0D01*
G01*
X337006250Y-177168750D01*
G75*
G02*
X337250000Y-177412500I0J-243750D01*
G01*
X337250000Y-177900000D01*
G75*
G02*
X337006250Y-178143750I-243750J0D01*
G01*
G37*
G36*
G01*
X337006250Y-180018750D02*
X336093750Y-180018750D01*
G75*
G02*
X335850000Y-179775000I0J243750D01*
G01*
X335850000Y-179287500D01*
G75*
G02*
X336093750Y-179043750I243750J0D01*
G01*
X337006250Y-179043750D01*
G75*
G02*
X337250000Y-179287500I0J-243750D01*
G01*
X337250000Y-179775000D01*
G75*
G02*
X337006250Y-180018750I-243750J0D01*
G01*
G37*
G36*
G01*
X345737500Y-111468750D02*
X344825000Y-111468750D01*
G75*
G02*
X344581250Y-111225000I0J243750D01*
G01*
X344581250Y-110737500D01*
G75*
G02*
X344825000Y-110493750I243750J0D01*
G01*
X345737500Y-110493750D01*
G75*
G02*
X345981250Y-110737500I0J-243750D01*
G01*
X345981250Y-111225000D01*
G75*
G02*
X345737500Y-111468750I-243750J0D01*
G01*
G37*
G36*
G01*
X345737500Y-113343750D02*
X344825000Y-113343750D01*
G75*
G02*
X344581250Y-113100000I0J243750D01*
G01*
X344581250Y-112612500D01*
G75*
G02*
X344825000Y-112368750I243750J0D01*
G01*
X345737500Y-112368750D01*
G75*
G02*
X345981250Y-112612500I0J-243750D01*
G01*
X345981250Y-113100000D01*
G75*
G02*
X345737500Y-113343750I-243750J0D01*
G01*
G37*
G36*
G01*
X233675000Y-183106250D02*
X233675000Y-182193750D01*
G75*
G02*
X233918750Y-181950000I243750J0D01*
G01*
X234406250Y-181950000D01*
G75*
G02*
X234650000Y-182193750I0J-243750D01*
G01*
X234650000Y-183106250D01*
G75*
G02*
X234406250Y-183350000I-243750J0D01*
G01*
X233918750Y-183350000D01*
G75*
G02*
X233675000Y-183106250I0J243750D01*
G01*
G37*
G36*
G01*
X231800000Y-183106250D02*
X231800000Y-182193750D01*
G75*
G02*
X232043750Y-181950000I243750J0D01*
G01*
X232531250Y-181950000D01*
G75*
G02*
X232775000Y-182193750I0J-243750D01*
G01*
X232775000Y-183106250D01*
G75*
G02*
X232531250Y-183350000I-243750J0D01*
G01*
X232043750Y-183350000D01*
G75*
G02*
X231800000Y-183106250I0J243750D01*
G01*
G37*
G36*
G01*
X90031630Y-104034810D02*
X90944130Y-104034810D01*
G75*
G02*
X91187880Y-104278560I0J-243750D01*
G01*
X91187880Y-104766060D01*
G75*
G02*
X90944130Y-105009810I-243750J0D01*
G01*
X90031630Y-105009810D01*
G75*
G02*
X89787880Y-104766060I0J243750D01*
G01*
X89787880Y-104278560D01*
G75*
G02*
X90031630Y-104034810I243750J0D01*
G01*
G37*
G36*
G01*
X90031630Y-102159810D02*
X90944130Y-102159810D01*
G75*
G02*
X91187880Y-102403560I0J-243750D01*
G01*
X91187880Y-102891060D01*
G75*
G02*
X90944130Y-103134810I-243750J0D01*
G01*
X90031630Y-103134810D01*
G75*
G02*
X89787880Y-102891060I0J243750D01*
G01*
X89787880Y-102403560D01*
G75*
G02*
X90031630Y-102159810I243750J0D01*
G01*
G37*
X104140000Y-97313750D03*
D14*
X101600000Y-102393750D03*
D13*
X97790000Y-99853750D03*
D10*
X96520000Y-102393750D03*
X106680000Y-102393750D03*
D13*
X123190000Y-97313750D03*
D14*
X120650000Y-102393750D03*
D13*
X116840000Y-99853750D03*
D10*
X115570000Y-102393750D03*
X125730000Y-102393750D03*
D13*
X142240000Y-97313750D03*
D14*
X139700000Y-102393750D03*
D13*
X135890000Y-99853750D03*
D10*
X134620000Y-102393750D03*
X144780000Y-102393750D03*
D13*
X161290000Y-97313750D03*
D14*
X158750000Y-102393750D03*
D13*
X154940000Y-99853750D03*
D10*
X153670000Y-102393750D03*
X163830000Y-102393750D03*
D13*
X180340000Y-97313750D03*
D14*
X177800000Y-102393750D03*
D13*
X173990000Y-99853750D03*
D10*
X172720000Y-102393750D03*
X182880000Y-102393750D03*
D13*
X199390000Y-97313750D03*
D14*
X196850000Y-102393750D03*
D13*
X193040000Y-99853750D03*
D10*
X191770000Y-102393750D03*
X201930000Y-102393750D03*
D13*
X218440000Y-97313750D03*
D14*
X215900000Y-102393750D03*
D13*
X212090000Y-99853750D03*
D10*
X210820000Y-102393750D03*
X220980000Y-102393750D03*
D13*
X237490000Y-97313750D03*
D14*
X234950000Y-102393750D03*
D13*
X231140000Y-99853750D03*
D10*
X229870000Y-102393750D03*
X240030000Y-102393750D03*
D13*
X256540000Y-97313750D03*
D14*
X254000000Y-102393750D03*
D13*
X250190000Y-99853750D03*
D10*
X248920000Y-102393750D03*
X259080000Y-102393750D03*
D13*
X275590000Y-97313750D03*
D14*
X273050000Y-102393750D03*
D13*
X269240000Y-99853750D03*
D10*
X267970000Y-102393750D03*
X278130000Y-102393750D03*
D13*
X294640000Y-97313750D03*
D14*
X292100000Y-102393750D03*
D13*
X288290000Y-99853750D03*
D10*
X287020000Y-102393750D03*
X297180000Y-102393750D03*
D13*
X313690000Y-97313750D03*
D14*
X311150000Y-102393750D03*
D13*
X307340000Y-99853750D03*
D10*
X306070000Y-102393750D03*
X316230000Y-102393750D03*
D13*
X342265000Y-97313750D03*
D14*
X339725000Y-102393750D03*
D13*
X335915000Y-99853750D03*
D10*
X334645000Y-102393750D03*
X344805000Y-102393750D03*
D19*
X327818750Y-95408750D03*
X351631250Y-95408750D03*
D14*
X327818750Y-110648750D03*
X351631250Y-110648750D03*
D13*
X89852500Y-116363750D03*
D14*
X87312500Y-121443750D03*
D13*
X83502500Y-118903750D03*
D10*
X82232500Y-121443750D03*
X92392500Y-121443750D03*
D13*
X113665000Y-116363750D03*
D14*
X111125000Y-121443750D03*
D13*
X107315000Y-118903750D03*
D10*
X106045000Y-121443750D03*
X116205000Y-121443750D03*
D13*
X132715000Y-116363750D03*
D14*
X130175000Y-121443750D03*
D13*
X126365000Y-118903750D03*
D10*
X125095000Y-121443750D03*
X135255000Y-121443750D03*
D13*
X151765000Y-116363750D03*
D14*
X149225000Y-121443750D03*
D13*
X145415000Y-118903750D03*
D10*
X144145000Y-121443750D03*
X154305000Y-121443750D03*
D13*
X170815000Y-116363750D03*
D14*
X168275000Y-121443750D03*
D13*
X164465000Y-118903750D03*
D10*
X163195000Y-121443750D03*
X173355000Y-121443750D03*
D13*
X189865000Y-116363750D03*
D14*
X187325000Y-121443750D03*
D13*
X183515000Y-118903750D03*
D10*
X182245000Y-121443750D03*
X192405000Y-121443750D03*
D13*
X208915000Y-116363750D03*
D14*
X206375000Y-121443750D03*
D13*
X202565000Y-118903750D03*
D10*
X201295000Y-121443750D03*
X211455000Y-121443750D03*
D13*
X227965000Y-116363750D03*
D14*
X225425000Y-121443750D03*
D13*
X221615000Y-118903750D03*
D10*
X220345000Y-121443750D03*
X230505000Y-121443750D03*
D13*
X247015000Y-116363750D03*
D14*
X244475000Y-121443750D03*
D13*
X240665000Y-118903750D03*
D10*
X239395000Y-121443750D03*
X249555000Y-121443750D03*
D13*
X266065000Y-116363750D03*
D14*
X263525000Y-121443750D03*
D13*
X259715000Y-118903750D03*
D10*
X258445000Y-121443750D03*
X268605000Y-121443750D03*
D13*
X285115000Y-116363750D03*
D14*
X282575000Y-121443750D03*
D13*
X278765000Y-118903750D03*
D10*
X277495000Y-121443750D03*
X287655000Y-121443750D03*
D13*
X304165000Y-116363750D03*
D14*
X301625000Y-121443750D03*
D13*
X297815000Y-118903750D03*
D10*
X296545000Y-121443750D03*
X306705000Y-121443750D03*
D13*
X323215000Y-116363750D03*
D14*
X320675000Y-121443750D03*
D13*
X316865000Y-118903750D03*
D10*
X315595000Y-121443750D03*
X325755000Y-121443750D03*
D13*
X347027500Y-116363750D03*
D14*
X344487500Y-121443750D03*
D13*
X340677500Y-118903750D03*
D10*
X339407500Y-121443750D03*
X349567500Y-121443750D03*
D13*
X118427500Y-135413750D03*
D14*
X115887500Y-140493750D03*
D13*
X112077500Y-137953750D03*
D10*
X110807500Y-140493750D03*
X120967500Y-140493750D03*
D13*
X137477500Y-135413750D03*
D14*
X134937500Y-140493750D03*
D13*
X131127500Y-137953750D03*
D10*
X129857500Y-140493750D03*
X140017500Y-140493750D03*
D13*
X156527500Y-135413750D03*
D14*
X153987500Y-140493750D03*
D13*
X150177500Y-137953750D03*
D10*
X148907500Y-140493750D03*
X159067500Y-140493750D03*
D13*
X175577500Y-135413750D03*
D14*
X173037500Y-140493750D03*
D13*
X169227500Y-137953750D03*
D10*
X167957500Y-140493750D03*
X178117500Y-140493750D03*
D13*
X194627500Y-135413750D03*
D14*
X192087500Y-140493750D03*
D13*
X188277500Y-137953750D03*
D10*
X187007500Y-140493750D03*
X197167500Y-140493750D03*
D13*
X213677500Y-135413750D03*
D14*
X211137500Y-140493750D03*
D13*
X207327500Y-137953750D03*
D10*
X206057500Y-140493750D03*
X216217500Y-140493750D03*
D13*
X232727500Y-135413750D03*
D14*
X230187500Y-140493750D03*
D13*
X226377500Y-137953750D03*
D10*
X225107500Y-140493750D03*
X235267500Y-140493750D03*
D13*
X251777500Y-135413750D03*
D14*
X249237500Y-140493750D03*
D13*
X245427500Y-137953750D03*
D10*
X244157500Y-140493750D03*
X254317500Y-140493750D03*
D13*
X270827500Y-135413750D03*
D14*
X268287500Y-140493750D03*
D13*
X264477500Y-137953750D03*
D10*
X263207500Y-140493750D03*
X273367500Y-140493750D03*
D13*
X289877500Y-135413750D03*
D14*
X287337500Y-140493750D03*
D13*
X283527500Y-137953750D03*
D10*
X282257500Y-140493750D03*
X292417500Y-140493750D03*
D13*
X308927500Y-135413750D03*
D14*
X306387500Y-140493750D03*
D13*
X302577500Y-137953750D03*
D10*
X301307500Y-140493750D03*
X311467500Y-140493750D03*
D13*
X339883750Y-135413750D03*
D14*
X337343750Y-140493750D03*
D13*
X333533750Y-137953750D03*
D10*
X332263750Y-140493750D03*
X342423750Y-140493750D03*
D19*
X325437500Y-133508750D03*
X349250000Y-133508750D03*
D14*
X325437500Y-148748750D03*
X349250000Y-148748750D03*
D13*
X87471250Y-154463750D03*
D14*
X84931250Y-159543750D03*
D13*
X81121250Y-157003750D03*
D10*
X79851250Y-159543750D03*
X90011250Y-159543750D03*
D13*
X108902500Y-154463750D03*
D14*
X106362500Y-159543750D03*
D13*
X102552500Y-157003750D03*
D10*
X101282500Y-159543750D03*
X111442500Y-159543750D03*
D13*
X127952500Y-154463750D03*
D14*
X125412500Y-159543750D03*
D13*
X121602500Y-157003750D03*
D10*
X120332500Y-159543750D03*
X130492500Y-159543750D03*
D13*
X147002500Y-154463750D03*
D14*
X144462500Y-159543750D03*
D13*
X140652500Y-157003750D03*
D10*
X139382500Y-159543750D03*
X149542500Y-159543750D03*
D13*
X166052500Y-154463750D03*
D14*
X163512500Y-159543750D03*
D13*
X159702500Y-157003750D03*
D10*
X158432500Y-159543750D03*
X168592500Y-159543750D03*
D13*
X185102500Y-154463750D03*
D14*
X182562500Y-159543750D03*
D13*
X178752500Y-157003750D03*
D10*
X177482500Y-159543750D03*
X187642500Y-159543750D03*
D13*
X204152500Y-154463750D03*
D14*
X201612500Y-159543750D03*
D13*
X197802500Y-157003750D03*
D10*
X196532500Y-159543750D03*
X206692500Y-159543750D03*
D13*
X223202500Y-154463750D03*
D14*
X220662500Y-159543750D03*
D13*
X216852500Y-157003750D03*
D10*
X215582500Y-159543750D03*
X225742500Y-159543750D03*
D13*
X242252500Y-154463750D03*
D14*
X239712500Y-159543750D03*
D13*
X235902500Y-157003750D03*
D10*
X234632500Y-159543750D03*
X244792500Y-159543750D03*
D13*
X261302500Y-154463750D03*
D14*
X258762500Y-159543750D03*
D13*
X254952500Y-157003750D03*
D10*
X253682500Y-159543750D03*
X263842500Y-159543750D03*
D13*
X280352500Y-154463750D03*
D14*
X277812500Y-159543750D03*
D13*
X274002500Y-157003750D03*
D10*
X272732500Y-159543750D03*
X282892500Y-159543750D03*
D13*
X299402500Y-154463750D03*
D14*
X296862500Y-159543750D03*
D13*
X293052500Y-157003750D03*
D10*
X291782500Y-159543750D03*
X301942500Y-159543750D03*
D13*
X325596250Y-154463750D03*
D14*
X323056250Y-159543750D03*
D13*
X319246250Y-157003750D03*
D10*
X317976250Y-159543750D03*
X328136250Y-159543750D03*
D13*
X351790000Y-154463750D03*
D14*
X349250000Y-159543750D03*
D13*
X345440000Y-157003750D03*
D10*
X344170000Y-159543750D03*
X354330000Y-159543750D03*
D13*
X89852500Y-173513750D03*
D14*
X87312500Y-178593750D03*
D13*
X83502500Y-176053750D03*
D10*
X82232500Y-178593750D03*
X92392500Y-178593750D03*
D13*
X113665000Y-173513750D03*
D14*
X111125000Y-178593750D03*
D13*
X107315000Y-176053750D03*
D10*
X106045000Y-178593750D03*
X116205000Y-178593750D03*
D13*
X137477500Y-173513750D03*
D14*
X134937500Y-178593750D03*
D13*
X131127500Y-176053750D03*
D10*
X129857500Y-178593750D03*
X140017500Y-178593750D03*
D13*
X218440000Y-173513750D03*
D14*
X215900000Y-178593750D03*
D13*
X212090000Y-176053750D03*
D10*
X210820000Y-178593750D03*
X220980000Y-178593750D03*
D19*
X158750000Y-185578750D03*
X273050000Y-185578750D03*
D14*
X158750000Y-170338750D03*
X273050000Y-170338750D03*
D13*
X299402500Y-173513750D03*
D14*
X296862500Y-178593750D03*
D13*
X293052500Y-176053750D03*
D10*
X291782500Y-178593750D03*
X301942500Y-178593750D03*
D13*
X323215000Y-173513750D03*
D14*
X320675000Y-178593750D03*
D13*
X316865000Y-176053750D03*
D10*
X315595000Y-178593750D03*
X325755000Y-178593750D03*
D13*
X347027500Y-173513750D03*
D14*
X344487500Y-178593750D03*
D13*
X340677500Y-176053750D03*
D10*
X339407500Y-178593750D03*
X349567500Y-178593750D03*
D13*
X351790000Y-97313750D03*
D14*
X349250000Y-102393750D03*
D13*
X345440000Y-99853750D03*
D10*
X344170000Y-102393750D03*
X354330000Y-102393750D03*
D13*
X332740000Y-97313750D03*
D14*
X330200000Y-102393750D03*
D13*
X326390000Y-99853750D03*
D10*
X325120000Y-102393750D03*
X335280000Y-102393750D03*
D13*
X96996250Y-154463750D03*
D14*
X94456250Y-159543750D03*
D13*
X90646250Y-157003750D03*
D10*
X89376250Y-159543750D03*
X99536250Y-159543750D03*
D19*
X82550000Y-152558750D03*
X106362500Y-152558750D03*
D14*
X82550000Y-167798750D03*
X106362500Y-167798750D03*
D13*
X335121250Y-154463750D03*
D14*
X332581250Y-159543750D03*
D13*
X328771250Y-157003750D03*
D10*
X327501250Y-159543750D03*
X337661250Y-159543750D03*
D19*
X320675000Y-152558750D03*
X344487500Y-152558750D03*
D14*
X320675000Y-167798750D03*
X344487500Y-167798750D03*
D20*
X230700000Y-176900000D03*
X229750000Y-178900000D03*
X231650000Y-178900000D03*
G36*
G01*
X228375000Y-182193750D02*
X228375000Y-183106250D01*
G75*
G02*
X228131250Y-183350000I-243750J0D01*
G01*
X227643750Y-183350000D01*
G75*
G02*
X227400000Y-183106250I0J243750D01*
G01*
X227400000Y-182193750D01*
G75*
G02*
X227643750Y-181950000I243750J0D01*
G01*
X228131250Y-181950000D01*
G75*
G02*
X228375000Y-182193750I0J-243750D01*
G01*
G37*
G36*
G01*
X230250000Y-182193750D02*
X230250000Y-183106250D01*
G75*
G02*
X230006250Y-183350000I-243750J0D01*
G01*
X229518750Y-183350000D01*
G75*
G02*
X229275000Y-183106250I0J243750D01*
G01*
X229275000Y-182193750D01*
G75*
G02*
X229518750Y-181950000I243750J0D01*
G01*
X230006250Y-181950000D01*
G75*
G02*
X230250000Y-182193750I0J-243750D01*
G01*
G37*
G36*
G01*
X190970797Y-173626032D02*
X191616032Y-172980797D01*
G75*
G02*
X191960746Y-172980797I172357J-172357D01*
G01*
X192305461Y-173325512D01*
G75*
G02*
X192305461Y-173670226I-172357J-172357D01*
G01*
X191660226Y-174315461D01*
G75*
G02*
X191315512Y-174315461I-172357J172357D01*
G01*
X190970797Y-173970746D01*
G75*
G02*
X190970797Y-173626032I172357J172357D01*
G01*
G37*
G36*
G01*
X189644971Y-172300206D02*
X190290206Y-171654971D01*
G75*
G02*
X190634920Y-171654971I172357J-172357D01*
G01*
X190979635Y-171999686D01*
G75*
G02*
X190979635Y-172344400I-172357J-172357D01*
G01*
X190334400Y-172989635D01*
G75*
G02*
X189989686Y-172989635I-172357J172357D01*
G01*
X189644971Y-172644920D01*
G75*
G02*
X189644971Y-172300206I172357J172357D01*
G01*
G37*
G36*
G01*
X87876250Y-107370000D02*
X86963750Y-107370000D01*
G75*
G02*
X86720000Y-107126250I0J243750D01*
G01*
X86720000Y-106638750D01*
G75*
G02*
X86963750Y-106395000I243750J0D01*
G01*
X87876250Y-106395000D01*
G75*
G02*
X88120000Y-106638750I0J-243750D01*
G01*
X88120000Y-107126250D01*
G75*
G02*
X87876250Y-107370000I-243750J0D01*
G01*
G37*
G36*
G01*
X87876250Y-109245000D02*
X86963750Y-109245000D01*
G75*
G02*
X86720000Y-109001250I0J243750D01*
G01*
X86720000Y-108513750D01*
G75*
G02*
X86963750Y-108270000I243750J0D01*
G01*
X87876250Y-108270000D01*
G75*
G02*
X88120000Y-108513750I0J-243750D01*
G01*
X88120000Y-109001250D01*
G75*
G02*
X87876250Y-109245000I-243750J0D01*
G01*
G37*
G36*
G01*
X103476250Y-110765000D02*
X102563750Y-110765000D01*
G75*
G02*
X102320000Y-110521250I0J243750D01*
G01*
X102320000Y-110033750D01*
G75*
G02*
X102563750Y-109790000I243750J0D01*
G01*
X103476250Y-109790000D01*
G75*
G02*
X103720000Y-110033750I0J-243750D01*
G01*
X103720000Y-110521250D01*
G75*
G02*
X103476250Y-110765000I-243750J0D01*
G01*
G37*
G36*
G01*
X103476250Y-112640000D02*
X102563750Y-112640000D01*
G75*
G02*
X102320000Y-112396250I0J243750D01*
G01*
X102320000Y-111908750D01*
G75*
G02*
X102563750Y-111665000I243750J0D01*
G01*
X103476250Y-111665000D01*
G75*
G02*
X103720000Y-111908750I0J-243750D01*
G01*
X103720000Y-112396250D01*
G75*
G02*
X103476250Y-112640000I-243750J0D01*
G01*
G37*
G36*
G01*
X78123200Y-112368650D02*
X78123200Y-111456150D01*
G75*
G02*
X78366950Y-111212400I243750J0D01*
G01*
X78854450Y-111212400D01*
G75*
G02*
X79098200Y-111456150I0J-243750D01*
G01*
X79098200Y-112368650D01*
G75*
G02*
X78854450Y-112612400I-243750J0D01*
G01*
X78366950Y-112612400D01*
G75*
G02*
X78123200Y-112368650I0J243750D01*
G01*
G37*
G36*
G01*
X76248200Y-112368650D02*
X76248200Y-111456150D01*
G75*
G02*
X76491950Y-111212400I243750J0D01*
G01*
X76979450Y-111212400D01*
G75*
G02*
X77223200Y-111456150I0J-243750D01*
G01*
X77223200Y-112368650D01*
G75*
G02*
X76979450Y-112612400I-243750J0D01*
G01*
X76491950Y-112612400D01*
G75*
G02*
X76248200Y-112368650I0J243750D01*
G01*
G37*
G36*
G01*
X77337480Y-143609550D02*
X77337480Y-144522050D01*
G75*
G02*
X77093730Y-144765800I-243750J0D01*
G01*
X76606230Y-144765800D01*
G75*
G02*
X76362480Y-144522050I0J243750D01*
G01*
X76362480Y-143609550D01*
G75*
G02*
X76606230Y-143365800I243750J0D01*
G01*
X77093730Y-143365800D01*
G75*
G02*
X77337480Y-143609550I0J-243750D01*
G01*
G37*
G36*
G01*
X79212480Y-143609550D02*
X79212480Y-144522050D01*
G75*
G02*
X78968730Y-144765800I-243750J0D01*
G01*
X78481230Y-144765800D01*
G75*
G02*
X78237480Y-144522050I0J243750D01*
G01*
X78237480Y-143609550D01*
G75*
G02*
X78481230Y-143365800I243750J0D01*
G01*
X78968730Y-143365800D01*
G75*
G02*
X79212480Y-143609550I0J-243750D01*
G01*
G37*
D21*
X242316000Y-179546000D03*
D22*
X242316000Y-177546000D03*
D23*
X93050000Y-106755500D03*
D24*
X91050000Y-106555500D03*
X93050000Y-108455500D03*
X91050000Y-108455500D03*
D25*
X277596600Y-178321830D03*
G36*
G01*
X102086000Y-131561750D02*
X102086000Y-130311750D01*
G75*
G02*
X102236000Y-130161750I150000J0D01*
G01*
X102536000Y-130161750D01*
G75*
G02*
X102686000Y-130311750I0J-150000D01*
G01*
X102686000Y-131561750D01*
G75*
G02*
X102536000Y-131711750I-150000J0D01*
G01*
X102236000Y-131711750D01*
G75*
G02*
X102086000Y-131561750I0J150000D01*
G01*
G37*
G36*
G01*
X103086000Y-131561750D02*
X103086000Y-130311750D01*
G75*
G02*
X103236000Y-130161750I150000J0D01*
G01*
X103536000Y-130161750D01*
G75*
G02*
X103686000Y-130311750I0J-150000D01*
G01*
X103686000Y-131561750D01*
G75*
G02*
X103536000Y-131711750I-150000J0D01*
G01*
X103236000Y-131711750D01*
G75*
G02*
X103086000Y-131561750I0J150000D01*
G01*
G37*
G36*
G01*
X104086000Y-131561750D02*
X104086000Y-130311750D01*
G75*
G02*
X104236000Y-130161750I150000J0D01*
G01*
X104536000Y-130161750D01*
G75*
G02*
X104686000Y-130311750I0J-150000D01*
G01*
X104686000Y-131561750D01*
G75*
G02*
X104536000Y-131711750I-150000J0D01*
G01*
X104236000Y-131711750D01*
G75*
G02*
X104086000Y-131561750I0J150000D01*
G01*
G37*
G36*
G01*
X105086000Y-131561750D02*
X105086000Y-130311750D01*
G75*
G02*
X105236000Y-130161750I150000J0D01*
G01*
X105536000Y-130161750D01*
G75*
G02*
X105686000Y-130311750I0J-150000D01*
G01*
X105686000Y-131561750D01*
G75*
G02*
X105536000Y-131711750I-150000J0D01*
G01*
X105236000Y-131711750D01*
G75*
G02*
X105086000Y-131561750I0J150000D01*
G01*
G37*
G36*
G01*
X100486000Y-127711751D02*
X100486000Y-126411749D01*
G75*
G02*
X100735999Y-126161750I249999J0D01*
G01*
X101436001Y-126161750D01*
G75*
G02*
X101686000Y-126411749I0J-249999D01*
G01*
X101686000Y-127711751D01*
G75*
G02*
X101436001Y-127961750I-249999J0D01*
G01*
X100735999Y-127961750D01*
G75*
G02*
X100486000Y-127711751I0J249999D01*
G01*
G37*
G36*
G01*
X106086000Y-127711751D02*
X106086000Y-126411749D01*
G75*
G02*
X106335999Y-126161750I249999J0D01*
G01*
X107036001Y-126161750D01*
G75*
G02*
X107286000Y-126411749I0J-249999D01*
G01*
X107286000Y-127711751D01*
G75*
G02*
X107036001Y-127961750I-249999J0D01*
G01*
X106335999Y-127961750D01*
G75*
G02*
X106086000Y-127711751I0J249999D01*
G01*
G37*
D26*
X98577400Y-121171830D03*
X75463400Y-149683330D03*
X201676000Y-140239750D03*
X263931400Y-178321830D03*
X357149400Y-149365830D03*
X333438500Y-121126250D03*
M02*
