M48
; DRILL file {KiCad (5.1.8-0-10_14)} date Monday, February 08, 2021 at 05:11:11 PM
; FORMAT={-:-/ absolute / metric / decimal}
; #@! TF.CreationDate,2021-02-08T17:11:11+00:00
; #@! TF.GenerationSoftware,Kicad,Pcbnew,(5.1.8-0-10_14)
; #@! TF.FileFunction,Plated,1,2,PTH
FMAT,2
METRIC
T1C0.400
T2C0.600
T3C0.800
T4C1.040
T5C1.470
T6C2.100
%
G90
G05
T1
X75.971Y-162.066
X76.835Y-181.007
X79.502Y-153.194
X81.28Y-154.972
X88.8Y-100.68
X89.662Y-101.632
X90.513Y-125.617
X90.66Y-100.68
X92.481Y-165.368
X93.472Y-100.616
X93.599Y-103.029
X93.89Y-144.08
X98.028Y-176.213
X98.044Y-112.681
X100.33Y-110.268
X100.584Y-130.334
X102.108Y-133.128
X107.213Y-96.28
X107.553Y-123.825
X108.14Y-161.481
X108.204Y-143.796
X108.496Y-125.444
X109.728Y-129.064
X111.125Y-100.953
X150.13Y-161.15
X153.238Y-184.328
X153.99Y-160.62
X166.065Y-167.335
X167.437Y-173.634
X167.945Y-172.72
X168.605Y-170.434
X171.831Y-182.589
X175.133Y-168.402
X176.505Y-182.829
X177.673Y-182.372
X178.867Y-174.041
X179.197Y-175.165
X183.007Y-178.181
X185.928Y-175.546
X186.276Y-169.375
X186.36Y-174.225
X193.3Y-170.618
X198.041Y-145.256
X225.374Y-170.663
X285.572Y-161.011
X323.818Y-107.95
X327.685Y-126.455
X327.787Y-117.507
T3
X242.316Y-177.546
X242.316Y-179.546
T4
X88.424Y-145.574
X90.964Y-145.574
X83.661Y-145.574
X86.201Y-145.574
X81.28Y-107.474
X83.82Y-107.474
T5
X345.44Y-157.004
X351.79Y-154.464
X326.39Y-99.854
X332.74Y-97.314
X319.246Y-157.004
X325.596Y-154.464
X328.771Y-157.004
X335.121Y-154.464
X212.09Y-176.054
X218.44Y-173.514
X173.99Y-99.854
X180.34Y-97.314
X116.84Y-99.854
X123.19Y-97.314
X316.865Y-176.054
X323.215Y-173.514
X202.565Y-118.904
X208.915Y-116.364
X269.24Y-99.854
X275.59Y-97.314
X197.802Y-157.004
X204.153Y-154.464
X145.415Y-118.904
X151.765Y-116.364
X212.09Y-99.854
X218.44Y-97.314
X278.765Y-118.904
X285.115Y-116.364
X169.227Y-137.954
X175.577Y-135.414
X83.502Y-118.904
X89.852Y-116.364
X81.121Y-157.004
X87.471Y-154.464
X274.002Y-157.004
X280.352Y-154.464
X112.078Y-137.954
X118.427Y-135.414
X283.527Y-137.954
X289.877Y-135.414
X83.502Y-176.054
X89.852Y-173.514
X226.377Y-137.954
X232.727Y-135.414
X321.627Y-137.954
X327.977Y-135.414
X140.653Y-157.004
X147.002Y-154.464
X78.74Y-99.854
X85.09Y-97.314
X193.04Y-99.854
X199.39Y-97.314
X135.89Y-99.854
X142.24Y-97.314
X340.678Y-176.054
X347.027Y-173.514
X221.615Y-118.904
X227.965Y-116.364
X216.852Y-157.004
X223.202Y-154.464
X164.465Y-118.904
X170.815Y-116.364
X343.059Y-128.429
X349.409Y-125.889
X231.14Y-99.854
X237.49Y-97.314
X297.815Y-118.904
X304.165Y-116.364
X159.702Y-157.004
X166.052Y-154.464
X188.278Y-137.954
X194.627Y-135.414
X107.315Y-118.904
X113.665Y-116.364
X90.646Y-157.004
X96.996Y-154.464
X240.665Y-118.904
X247.015Y-116.364
X102.552Y-157.004
X108.902Y-154.464
X293.053Y-157.004
X299.402Y-154.464
X307.34Y-99.854
X313.69Y-97.314
X131.127Y-137.954
X137.477Y-135.414
X302.577Y-137.954
X308.928Y-135.414
X288.29Y-99.854
X294.64Y-97.314
X235.903Y-157.004
X242.252Y-154.464
X316.865Y-118.904
X323.215Y-116.364
X107.315Y-176.054
X113.665Y-173.514
X245.427Y-137.954
X251.777Y-135.414
X126.365Y-118.904
X132.715Y-116.364
X335.915Y-99.854
X342.265Y-97.314
X345.44Y-99.854
X351.79Y-97.314
X254.952Y-157.004
X261.303Y-154.464
X131.127Y-176.054
X137.477Y-173.514
X154.94Y-99.854
X161.29Y-97.314
X97.79Y-99.854
X104.14Y-97.314
X293.053Y-176.054
X299.402Y-173.514
X183.515Y-118.904
X189.865Y-116.364
X250.19Y-99.854
X256.54Y-97.314
X178.752Y-157.004
X185.102Y-154.464
X207.327Y-137.954
X213.677Y-135.414
X259.715Y-118.904
X266.065Y-116.364
X121.602Y-157.004
X127.953Y-154.464
X150.177Y-137.954
X156.528Y-135.414
X333.534Y-137.954
X339.884Y-135.414
X85.884Y-137.954
X92.234Y-135.414
X340.678Y-118.904
X347.027Y-116.364
X264.477Y-137.954
X270.827Y-135.414
X81.121Y-137.954
X87.471Y-135.414
T2
G00X87.755Y-92.787
M15
G01X87.755Y-93.388
M16
G05
G00X87.755Y-96.718
M15
G01X87.755Y-97.817
M16
G05
G00X96.395Y-92.787
M15
G01X96.395Y-93.388
M16
G05
G00X96.395Y-96.718
M15
G01X96.395Y-97.817
M16
G05
T6
G00X96.477Y-121.172
M15
G01X100.677Y-121.172
M16
G05
G00X73.363Y-149.683
M15
G01X77.563Y-149.683
M16
G05
G00X199.576Y-140.24
M15
G01X203.776Y-140.24
M16
G05
G00X261.831Y-178.322
M15
G01X266.031Y-178.322
M16
G05
G00X355.049Y-149.366
M15
G01X359.249Y-149.366
M16
G05
G00X331.339Y-121.126
M15
G01X335.538Y-121.126
M16
G05
T0
M30
