M48
; DRILL file {KiCad (5.1.8-0-10_14)} date Monday, February 08, 2021 at 05:11:11 PM
; FORMAT={-:-/ absolute / metric / decimal}
; #@! TF.CreationDate,2021-02-08T17:11:11+00:00
; #@! TF.GenerationSoftware,Kicad,Pcbnew,(5.1.8-0-10_14)
; #@! TF.FileFunction,NonPlated,1,2,NPTH
FMAT,2
METRIC
T1C0.650
T2C1.750
T3C3.048
T4C3.988
%
G90
G05
T1
X89.185Y-96.737
X94.965Y-96.737
T2
X148.907Y-140.494
X159.067Y-140.494
X332.264Y-140.494
X342.424Y-140.494
X84.614Y-140.494
X94.774Y-140.494
X339.407Y-121.444
X349.567Y-121.444
X263.207Y-140.494
X273.368Y-140.494
X79.851Y-140.494
X90.011Y-140.494
X344.17Y-159.544
X354.33Y-159.544
X325.12Y-102.394
X335.28Y-102.394
X317.976Y-159.544
X328.136Y-159.544
X327.501Y-159.544
X337.661Y-159.544
X210.82Y-178.594
X220.98Y-178.594
X172.72Y-102.394
X182.88Y-102.394
X115.57Y-102.394
X125.73Y-102.394
X315.595Y-178.594
X325.755Y-178.594
X201.295Y-121.444
X211.455Y-121.444
X267.97Y-102.394
X278.13Y-102.394
X196.532Y-159.544
X206.692Y-159.544
X144.145Y-121.444
X154.305Y-121.444
X210.82Y-102.394
X220.98Y-102.394
X277.495Y-121.444
X287.655Y-121.444
X167.957Y-140.494
X178.117Y-140.494
X82.233Y-121.444
X92.392Y-121.444
X79.851Y-159.544
X90.011Y-159.544
X272.733Y-159.544
X282.892Y-159.544
X110.807Y-140.494
X120.968Y-140.494
X282.257Y-140.494
X292.417Y-140.494
X82.233Y-178.594
X92.392Y-178.594
X225.107Y-140.494
X235.267Y-140.494
X320.357Y-140.494
X330.517Y-140.494
X139.382Y-159.544
X149.542Y-159.544
X77.47Y-102.394
X87.63Y-102.394
X191.77Y-102.394
X201.93Y-102.394
X134.62Y-102.394
X144.78Y-102.394
X339.407Y-178.594
X349.567Y-178.594
X220.345Y-121.444
X230.505Y-121.444
X215.582Y-159.544
X225.742Y-159.544
X163.195Y-121.444
X173.355Y-121.444
X341.789Y-130.969
X351.949Y-130.969
X229.87Y-102.394
X240.03Y-102.394
X296.545Y-121.444
X306.705Y-121.444
X158.433Y-159.544
X168.593Y-159.544
X187.007Y-140.494
X197.167Y-140.494
X106.045Y-121.444
X116.205Y-121.444
X89.376Y-159.544
X99.536Y-159.544
X239.395Y-121.444
X249.555Y-121.444
X101.282Y-159.544
X111.442Y-159.544
X291.782Y-159.544
X301.942Y-159.544
X306.07Y-102.394
X316.23Y-102.394
X129.857Y-140.494
X140.017Y-140.494
X301.308Y-140.494
X311.467Y-140.494
X287.02Y-102.394
X297.18Y-102.394
X234.632Y-159.544
X244.792Y-159.544
X315.595Y-121.444
X325.755Y-121.444
X106.045Y-178.594
X116.205Y-178.594
X244.157Y-140.494
X254.317Y-140.494
X125.095Y-121.444
X135.255Y-121.444
X334.645Y-102.394
X344.805Y-102.394
X344.17Y-102.394
X354.33Y-102.394
X253.682Y-159.544
X263.842Y-159.544
X129.857Y-178.594
X140.017Y-178.594
X153.67Y-102.394
X163.83Y-102.394
X96.52Y-102.394
X106.68Y-102.394
X291.782Y-178.594
X301.942Y-178.594
X182.245Y-121.444
X192.405Y-121.444
X248.92Y-102.394
X259.08Y-102.394
X177.482Y-159.544
X187.642Y-159.544
X206.058Y-140.494
X216.218Y-140.494
X258.445Y-121.444
X268.605Y-121.444
X120.332Y-159.544
X130.493Y-159.544
T3
X353.854Y-119.031
X353.854Y-142.907
X82.55Y-152.559
X106.362Y-152.559
X327.819Y-95.409
X351.631Y-95.409
X325.438Y-133.509
X349.25Y-133.509
X320.675Y-152.559
X344.488Y-152.559
X158.75Y-185.579
X273.05Y-185.579
T4
X134.938Y-140.494
X306.387Y-140.494
X292.1Y-102.394
X239.712Y-159.544
X320.675Y-121.444
X111.125Y-178.594
X249.237Y-140.494
X130.175Y-121.444
X327.819Y-110.649
X339.725Y-102.394
X351.631Y-110.649
X349.25Y-102.394
X258.762Y-159.544
X134.938Y-178.594
X158.75Y-102.394
X101.6Y-102.394
X296.863Y-178.594
X187.325Y-121.444
X254.0Y-102.394
X182.562Y-159.544
X211.137Y-140.494
X263.525Y-121.444
X125.412Y-159.544
X153.987Y-140.494
X325.438Y-148.749
X337.344Y-140.494
X349.25Y-148.749
X89.694Y-140.494
X344.488Y-121.444
X268.287Y-140.494
X84.931Y-140.494
X349.25Y-159.544
X330.2Y-102.394
X323.056Y-159.544
X320.675Y-167.799
X332.581Y-159.544
X344.488Y-167.799
X158.75Y-170.339
X215.9Y-178.594
X273.05Y-170.339
X177.8Y-102.394
X120.65Y-102.394
X320.675Y-178.594
X206.375Y-121.444
X273.05Y-102.394
X201.612Y-159.544
X149.225Y-121.444
X215.9Y-102.394
X282.575Y-121.444
X173.037Y-140.494
X87.312Y-121.444
X84.931Y-159.544
X277.812Y-159.544
X115.887Y-140.494
X287.337Y-140.494
X87.312Y-178.594
X230.188Y-140.494
X325.438Y-140.494
X144.463Y-159.544
X82.55Y-102.394
X196.85Y-102.394
X139.7Y-102.394
X344.488Y-178.594
X225.425Y-121.444
X220.662Y-159.544
X168.275Y-121.444
X338.614Y-119.031
X338.614Y-142.907
X346.869Y-130.969
X234.95Y-102.394
X301.625Y-121.444
X163.512Y-159.544
X192.087Y-140.494
X111.125Y-121.444
X82.55Y-167.799
X94.456Y-159.544
X106.362Y-167.799
X244.475Y-121.444
X106.362Y-159.544
X296.863Y-159.544
X311.15Y-102.394
T0
M30
