M48
; DRILL file {KiCad (5.1.0)-1} date 05/27/19 12:30:29
; FORMAT={-:-/ absolute / inch / decimal}
; #@! TF.CreationDate,2019-05-27T12:30:29+02:00
; #@! TF.GenerationSoftware,Kicad,Pcbnew,(5.1.0)-1
; #@! TF.FileFunction,NonPlated,1,2,NPTH
FMAT,2
INCH
T1C0.0256
T2C0.0689
T3C0.1200
T4C0.1570
%
G90
G05
T1
X3.5112Y-3.8086
X3.7388Y-3.8086
T2
X7.175Y-4.7812
X7.575Y-4.7812
X3.3312Y-5.5312
X3.7312Y-5.5312
X9.9875Y-6.2812
X10.3875Y-6.2812
X9.425Y-4.7812
X9.825Y-4.7812
X9.6125Y-5.5312
X10.0125Y-5.5312
X13.55Y-4.0312
X13.95Y-4.0312
X8.8625Y-5.5312
X9.2625Y-5.5312
X13.3625Y-7.0312
X13.7625Y-7.0312
X5.8625Y-5.5312
X6.2625Y-5.5312
X5.1125Y-5.5312
X5.5125Y-5.5312
X3.2375Y-7.0312
X3.6375Y-7.0312
X8.675Y-4.7812
X9.075Y-4.7812
X13.0812Y-5.5312
X13.4812Y-5.5312
X10.7375Y-6.2812
X11.1375Y-6.2812
X7.55Y-4.0312
X7.95Y-4.0312
X11.4875Y-6.2812
X11.8875Y-6.2812
X4.925Y-4.7812
X5.325Y-4.7812
X4.7375Y-6.2812
X5.1375Y-6.2812
X5.675Y-4.7812
X6.075Y-4.7812
X9.2375Y-6.2812
X9.6375Y-6.2812
X4.175Y-7.0312
X4.575Y-7.0312
X3.2375Y-4.7812
X3.6375Y-4.7812
X6.6125Y-5.5312
X7.0125Y-5.5312
X5.3Y-4.0312
X5.7Y-4.0312
X12.5187Y-6.2812
X12.9187Y-6.2812
X9.8Y-4.0312
X10.2Y-4.0312
X10.3625Y-5.5312
X10.7625Y-5.5312
X5.1125Y-7.0312
X5.5125Y-7.0312
X13.4553Y-5.1562
X13.8553Y-5.1562
X12.425Y-4.7812
X12.825Y-4.7812
X11.1125Y-5.5312
X11.5125Y-5.5312
X12.6126Y-5.5312
X13.0126Y-5.5312
X12.425Y-7.0312
X12.825Y-7.0312
X4.175Y-4.7812
X4.575Y-4.7812
X11.8625Y-5.5312
X12.2625Y-5.5312
X11.4875Y-7.0312
X11.8875Y-7.0312
X13.175Y-4.0312
X13.575Y-4.0312
X10.175Y-4.7812
X10.575Y-4.7812
X5.4875Y-6.2812
X5.8875Y-6.2812
X11.3Y-4.0312
X11.7Y-4.0312
X12.8Y-4.0312
X13.2Y-4.0312
X12.05Y-4.0312
X12.45Y-4.0312
X6.2375Y-6.2812
X6.6375Y-6.2812
X3.1437Y-5.5312
X3.5437Y-5.5312
X6.425Y-4.7812
X6.825Y-4.7812
X13.55Y-6.2812
X13.95Y-6.2812
X7.925Y-4.7812
X8.325Y-4.7812
X8.1125Y-5.5312
X8.5125Y-5.5312
X6.05Y-4.0312
X6.45Y-4.0312
X10.925Y-4.7812
X11.325Y-4.7812
X8.3Y-7.0312
X8.7Y-7.0312
X11.675Y-4.7812
X12.075Y-4.7812
X12.8937Y-6.2812
X13.2937Y-6.2812
X13.3625Y-4.7812
X13.7625Y-4.7812
X3.05Y-4.0312
X3.45Y-4.0312
X3.5187Y-6.2812
X3.9187Y-6.2812
X8.4875Y-6.2812
X8.8875Y-6.2812
X10.55Y-4.0312
X10.95Y-4.0312
X7.3625Y-5.5312
X7.7625Y-5.5312
X3.8Y-4.0312
X4.2Y-4.0312
X3.1437Y-6.2812
X3.5437Y-6.2812
X6.8Y-4.0312
X7.2Y-4.0312
X4.3625Y-5.5312
X4.7625Y-5.5312
X7.7375Y-6.2812
X8.1375Y-6.2812
X8.3Y-4.0312
X8.7Y-4.0312
X3.9875Y-6.2812
X4.3875Y-6.2812
X9.05Y-4.0312
X9.45Y-4.0312
X4.55Y-4.0312
X4.95Y-4.0312
X6.9875Y-6.2812
X7.3875Y-6.2812
T3
X13.9303Y-4.6863
X13.9303Y-5.6262
X12.9062Y-3.7563
X13.8438Y-3.7563
X6.25Y-7.3062
X10.75Y-7.3062
X12.625Y-6.0062
X13.5625Y-6.0062
X3.25Y-6.0062
X4.1875Y-6.0062
X12.8125Y-5.2562
X13.75Y-5.2562
T4
X10.9375Y-6.2812
X7.75Y-4.0312
X11.6875Y-6.2812
X5.125Y-4.7812
X4.9375Y-6.2812
X5.875Y-4.7812
X9.4375Y-6.2812
X4.375Y-7.0312
X3.4375Y-4.7812
X6.8125Y-5.5312
X5.5Y-4.0312
X12.7188Y-6.2812
X10.0Y-4.0312
X10.5625Y-5.5312
X5.3125Y-7.0312
X13.3303Y-4.6863
X13.3303Y-5.6262
X13.6553Y-5.1562
X12.625Y-4.7812
X11.3125Y-5.5312
X12.8126Y-5.5312
X12.625Y-7.0312
X4.375Y-4.7812
X12.0625Y-5.5312
X11.6875Y-7.0312
X12.9062Y-4.3563
X13.375Y-4.0312
X13.8438Y-4.3563
X10.375Y-4.7812
X5.6875Y-6.2812
X11.5Y-4.0312
X13.0Y-4.0312
X12.25Y-4.0312
X6.4375Y-6.2812
X3.3438Y-5.5312
X6.625Y-4.7812
X13.75Y-6.2812
X8.125Y-4.7812
X8.3125Y-5.5312
X6.25Y-4.0312
X11.125Y-4.7812
X6.25Y-6.7062
X8.5Y-7.0312
X10.75Y-6.7062
X11.875Y-4.7812
X12.625Y-6.6063
X13.0938Y-6.2812
X13.5625Y-6.6063
X13.5625Y-4.7812
X3.25Y-4.0312
X3.25Y-6.6063
X3.7188Y-6.2812
X4.1875Y-6.6063
X8.6875Y-6.2812
X10.75Y-4.0312
X7.5625Y-5.5312
X4.0Y-4.0312
X3.3438Y-6.2812
X7.0Y-4.0312
X4.5625Y-5.5312
X7.9375Y-6.2812
X8.5Y-4.0312
X4.1875Y-6.2812
X9.25Y-4.0312
X4.75Y-4.0312
X7.1875Y-6.2812
X7.375Y-4.7812
X3.5312Y-5.5312
X10.1875Y-6.2812
X9.625Y-4.7812
X9.8125Y-5.5312
X13.75Y-4.0312
X9.0625Y-5.5312
X13.5625Y-7.0312
X6.0625Y-5.5312
X5.3125Y-5.5312
X3.4375Y-7.0312
X8.875Y-4.7812
X12.8125Y-5.8563
X13.2812Y-5.5312
X13.75Y-5.8563
T0
M30
