M48
; DRILL file {KiCad (5.1.5)-3} date 05/05/20 12:01:43
; FORMAT={-:-/ absolute / inch / decimal}
; #@! TF.CreationDate,2020-05-05T12:01:43+01:00
; #@! TF.GenerationSoftware,Kicad,Pcbnew,(5.1.5)-3
; #@! TF.FileFunction,Plated,1,2,PTH
FMAT,2
INCH
T1C0.0157
T2C0.0236
T3C0.0315
T4C0.0409
T5C0.0579
%
G90
G05
T1
X3.018Y-4.498
X3.052Y-5.982
X3.455Y-4.345
X3.4961Y-3.9638
X3.5693Y-3.9638
X3.63Y-6.405
X3.6525Y-4.4075
X3.6811Y-3.9717
X3.6965Y-5.6724
X3.7029Y-4.2425
X3.705Y-5.87
X3.74Y-4.5415
X3.7539Y-3.9717
X3.8315Y-4.882
X3.9567Y-4.374
X4.008Y-5.93
X4.178Y-4.871
X4.2201Y-5.8083
X4.2575Y-6.3575
X5.9106Y-6.3445
X6.033Y-7.257
X6.0626Y-6.3236
X6.538Y-6.588
X6.592Y-6.836
X6.612Y-6.8
X6.638Y-6.71
X6.668Y-7.248
X6.895Y-6.63
X6.995Y-7.18
X7.042Y-6.852
X7.075Y-6.8925
X7.205Y-7.015
X7.2736Y-6.8579
X7.3337Y-6.6683
X7.36Y-6.835
X7.4125Y-6.975
X7.455Y-7.03
X8.873Y-6.719
X11.243Y-6.339
X13.2Y-4.98
T3
X9.54Y-6.99
X9.54Y-7.0687
T4
X3.4812Y-5.7313
X3.5812Y-5.7313
X3.2Y-4.2313
X3.3Y-4.2313
X3.2937Y-5.7313
X3.3937Y-5.7313
T5
X12.475Y-4.6812
X12.725Y-4.5812
X11.725Y-4.6812
X11.975Y-4.5812
X8.9125Y-5.4312
X9.1625Y-5.3312
X12.9437Y-6.1812
X13.1937Y-6.0812
X8.35Y-6.9312
X8.6Y-6.8312
X10.0375Y-6.1812
X10.2875Y-6.0812
X12.6625Y-5.4312
X12.9125Y-5.3312
X12.85Y-3.9312
X13.1Y-3.8312
X4.225Y-6.9312
X4.475Y-6.8312
X3.2875Y-6.9312
X3.5375Y-6.8312
X6.85Y-3.9312
X7.1Y-3.8312
X5.35Y-3.9312
X5.6Y-3.8312
X10.225Y-4.6812
X10.475Y-4.5812
X10.975Y-4.6812
X11.225Y-4.5812
X11.5375Y-6.9312
X11.7875Y-6.8312
X4.0375Y-6.1812
X4.2875Y-6.0812
X13.6Y-3.9312
X13.85Y-3.8312
X7.0375Y-6.1812
X7.2875Y-6.0812
X11.9125Y-5.4312
X12.1625Y-5.3312
X4.975Y-4.6812
X5.225Y-4.5812
X9.1Y-3.9312
X9.35Y-3.8312
X5.9125Y-5.4312
X6.1625Y-5.3312
X9.475Y-4.6812
X9.725Y-4.5812
X9.2875Y-6.1812
X9.5375Y-6.0812
X6.2875Y-6.1812
X6.5375Y-6.0812
X13.6Y-6.1812
X13.85Y-6.0812
X3.2875Y-4.6812
X3.5375Y-4.5812
X7.225Y-4.6812
X7.475Y-4.5812
X13.4125Y-4.6812
X13.6625Y-4.5812
X11.1625Y-5.4312
X11.4125Y-5.3312
X3.3813Y-5.4312
X3.6313Y-5.3312
X13.4125Y-6.9312
X13.6625Y-6.8312
X8.5375Y-6.1812
X8.7875Y-6.0812
X10.7875Y-6.1812
X11.0375Y-6.0812
X12.5687Y-6.1812
X12.8187Y-6.0812
X8.35Y-3.9312
X8.6Y-3.8312
X13.225Y-3.9312
X13.475Y-3.8312
X4.225Y-4.6812
X4.475Y-4.5812
X8.1625Y-5.4312
X8.4125Y-5.3312
X7.975Y-4.6812
X8.225Y-4.5812
X10.4125Y-5.4312
X10.6625Y-5.3312
X12.475Y-6.9312
X12.725Y-6.8312
X3.1Y-3.9312
X3.35Y-3.8312
X3.5688Y-6.1812
X3.8188Y-6.0812
X7.7875Y-6.1812
X8.0375Y-6.0812
X11.5375Y-6.1812
X11.7875Y-6.0812
X3.85Y-3.9312
X4.1Y-3.8312
X4.6Y-3.9312
X4.85Y-3.8312
X11.35Y-3.9312
X11.6Y-3.8312
X6.475Y-4.6812
X6.725Y-4.5812
X7.4125Y-5.4312
X7.6625Y-5.3312
X4.4125Y-5.4312
X4.6625Y-5.3312
X9.6625Y-5.4312
X9.9125Y-5.3312
X13.5062Y-5.0562
X13.7562Y-4.9562
X3.1938Y-6.1812
X3.4438Y-6.0812
X13.1312Y-5.4312
X13.3812Y-5.3312
X12.1Y-3.9312
X12.35Y-3.8312
X9.85Y-3.9312
X10.1Y-3.8312
X6.1Y-3.9312
X6.35Y-3.8312
X6.6625Y-5.4312
X6.9125Y-5.3312
X8.725Y-4.6812
X8.975Y-4.5812
X5.1625Y-5.4312
X5.4125Y-5.3312
X3.1938Y-5.4312
X3.4438Y-5.3312
X5.5375Y-6.1812
X5.7875Y-6.0812
X5.1625Y-6.9312
X5.4125Y-6.8312
X4.7875Y-6.1812
X5.0375Y-6.0812
X5.725Y-4.6812
X5.975Y-4.5812
X7.6Y-3.9312
X7.85Y-3.8312
X10.6Y-3.9312
X10.85Y-3.8312
T2
G00X3.4549Y-3.6531
M15
G01X3.4549Y-3.6767
M16
G05
G00X3.4549Y-3.8078
M15
G01X3.4549Y-3.8511
M16
G05
G00X3.7951Y-3.6531
M15
G01X3.7951Y-3.6767
M16
G05
G00X3.7951Y-3.8078
M15
G01X3.7951Y-3.8511
M16
G05
T0
M30
