G04 #@! TF.GenerationSoftware,KiCad,Pcbnew,(5.1.0)-1*
G04 #@! TF.CreationDate,2019-05-27T12:30:27+02:00*
G04 #@! TF.ProjectId,prophet,70726f70-6865-4742-9e6b-696361645f70,rev?*
G04 #@! TF.SameCoordinates,Original*
G04 #@! TF.FileFunction,Copper,L1,Top*
G04 #@! TF.FilePolarity,Positive*
%FSLAX46Y46*%
G04 Gerber Fmt 4.6, Leading zero omitted, Abs format (unit mm)*
G04 Created by KiCad (PCBNEW (5.1.0)-1) date 2019-05-27 12:30:27*
%MOMM*%
%LPD*%
G04 APERTURE LIST*
%ADD10C,2.250000*%
%ADD11O,1.000000X1.600000*%
%ADD12O,1.000000X2.100000*%
%ADD13C,0.600000*%
%ADD14C,0.635000*%
%ADD15C,0.254000*%
G04 APERTURE END LIST*
D10*
X327980601Y-135413750D03*
X321630601Y-137953750D03*
X343033946Y-128428750D03*
X349383946Y-125888750D03*
X78740000Y-99853750D03*
X85090000Y-97313750D03*
X97790000Y-99853750D03*
X104140000Y-97313750D03*
X116840000Y-99853750D03*
X123190000Y-97313750D03*
X135890000Y-99853750D03*
X142240000Y-97313750D03*
X154940000Y-99853750D03*
X161290000Y-97313750D03*
X180340000Y-97313750D03*
X173990000Y-99853750D03*
X193040000Y-99853750D03*
X199390000Y-97313750D03*
X218440000Y-97313750D03*
X212090000Y-99853750D03*
X237490000Y-97313750D03*
X231140000Y-99853750D03*
X256540000Y-97313750D03*
X250190000Y-99853750D03*
X269240000Y-99853750D03*
X275590000Y-97313750D03*
X288290000Y-99853750D03*
X294640000Y-97313750D03*
X313690000Y-97313750D03*
X307340000Y-99853750D03*
X335915000Y-99853750D03*
X342265000Y-97313750D03*
X83502500Y-118903750D03*
X89852500Y-116363750D03*
X113665000Y-116363750D03*
X107315000Y-118903750D03*
X132715000Y-116363750D03*
X126365000Y-118903750D03*
X151765000Y-116363750D03*
X145415000Y-118903750D03*
X170815000Y-116363750D03*
X164465000Y-118903750D03*
X183515000Y-118903750D03*
X189865000Y-116363750D03*
X202565000Y-118903750D03*
X208915000Y-116363750D03*
X221615000Y-118903750D03*
X227965000Y-116363750D03*
X240665000Y-118903750D03*
X247015000Y-116363750D03*
X259715000Y-118903750D03*
X266065000Y-116363750D03*
X278765000Y-118903750D03*
X285115000Y-116363750D03*
X304165000Y-116363750D03*
X297815000Y-118903750D03*
X323215000Y-116363750D03*
X316865000Y-118903750D03*
X347027500Y-116363750D03*
X340677500Y-118903750D03*
X92233750Y-135413750D03*
X85883750Y-137953750D03*
X118427500Y-135413750D03*
X112077500Y-137953750D03*
X137477500Y-135413750D03*
X131127500Y-137953750D03*
X156527500Y-135413750D03*
X150177500Y-137953750D03*
X175577500Y-135413750D03*
X169227500Y-137953750D03*
X194627500Y-135413750D03*
X188277500Y-137953750D03*
X213677500Y-135413750D03*
X207327500Y-137953750D03*
X226377500Y-137953750D03*
X232727500Y-135413750D03*
X245427500Y-137953750D03*
X251777500Y-135413750D03*
X264477500Y-137953750D03*
X270827500Y-135413750D03*
X283527500Y-137953750D03*
X289877500Y-135413750D03*
X302577500Y-137953750D03*
X308927500Y-135413750D03*
X333533750Y-137953750D03*
X339883750Y-135413750D03*
X87471250Y-154463750D03*
X81121250Y-157003750D03*
X102552500Y-157003750D03*
X108902500Y-154463750D03*
X121602500Y-157003750D03*
X127952500Y-154463750D03*
X140652500Y-157003750D03*
X147002500Y-154463750D03*
X166052500Y-154463750D03*
X159702500Y-157003750D03*
X185102500Y-154463750D03*
X178752500Y-157003750D03*
X197802500Y-157003750D03*
X204152500Y-154463750D03*
X223202500Y-154463750D03*
X216852500Y-157003750D03*
X242252500Y-154463750D03*
X235902500Y-157003750D03*
X261302500Y-154463750D03*
X254952500Y-157003750D03*
X280352500Y-154463750D03*
X274002500Y-157003750D03*
X299402500Y-154463750D03*
X293052500Y-157003750D03*
X319246250Y-157003750D03*
X325596250Y-154463750D03*
X345440000Y-157003750D03*
X351790000Y-154463750D03*
X89852500Y-173513750D03*
X83502500Y-176053750D03*
X293052500Y-176053750D03*
X299402500Y-173513750D03*
X323215000Y-173513750D03*
X316865000Y-176053750D03*
X326390000Y-99853750D03*
X332740000Y-97313750D03*
X81121250Y-137953750D03*
X87471250Y-135413750D03*
X96996250Y-154463750D03*
X90646250Y-157003750D03*
X328771250Y-157003750D03*
X335121250Y-154463750D03*
D11*
X96395000Y-93087500D03*
X87755000Y-93087500D03*
D12*
X96395000Y-97267500D03*
X87755000Y-97267500D03*
D10*
X340677500Y-176053750D03*
X347027500Y-173513750D03*
X345440000Y-99853750D03*
X351790000Y-97313750D03*
X107315000Y-176053750D03*
X113665000Y-173513750D03*
X131127500Y-176053750D03*
X137477500Y-173513750D03*
X212090000Y-176053750D03*
X218440000Y-173513750D03*
D13*
X87757000Y-110363000D03*
X94054000Y-107759500D03*
X92773500Y-111950500D03*
X188277500Y-177165000D03*
X186944000Y-173609000D03*
X179705000Y-175069500D03*
X184750000Y-174190000D03*
X178866800Y-174040800D03*
X186275864Y-169375000D03*
X168605200Y-170434000D03*
X175133000Y-168402000D03*
X183007000Y-178181000D03*
X177673000Y-182372000D03*
X285572200Y-161010600D03*
X225374200Y-170662600D03*
X106121200Y-123723400D03*
X97320100Y-124002800D03*
X335280000Y-126492000D03*
X107190000Y-147530000D03*
X93890000Y-144080000D03*
X150130000Y-161150000D03*
X153990000Y-160620000D03*
X169367200Y-184099200D03*
X153238200Y-184327800D03*
X108140500Y-161480500D03*
X92202000Y-162687000D03*
X100500000Y-111100000D03*
X94996000Y-115354100D03*
X166065200Y-167335200D03*
X88800000Y-100680000D03*
X90660000Y-100680000D03*
X93500000Y-100880000D03*
X95350000Y-100880000D03*
D14*
X87755000Y-97267500D02*
X87755000Y-93439060D01*
X96395000Y-93439060D02*
X96395000Y-97267500D01*
X95155560Y-94678500D02*
X96395000Y-93439060D01*
X87755000Y-93087500D02*
X89346000Y-94678500D01*
X89346000Y-94678500D02*
X95155560Y-94678500D01*
X90360500Y-107759500D02*
X94054000Y-107759500D01*
X87757000Y-110363000D02*
X90360500Y-107759500D01*
X92773500Y-109040000D02*
X94054000Y-107759500D01*
X92773500Y-111950500D02*
X92773500Y-109040000D01*
X188277500Y-177165000D02*
X186880500Y-175768000D01*
X186880500Y-175768000D02*
X186880500Y-173672500D01*
X186880500Y-173672500D02*
X186944000Y-173609000D01*
X186880500Y-175768000D02*
X180403500Y-175768000D01*
X180403500Y-175768000D02*
X179705000Y-175069500D01*
D15*
X184750000Y-174190000D02*
X179016000Y-174190000D01*
X179016000Y-174190000D02*
X178866800Y-174040800D01*
D14*
X168605200Y-170434000D02*
X170589200Y-168450000D01*
X175085000Y-168450000D02*
X175133000Y-168402000D01*
X185350864Y-168450000D02*
X186275864Y-169375000D01*
X170609000Y-168450000D02*
X185350864Y-168450000D01*
D15*
X183007000Y-178181000D02*
X181864000Y-178181000D01*
X181864000Y-178181000D02*
X177673000Y-182372000D01*
X225374200Y-170662600D02*
X225425000Y-170662600D01*
X225425000Y-170662600D02*
X229920800Y-166166800D01*
X229920800Y-166166800D02*
X280416000Y-166166800D01*
X280416000Y-166166800D02*
X285572200Y-161010600D01*
X101955600Y-127889000D02*
X106121200Y-123723400D01*
X97320100Y-124002800D02*
X101206300Y-127889000D01*
X101206300Y-127889000D02*
X101955600Y-127889000D01*
X335280000Y-126492000D02*
X338074000Y-126492000D01*
X340887647Y-123678353D02*
X340887647Y-118903750D01*
X338074000Y-126492000D02*
X340887647Y-123678353D01*
X97340000Y-147530000D02*
X93890000Y-144080000D01*
X107190000Y-147530000D02*
X97340000Y-147530000D01*
X343033946Y-128428750D02*
X341217250Y-128428750D01*
X333533750Y-136112250D02*
X333533750Y-137953750D01*
X341217250Y-128428750D02*
X333533750Y-136112250D01*
X150130000Y-161150000D02*
X150660000Y-160620000D01*
X150660000Y-160620000D02*
X153990000Y-160620000D01*
X153238200Y-184327800D02*
X153873200Y-183692800D01*
X153873200Y-183692800D02*
X168960800Y-183692800D01*
X168960800Y-183692800D02*
X169367200Y-184099200D01*
X92202000Y-162687000D02*
X92583000Y-162306000D01*
X92583000Y-162306000D02*
X96347330Y-162306000D01*
X96347330Y-162306000D02*
X96406540Y-162246790D01*
X96406540Y-162246790D02*
X107374210Y-162246790D01*
X107374210Y-162246790D02*
X108140500Y-161480500D01*
D14*
X96245900Y-115354100D02*
X100500000Y-111100000D01*
X94996000Y-115354100D02*
X96245900Y-115354100D01*
D15*
X93358749Y-134288751D02*
X92233750Y-135413750D01*
X93572301Y-118492561D02*
X93572301Y-134075199D01*
X91443490Y-116363750D02*
X93572301Y-118492561D01*
X89852500Y-116363750D02*
X91443490Y-116363750D01*
X91108751Y-136538749D02*
X92233750Y-135413750D01*
X88596249Y-136538749D02*
X91108751Y-136538749D01*
X87471250Y-135413750D02*
X88596249Y-136538749D01*
X89062240Y-154463750D02*
X96996250Y-154463750D01*
X85090000Y-111601250D02*
X85090000Y-98904740D01*
X89852500Y-116363750D02*
X85090000Y-111601250D01*
X92233750Y-135413750D02*
X92233750Y-149701250D01*
X95871251Y-153338751D02*
X96996250Y-154463750D01*
X92233750Y-149701250D02*
X95871251Y-153338751D01*
X85090000Y-98904740D02*
X85090000Y-97313750D01*
X87471250Y-154463750D02*
X89062240Y-154463750D01*
X93572301Y-134075199D02*
X93358749Y-134288751D01*
X89852500Y-171922760D02*
X89852500Y-173513750D01*
X89852500Y-167703500D02*
X89852500Y-171922760D01*
X91567000Y-165989000D02*
X89852500Y-167703500D01*
X91567000Y-158305500D02*
X91567000Y-165989000D01*
X96996250Y-154463750D02*
X95408750Y-154463750D01*
X95408750Y-154463750D02*
X91567000Y-158305500D01*
X104140000Y-106838750D02*
X113665000Y-116363750D01*
X104140000Y-97313750D02*
X104140000Y-106838750D01*
X118427500Y-133822760D02*
X118427500Y-135413750D01*
X115255990Y-116363750D02*
X118427500Y-119535260D01*
X113665000Y-116363750D02*
X115255990Y-116363750D01*
X118427500Y-143347760D02*
X118427500Y-137004740D01*
X108902500Y-154463750D02*
X108902500Y-152872760D01*
X108902500Y-152872760D02*
X118427500Y-143347760D01*
X108902500Y-154463750D02*
X108902500Y-159402500D01*
X113665000Y-171922760D02*
X108902500Y-167160260D01*
X113665000Y-173513750D02*
X113665000Y-171922760D01*
X108902500Y-167160260D02*
X108902500Y-159402500D01*
X118427500Y-137004740D02*
X118427500Y-135413750D01*
X118427500Y-119535260D02*
X118427500Y-133822760D01*
X123190000Y-97313750D02*
X123190000Y-104935000D01*
X123190000Y-104935000D02*
X118975000Y-109150000D01*
X118975000Y-109150000D02*
X115050000Y-109150000D01*
X115050000Y-109150000D02*
X113625000Y-110575000D01*
X113625000Y-110575000D02*
X113625000Y-113150000D01*
X113625000Y-113150000D02*
X115125000Y-114650000D01*
X115125000Y-114650000D02*
X131001250Y-114650000D01*
X131001250Y-114650000D02*
X132715000Y-116363750D01*
X137477500Y-133822760D02*
X137477500Y-135413750D01*
X134305990Y-116363750D02*
X137477500Y-119535260D01*
X132715000Y-116363750D02*
X134305990Y-116363750D01*
X138602499Y-136538749D02*
X138602499Y-145907501D01*
X137477500Y-135413750D02*
X138602499Y-136538749D01*
X138602499Y-145907501D02*
X136780000Y-147730000D01*
X115850000Y-147730000D02*
X115510000Y-147730000D01*
X136780000Y-147730000D02*
X115850000Y-147730000D01*
X115850000Y-147730000D02*
X115540000Y-147730000D01*
X115510000Y-147730000D02*
X114140000Y-149100000D01*
X114140000Y-149100000D02*
X114140000Y-150990000D01*
X114140000Y-150990000D02*
X115470000Y-152320000D01*
X125808750Y-152320000D02*
X127952500Y-154463750D01*
X115470000Y-152320000D02*
X125808750Y-152320000D01*
X127952500Y-163988750D02*
X137477500Y-173513750D01*
X127952500Y-154463750D02*
X127952500Y-163988750D01*
X137477500Y-119535260D02*
X137477500Y-133822760D01*
X149576250Y-114175000D02*
X151765000Y-116363750D01*
X115275000Y-114175000D02*
X149576250Y-114175000D01*
X114075000Y-112975000D02*
X115275000Y-114175000D01*
X114075000Y-110750000D02*
X114075000Y-112975000D01*
X115225000Y-109600000D02*
X114075000Y-110750000D01*
X137925000Y-109600000D02*
X115225000Y-109600000D01*
X142240000Y-105285000D02*
X137925000Y-109600000D01*
X142240000Y-97313750D02*
X142240000Y-105285000D01*
X156527500Y-133822760D02*
X156527500Y-135413750D01*
X153355990Y-116363750D02*
X156527500Y-119535260D01*
X151765000Y-116363750D02*
X153355990Y-116363750D01*
X156527500Y-135413750D02*
X156527500Y-145802500D01*
X156527500Y-145802500D02*
X154160000Y-148170000D01*
X154160000Y-148170000D02*
X115790000Y-148170000D01*
X115690000Y-148170000D02*
X114590000Y-149270000D01*
X114590000Y-149270000D02*
X114590000Y-150820000D01*
X114590000Y-150820000D02*
X115650000Y-151880000D01*
X144418750Y-151880000D02*
X147002500Y-154463750D01*
X115650000Y-151880000D02*
X144418750Y-151880000D01*
X115790000Y-148170000D02*
X115690000Y-148170000D01*
X156527500Y-119535260D02*
X156527500Y-133822760D01*
X169690001Y-115238751D02*
X170815000Y-116363750D01*
X114511378Y-112782722D02*
X115467276Y-113738620D01*
X155881809Y-110043191D02*
X115410465Y-110043191D01*
X115467276Y-113738620D02*
X168189870Y-113738620D01*
X161290000Y-104635000D02*
X155881809Y-110043191D01*
X115410465Y-110043191D02*
X114511378Y-110942278D01*
X161290000Y-97313750D02*
X161290000Y-104635000D01*
X114511378Y-110942278D02*
X114511378Y-112782722D01*
X175577500Y-133822760D02*
X175577500Y-135413750D01*
X172405990Y-116363750D02*
X175577500Y-119535260D01*
X170815000Y-116363750D02*
X172405990Y-116363750D01*
X175577500Y-135413750D02*
X175577500Y-146212500D01*
X175577500Y-146212500D02*
X173158191Y-148631809D01*
X163028750Y-151440000D02*
X164927501Y-153338751D01*
X115830000Y-151440000D02*
X163028750Y-151440000D01*
X115848191Y-148631809D02*
X115030000Y-149450000D01*
X173158191Y-148631809D02*
X115848191Y-148631809D01*
X115030000Y-149450000D02*
X115030000Y-150640000D01*
X115030000Y-150640000D02*
X115830000Y-151440000D01*
X166052500Y-167322500D02*
X166065200Y-167335200D01*
X166052500Y-154463750D02*
X166052500Y-167322500D01*
X164927501Y-153338751D02*
X166052500Y-154463750D01*
X175577500Y-119535260D02*
X175577500Y-133822760D01*
X168189870Y-113738620D02*
X169690001Y-115238751D01*
X180340000Y-98904740D02*
X180340000Y-97313750D01*
X115507517Y-110556811D02*
X176621939Y-110556811D01*
X186808059Y-113306809D02*
X115646137Y-113306809D01*
X114943189Y-111121139D02*
X115507517Y-110556811D01*
X189865000Y-116363750D02*
X186808059Y-113306809D01*
X115646137Y-113306809D02*
X114943189Y-112603861D01*
X114943189Y-112603861D02*
X114943189Y-111121139D01*
X176621939Y-110556811D02*
X180340000Y-106838750D01*
X194627500Y-133822760D02*
X194627500Y-135413750D01*
X191455990Y-116363750D02*
X194627500Y-119535260D01*
X189865000Y-116363750D02*
X191455990Y-116363750D01*
X194627500Y-135413750D02*
X194627500Y-145982500D01*
X194627500Y-145982500D02*
X191540000Y-149070000D01*
X191540000Y-149070000D02*
X116094127Y-149070000D01*
X181646939Y-151008189D02*
X183977501Y-153338751D01*
X116018189Y-151008189D02*
X181646939Y-151008189D01*
X115480000Y-149684127D02*
X115480000Y-150470000D01*
X115480000Y-150470000D02*
X116018189Y-151008189D01*
X116094127Y-149070000D02*
X115480000Y-149684127D01*
X183977501Y-153338751D02*
X185102500Y-154463750D01*
X194627500Y-119535260D02*
X194627500Y-133822760D01*
X180340000Y-106838750D02*
X180340000Y-98904740D01*
X207790001Y-115238751D02*
X208915000Y-116363750D01*
X115800210Y-112800210D02*
X205351460Y-112800210D01*
X199390000Y-97313750D02*
X199390000Y-106910000D01*
X199390000Y-106910000D02*
X195275410Y-111024590D01*
X195275410Y-111024590D02*
X115675410Y-111024590D01*
X115675410Y-111024590D02*
X115375000Y-111325000D01*
X115375000Y-111325000D02*
X115375000Y-112375000D01*
X115375000Y-112375000D02*
X115800210Y-112800210D01*
X213677500Y-133822760D02*
X213677500Y-135413750D01*
X210505990Y-116363750D02*
X213677500Y-119535260D01*
X208915000Y-116363750D02*
X210505990Y-116363750D01*
X227353750Y-149090000D02*
X287158577Y-149090000D01*
X287758854Y-149690277D02*
X287758854Y-150340177D01*
X207698061Y-150918189D02*
X205277499Y-153338751D01*
X287180842Y-150918189D02*
X207698061Y-150918189D01*
X287758854Y-150340177D02*
X287180842Y-150918189D01*
X287158577Y-149090000D02*
X287758854Y-149690277D01*
X213677500Y-135413750D02*
X227353750Y-149090000D01*
X218440000Y-173513750D02*
X204152500Y-159226250D01*
X204152500Y-156054740D02*
X204152500Y-154463750D01*
X204152500Y-159226250D02*
X204152500Y-156054740D01*
X205277499Y-153338751D02*
X204152500Y-154463750D01*
X213677500Y-119535260D02*
X213677500Y-133822760D01*
X205351460Y-112800210D02*
X207790001Y-115238751D01*
X288175237Y-112260619D02*
X287565856Y-112870000D01*
X288175237Y-111581210D02*
X288175237Y-112260619D01*
X231458750Y-112870000D02*
X229089999Y-115238751D01*
X218440000Y-97313750D02*
X232046250Y-110920000D01*
X232046250Y-110920000D02*
X287514027Y-110920000D01*
X287565856Y-112870000D02*
X231458750Y-112870000D01*
X287514027Y-110920000D02*
X288175237Y-111581210D01*
X232727500Y-121126250D02*
X232727500Y-135413750D01*
X227965000Y-116363750D02*
X232727500Y-121126250D01*
X232727500Y-135413750D02*
X232727500Y-146077500D01*
X232727500Y-146077500D02*
X235280000Y-148630000D01*
X235280000Y-148630000D02*
X287310000Y-148630000D01*
X287310000Y-148630000D02*
X288200000Y-149520000D01*
X288190664Y-150509336D02*
X288190664Y-150519039D01*
X288200000Y-149520000D02*
X288200000Y-150500000D01*
X288200000Y-150500000D02*
X288190664Y-150509336D01*
X288190664Y-150519039D02*
X287359703Y-151350000D01*
X226316250Y-151350000D02*
X223202500Y-154463750D01*
X287359703Y-151350000D02*
X226316250Y-151350000D01*
X229089999Y-115238751D02*
X227965000Y-116363750D01*
X250656250Y-110480000D02*
X287689328Y-110480000D01*
X287689328Y-110480000D02*
X288607048Y-111397720D01*
X288607048Y-111397720D02*
X288607048Y-112462952D01*
X237490000Y-97313750D02*
X250656250Y-110480000D01*
X288607048Y-112462952D02*
X287760000Y-113310000D01*
X250068750Y-113310000D02*
X248139999Y-115238751D01*
X287760000Y-113310000D02*
X250068750Y-113310000D01*
X251777500Y-121126250D02*
X251777500Y-135413750D01*
X247015000Y-116363750D02*
X251777500Y-121126250D01*
X251777500Y-135413750D02*
X251777500Y-145637500D01*
X251777500Y-145637500D02*
X254320000Y-148180000D01*
X254320000Y-148180000D02*
X287480000Y-148180000D01*
X287480000Y-148180000D02*
X288640000Y-149340000D01*
X288640000Y-149340000D02*
X288640000Y-150690000D01*
X288640000Y-150690000D02*
X287540000Y-151790000D01*
X244926250Y-151790000D02*
X242252500Y-154463750D01*
X287540000Y-151790000D02*
X244926250Y-151790000D01*
X248139999Y-115238751D02*
X247015000Y-116363750D01*
X287870000Y-110030000D02*
X289038859Y-111198859D01*
X267189999Y-115238751D02*
X266065000Y-116363750D01*
X289038859Y-111198859D02*
X289038859Y-112650469D01*
X289038859Y-112650469D02*
X287939328Y-113750000D01*
X287939328Y-113750000D02*
X268678750Y-113750000D01*
X269256250Y-110030000D02*
X287870000Y-110030000D01*
X256540000Y-97313750D02*
X269256250Y-110030000D01*
X270827500Y-121126250D02*
X270827500Y-135413750D01*
X266065000Y-116363750D02*
X270827500Y-121126250D01*
X270827500Y-135413750D02*
X270827500Y-144757500D01*
X270827500Y-144757500D02*
X273800000Y-147730000D01*
X273800000Y-147730000D02*
X287670000Y-147730000D01*
X287670000Y-147730000D02*
X289090000Y-149150000D01*
X289090000Y-149150000D02*
X289090000Y-150870000D01*
X289090000Y-150870000D02*
X287720000Y-152240000D01*
X263526250Y-152240000D02*
X261302500Y-154463750D01*
X287720000Y-152240000D02*
X263526250Y-152240000D01*
X268678750Y-113750000D02*
X267189999Y-115238751D01*
X275590000Y-97313750D02*
X275590000Y-107580000D01*
X275590000Y-107580000D02*
X277600000Y-109590000D01*
X288048861Y-109598190D02*
X288301810Y-109851140D01*
X288008190Y-109598190D02*
X288048861Y-109598190D01*
X277600000Y-109590000D02*
X288000000Y-109590000D01*
X288000000Y-109590000D02*
X288008190Y-109598190D01*
X288301810Y-109851140D02*
X289470670Y-111020000D01*
X289470670Y-111020000D02*
X289470670Y-112829330D01*
X289470670Y-112829330D02*
X288110000Y-114190000D01*
X287288750Y-114190000D02*
X285115000Y-116363750D01*
X288110000Y-114190000D02*
X287288750Y-114190000D01*
X289877500Y-133822760D02*
X289877500Y-135413750D01*
X286705990Y-116363750D02*
X289877500Y-119535260D01*
X285115000Y-116363750D02*
X286705990Y-116363750D01*
X289877500Y-135413750D02*
X289877500Y-150712500D01*
X289877500Y-150712500D02*
X287910000Y-152680000D01*
X282136250Y-152680000D02*
X280352500Y-154463750D01*
X287910000Y-152680000D02*
X282136250Y-152680000D01*
X298277501Y-172388751D02*
X299402500Y-173513750D01*
X280352500Y-154463750D02*
X298277501Y-172388751D01*
X289877500Y-119535260D02*
X289877500Y-133822760D01*
X308927500Y-144938750D02*
X308927500Y-135413750D01*
X299402500Y-154463750D02*
X308927500Y-144938750D01*
X308927500Y-121126250D02*
X304165000Y-116363750D01*
X308927500Y-135413750D02*
X308927500Y-121126250D01*
X304165000Y-106838750D02*
X294640000Y-97313750D01*
X304165000Y-116363750D02*
X304165000Y-106838750D01*
X318452500Y-173513750D02*
X323215000Y-173513750D01*
X299402500Y-154463750D02*
X318452500Y-173513750D01*
X313690000Y-106838750D02*
X323215000Y-116363750D01*
X313690000Y-97313750D02*
X313690000Y-106838750D01*
X324471251Y-153338751D02*
X325596250Y-154463750D01*
X323138799Y-118030941D02*
X323138799Y-152006299D01*
X323215000Y-117954740D02*
X323138799Y-118030941D01*
X323215000Y-116363750D02*
X323215000Y-117954740D01*
X333530260Y-154463750D02*
X325596250Y-154463750D01*
X345436510Y-173513750D02*
X347027500Y-173513750D01*
X325596250Y-154463750D02*
X325596250Y-159384856D01*
X325596250Y-159384856D02*
X338455144Y-172243750D01*
X338455144Y-172243750D02*
X339725144Y-173513750D01*
X339725144Y-173513750D02*
X345436510Y-173513750D01*
X335121250Y-154463750D02*
X333530260Y-154463750D01*
X323138799Y-152006299D02*
X324471251Y-153338751D01*
X351790000Y-98904740D02*
X351790000Y-97313750D01*
X347027500Y-107950144D02*
X351790000Y-103187644D01*
X347027500Y-116363750D02*
X347027500Y-107950144D01*
X350199010Y-97313750D02*
X342265000Y-97313750D01*
X340674010Y-97313750D02*
X332740000Y-97313750D01*
X342265000Y-97313750D02*
X340674010Y-97313750D01*
X351790000Y-97313750D02*
X350199010Y-97313750D01*
X351790000Y-103187644D02*
X351790000Y-98904740D01*
X341008749Y-136538749D02*
X339883750Y-135413750D01*
X352914999Y-153338751D02*
X352914999Y-148444999D01*
X352914999Y-148444999D02*
X341008749Y-136538749D01*
X351790000Y-154463750D02*
X352914999Y-153338751D01*
X347027500Y-126174500D02*
X347027500Y-116363750D01*
X347027500Y-126936500D02*
X347027500Y-126174500D01*
X343662000Y-130302000D02*
X347027500Y-126936500D01*
X343662000Y-133604000D02*
X343662000Y-130302000D01*
X339883750Y-135413750D02*
X341852250Y-135413750D01*
X341852250Y-135413750D02*
X343662000Y-133604000D01*
X347313250Y-125888750D02*
X347027500Y-126174500D01*
X349383946Y-125888750D02*
X347313250Y-125888750D01*
X339883750Y-135413750D02*
X338804250Y-135413750D01*
X338804250Y-135413750D02*
X334518000Y-139700000D01*
X334518000Y-139700000D02*
X334518000Y-141478000D01*
X334518000Y-141478000D02*
X332994000Y-143002000D01*
X332994000Y-143002000D02*
X329946000Y-143002000D01*
X329946000Y-143002000D02*
X328422000Y-141478000D01*
X328422000Y-135855149D02*
X327980601Y-135413750D01*
X328422000Y-141478000D02*
X328422000Y-135855149D01*
X90850000Y-100680000D02*
X90660000Y-100680000D01*
X88800000Y-100680000D02*
X90660000Y-100680000D01*
X93500000Y-100880000D02*
X95350000Y-100880000D01*
G36*
X87882000Y-94355454D02*
G01*
X88056874Y-94481619D01*
X88279976Y-94401776D01*
X88467764Y-94279869D01*
X88628161Y-94123669D01*
X88755003Y-93939178D01*
X88843415Y-93733487D01*
X88876332Y-93578750D01*
X95273668Y-93578750D01*
X95306585Y-93733487D01*
X95394997Y-93939178D01*
X95521839Y-94123669D01*
X95682236Y-94279869D01*
X95870024Y-94401776D01*
X96093126Y-94481619D01*
X96268000Y-94355454D01*
X96268000Y-93578750D01*
X96522000Y-93578750D01*
X96522000Y-94355454D01*
X96696874Y-94481619D01*
X96919976Y-94401776D01*
X97107764Y-94279869D01*
X97218500Y-94172031D01*
X97218500Y-95932969D01*
X97107764Y-95825131D01*
X96919976Y-95703224D01*
X96696874Y-95623381D01*
X96522000Y-95749546D01*
X96522000Y-97140500D01*
X96542000Y-97140500D01*
X96542000Y-97394500D01*
X96522000Y-97394500D01*
X96522000Y-97414500D01*
X96268000Y-97414500D01*
X96268000Y-97394500D01*
X96248000Y-97394500D01*
X96248000Y-97140500D01*
X96268000Y-97140500D01*
X96268000Y-95749546D01*
X96093126Y-95623381D01*
X95870024Y-95703224D01*
X95682236Y-95825131D01*
X95537884Y-95965706D01*
X95419731Y-95886759D01*
X95245022Y-95814392D01*
X95059552Y-95777500D01*
X94870448Y-95777500D01*
X94684978Y-95814392D01*
X94510269Y-95886759D01*
X94353036Y-95991819D01*
X94219319Y-96125536D01*
X94114259Y-96282769D01*
X94041892Y-96457478D01*
X94005000Y-96642948D01*
X94005000Y-96832052D01*
X94041892Y-97017522D01*
X94114259Y-97192231D01*
X94219319Y-97349464D01*
X94353036Y-97483181D01*
X94510269Y-97588241D01*
X94684978Y-97660608D01*
X94870448Y-97697500D01*
X95059552Y-97697500D01*
X95245022Y-97660608D01*
X95260000Y-97654404D01*
X95260000Y-97944500D01*
X95306585Y-98163487D01*
X95394997Y-98369178D01*
X95433376Y-98425000D01*
X88716624Y-98425000D01*
X88755003Y-98369178D01*
X88843415Y-98163487D01*
X88890000Y-97944500D01*
X88890000Y-97654404D01*
X88904978Y-97660608D01*
X89090448Y-97697500D01*
X89279552Y-97697500D01*
X89465022Y-97660608D01*
X89639731Y-97588241D01*
X89796964Y-97483181D01*
X89930681Y-97349464D01*
X90035741Y-97192231D01*
X90108108Y-97017522D01*
X90145000Y-96832052D01*
X90145000Y-96642948D01*
X90108108Y-96457478D01*
X90035741Y-96282769D01*
X89930681Y-96125536D01*
X89796964Y-95991819D01*
X89639731Y-95886759D01*
X89465022Y-95814392D01*
X89279552Y-95777500D01*
X89090448Y-95777500D01*
X88904978Y-95814392D01*
X88730269Y-95886759D01*
X88612116Y-95965706D01*
X88467764Y-95825131D01*
X88279976Y-95703224D01*
X88056874Y-95623381D01*
X87882000Y-95749546D01*
X87882000Y-97140500D01*
X87902000Y-97140500D01*
X87902000Y-97394500D01*
X87882000Y-97394500D01*
X87882000Y-97414500D01*
X87628000Y-97414500D01*
X87628000Y-97394500D01*
X87608000Y-97394500D01*
X87608000Y-97140500D01*
X87628000Y-97140500D01*
X87628000Y-95749546D01*
X87453126Y-95623381D01*
X87230024Y-95703224D01*
X87042236Y-95825131D01*
X86931500Y-95932969D01*
X86931500Y-94172031D01*
X87042236Y-94279869D01*
X87230024Y-94401776D01*
X87453126Y-94481619D01*
X87628000Y-94355454D01*
X87628000Y-93578750D01*
X87882000Y-93578750D01*
X87882000Y-94355454D01*
X87882000Y-94355454D01*
G37*
X87882000Y-94355454D02*
X88056874Y-94481619D01*
X88279976Y-94401776D01*
X88467764Y-94279869D01*
X88628161Y-94123669D01*
X88755003Y-93939178D01*
X88843415Y-93733487D01*
X88876332Y-93578750D01*
X95273668Y-93578750D01*
X95306585Y-93733487D01*
X95394997Y-93939178D01*
X95521839Y-94123669D01*
X95682236Y-94279869D01*
X95870024Y-94401776D01*
X96093126Y-94481619D01*
X96268000Y-94355454D01*
X96268000Y-93578750D01*
X96522000Y-93578750D01*
X96522000Y-94355454D01*
X96696874Y-94481619D01*
X96919976Y-94401776D01*
X97107764Y-94279869D01*
X97218500Y-94172031D01*
X97218500Y-95932969D01*
X97107764Y-95825131D01*
X96919976Y-95703224D01*
X96696874Y-95623381D01*
X96522000Y-95749546D01*
X96522000Y-97140500D01*
X96542000Y-97140500D01*
X96542000Y-97394500D01*
X96522000Y-97394500D01*
X96522000Y-97414500D01*
X96268000Y-97414500D01*
X96268000Y-97394500D01*
X96248000Y-97394500D01*
X96248000Y-97140500D01*
X96268000Y-97140500D01*
X96268000Y-95749546D01*
X96093126Y-95623381D01*
X95870024Y-95703224D01*
X95682236Y-95825131D01*
X95537884Y-95965706D01*
X95419731Y-95886759D01*
X95245022Y-95814392D01*
X95059552Y-95777500D01*
X94870448Y-95777500D01*
X94684978Y-95814392D01*
X94510269Y-95886759D01*
X94353036Y-95991819D01*
X94219319Y-96125536D01*
X94114259Y-96282769D01*
X94041892Y-96457478D01*
X94005000Y-96642948D01*
X94005000Y-96832052D01*
X94041892Y-97017522D01*
X94114259Y-97192231D01*
X94219319Y-97349464D01*
X94353036Y-97483181D01*
X94510269Y-97588241D01*
X94684978Y-97660608D01*
X94870448Y-97697500D01*
X95059552Y-97697500D01*
X95245022Y-97660608D01*
X95260000Y-97654404D01*
X95260000Y-97944500D01*
X95306585Y-98163487D01*
X95394997Y-98369178D01*
X95433376Y-98425000D01*
X88716624Y-98425000D01*
X88755003Y-98369178D01*
X88843415Y-98163487D01*
X88890000Y-97944500D01*
X88890000Y-97654404D01*
X88904978Y-97660608D01*
X89090448Y-97697500D01*
X89279552Y-97697500D01*
X89465022Y-97660608D01*
X89639731Y-97588241D01*
X89796964Y-97483181D01*
X89930681Y-97349464D01*
X90035741Y-97192231D01*
X90108108Y-97017522D01*
X90145000Y-96832052D01*
X90145000Y-96642948D01*
X90108108Y-96457478D01*
X90035741Y-96282769D01*
X89930681Y-96125536D01*
X89796964Y-95991819D01*
X89639731Y-95886759D01*
X89465022Y-95814392D01*
X89279552Y-95777500D01*
X89090448Y-95777500D01*
X88904978Y-95814392D01*
X88730269Y-95886759D01*
X88612116Y-95965706D01*
X88467764Y-95825131D01*
X88279976Y-95703224D01*
X88056874Y-95623381D01*
X87882000Y-95749546D01*
X87882000Y-97140500D01*
X87902000Y-97140500D01*
X87902000Y-97394500D01*
X87882000Y-97394500D01*
X87882000Y-97414500D01*
X87628000Y-97414500D01*
X87628000Y-97394500D01*
X87608000Y-97394500D01*
X87608000Y-97140500D01*
X87628000Y-97140500D01*
X87628000Y-95749546D01*
X87453126Y-95623381D01*
X87230024Y-95703224D01*
X87042236Y-95825131D01*
X86931500Y-95932969D01*
X86931500Y-94172031D01*
X87042236Y-94279869D01*
X87230024Y-94401776D01*
X87453126Y-94481619D01*
X87628000Y-94355454D01*
X87628000Y-93578750D01*
X87882000Y-93578750D01*
X87882000Y-94355454D01*
M02*
